<?xml version="1.0" encoding="UTF-8" standalone="no"?>
<!-- Created with Inkscape (http://www.inkscape.org/) -->

<svg
   width="210mm"
   height="297mm"
   viewBox="0 0 210 297"
   version="1.1"
   id="svg1"
   xml:space="preserve"
   inkscape:version="1.4.4 (dcaf3e7d9e, 2026-05-05)"
   sodipodi:docname="Background.svg"
   xmlns:inkscape="http://www.inkscape.org/namespaces/inkscape"
   xmlns:sodipodi="http://sodipodi.sourceforge.net/DTD/sodipodi-0.dtd"
   xmlns="http://www.w3.org/2000/svg"
   xmlns:svg="http://www.w3.org/2000/svg"><sodipodi:namedview
     id="namedview1"
     pagecolor="#ffffff"
     bordercolor="#999999"
     borderopacity="1"
     inkscape:showpageshadow="2"
     inkscape:pageopacity="0"
     inkscape:pagecheckerboard="0"
     inkscape:deskcolor="#d1d1d1"
     inkscape:document-units="mm"
     inkscape:zoom="1.1603277"
     inkscape:cx="354.64119"
     inkscape:cy="543.38098"
     inkscape:window-width="1920"
     inkscape:window-height="1172"
     inkscape:window-x="0"
     inkscape:window-y="0"
     inkscape:window-maximized="1"
     inkscape:current-layer="layer1" /><defs
     id="defs1" /><g
     inkscape:label="Layer 1"
     inkscape:groupmode="layer"
     id="layer1"><path
       style="fill:#1a1a1a;stroke-width:2.11667;paint-order:markers stroke fill"
       d="m 27.531351,85.657573 -5.280537,12.697475 -0.967427,10.843242 0.161238,8.46498 2.096091,16.00285 3.345684,12.21376 c 0,0 2.096092,8.5053 -0.403093,11.60912 -2.499187,3.10383 -7.255701,9.39211 -7.255701,9.39211 l -3.547232,4.75651 c 0,0 -0.483713,2.05578 0.201548,2.49919 0.68526,0.4434 12.092833,18.17955 12.092833,18.17955 l 9.754886,9.91613 14.712947,8.46498 15.39821,4.91776 6.651059,2.53949 11.528502,6.85261 13.947065,8.78746 c 0,0 2.186786,2.50926 5.119306,0.19146 2.93251,-2.31779 25.35464,-15.18658 25.35464,-15.18658 l 14.57186,-5.66348 16.58734,-7.03399 10.03705,-7.6588 12.21376,-16.44625 4.98154,-8.35637 -0.057,-2.19474 -7.92385,-10.37512 -3.47738,-4.98804 -0.37054,-3.6484 1.33965,-4.81702 0.76958,-5.81462 3.84792,-19.3821 0.31353,-18.15646 -3.22085,-13.36795 c 0,0 -3.47844,-5.319376 -3.55906,-5.339532 -0.0806,-0.02016 -3.10383,-0.765879 -3.10383,-0.765879 l -10.92386,2.640269 -18.88497,11.730048 -17.41368,16.043164 c 0,0 -15.38923,-3.49119 -23.21825,-3.54723 -8.246767,-0.059 -24.508139,3.38599 -24.508139,3.38599 L 54.668921,94.345203 37.738091,85.737273 30.783339,84.1411 Z"
       id="path1"
       sodipodi:nodetypes="ccccccsccscccccccscccccccccccccccsccccsccccc" /></g></svg>
