<?xml version="1.0" encoding="UTF-8" standalone="no"?>
<svg
   width="512"
   height="512"
   viewBox="0 0 512 512"
   fill="none"
   version="1.1"
   id="svg18"
   sodipodi:docname="Keychain.svg"
   inkscape:version="1.4.4 (dcaf3e7d9e, 2026-05-05)"
   xmlns:inkscape="http://www.inkscape.org/namespaces/inkscape"
   xmlns:sodipodi="http://sodipodi.sourceforge.net/DTD/sodipodi-0.dtd"
   xmlns="http://www.w3.org/2000/svg"
   xmlns:svg="http://www.w3.org/2000/svg">
  <defs
     id="defs18" />
  <sodipodi:namedview
     id="namedview18"
     pagecolor="#ffffff"
     bordercolor="#999999"
     borderopacity="1"
     inkscape:showpageshadow="2"
     inkscape:pageopacity="0"
     inkscape:pagecheckerboard="0"
     inkscape:deskcolor="#d1d1d1"
     inkscape:zoom="1.2719636"
     inkscape:cx="233.89035"
     inkscape:cy="279.48914"
     inkscape:window-width="1920"
     inkscape:window-height="1172"
     inkscape:window-x="0"
     inkscape:window-y="0"
     inkscape:window-maximized="1"
     inkscape:current-layer="svg18" />
  <g
     id="g14">
    <path
       id="path1"
       inkscape:label="L"
       d="m 451.1211,20 -0.29102,0.441407 c -6.428,11.2692 -10.07691,18.251228 -17.00391,29.111328 2.853,3.9535 6.39349,8.588825 12.39649,14.078125 -6.727,-3.8732 -11.18983,-7.444456 -14.42383,-10.972656 -8.824,13.5617 -22.38189,32.709931 -49.58789,69.394536 18.629,-7.724 32.8403,-12.12575 45.6543,-12.84375 -0.222,-2.373 -0.21261,-4.90144 0.15039,-7.52344 l 0.0879,-0.53906 c 1.737,-11.065705 8.619,-18.824614 15.375,-17.349614 6.757,1.474999 10.83128,11.628959 9.11328,22.693364 -0.33,2.07 -0.83123,4.04037 -1.49023,5.85937 12.05799,4.038 24.52082,11.91744 40.29882,24.02344 -2.558,-6.639 -4.81695,-12.62827 -7.00195,-18.32227 -4.052,-4.092 -8.17195,-9.27946 -17.12695,-15.48047 6.384,2.588 10.83833,5.19077 14.23632,7.88477 C 459.44682,52.321679 458.0551,44.7873 451.1211,20 Z M 20.96875,49.9375 c -4.905204,5.026312 1.137011,13.636658 -4.939453,18.601563 -3.919054,10.985538 0.44378,26.171036 12.84961,29.345705 5.733761,-0.83727 1.44811,8.153312 -0.306641,9.320312 C 20.501644,108.89187 17.471625,93.009955 10,98.193358 c 7.2064,4.091972 7.656709,16.194902 17.742188,15.753912 3.863669,2.0332 0.172316,10.98498 1.003906,15.90625 0.06294,23.80385 -0.08809,47.60208 -0.394531,71.39258 0.0059,17.32539 -0.442086,34.68086 -0.400391,51.99218 0.57286,5.74824 1.253736,11.72507 5.330078,16.21289 4.93658,5.65291 13.917644,4.79011 20.291016,2.31641 7.246819,-3.84654 8.474728,-12.91307 8.300781,-20.3125 0.402156,-33.31379 0.741727,-66.63411 1.158203,-99.94922 0.06933,-14.86369 0.482702,-29.75694 0.431641,-44.59375 C 63.929134,102.5689 58.576092,96.633083 66.125,96.464844 77.055174,91.108012 79.724647,75.454017 73.953126,65.488282 69.953936,61.933148 76.71616,46.600021 66.306641,50.677735 58.288316,57.528933 48.996221,51.888828 39.585938,53.771485 32.246459,57.293193 28.317117,49.63101 20.96875,49.9375 Z m 262.87305,45.75 c -1.02895,0.05289 -2.06225,0.220799 -3.08203,0.513672 -6.4018,0.862966 -10.96933,6.171888 -11.54297,12.492188 -0.6497,14.84841 -0.153,29.74555 -0.25781,44.61328 -1.27006,4.22349 2.60346,12.24975 -2.00977,14.11719 -14.10538,-0.20574 -29.10858,-0.83479 -41.80469,6.41992 -15.81679,7.66202 -24.82503,25.18587 -25.28906,42.31446 -0.41672,15.73128 2.30578,33.16725 13.9707,44.71289 12.92606,12.8085 32.11708,16.15907 49.65625,15.74609 9.41588,-0.40122 19.26867,1.35114 28.31641,-1.97266 7.4042,-2.76158 7.57384,-11.74153 8.24414,-18.36328 0.39939,-14.98293 0.21008,-29.99229 0.20508,-44.97656 0.1041,-26.05904 -0.0829,-52.12422 0.0859,-78.17578 -0.26386,-8.40156 0.87687,-16.98776 -0.99024,-25.25 C 298.0728,100.5716 291.04437,95.317308 283.84176,95.6875 Z M 94.966797,123.32422 c -5.558835,0.19463 -11.031813,3.35439 -12.888671,8.82813 -3.017482,7.31937 -1.778134,15.2715 -1.845704,22.94531 -0.02457,5.2585 0.140135,10.55501 -0.04687,15.82617 0.483555,18.19228 -0.788718,36.45055 1.232422,54.57617 0.382157,5.88923 0.801719,12.04665 4.115235,17.14844 3.689669,4.66486 10.806135,7.76173 16.457041,4.90234 6.06086,-3.23115 7.63742,-10.56162 8.56054,-16.79882 0.4517,-11.06092 0.22078,-22.13216 0.20508,-33.19532 0.26603,-6.17616 0.29884,-12.36293 0.39843,-18.55078 0.10262,-6.13933 4.22162,-11.27107 9.18556,-14.46484 7.14065,-4.75139 17.18203,-5.80082 24.68358,-1.29102 6.2855,3.75989 9.28151,11.08587 9.69728,18.14649 -0.29611,9.28433 0.37477,18.56079 0.27147,27.83984 0.25676,9.70399 0.10201,19.62447 2.94141,29.01367 1.04454,4.91835 5.12035,9.1307 10.31837,9.26563 4.62041,0.25512 10.41217,-0.14825 13.15234,-4.45703 3.262,-6.29585 3.06306,-13.67839 3.21094,-20.59375 0.7193,-8.89972 0.95088,-17.81757 0.77929,-26.75196 -0.89341,-10.07605 -0.64498,-20.23309 -2.23632,-30.24414 -1.51636,-10.66496 -6.64654,-21.19721 -15.74024,-27.36133 -6.04969,-4.14992 -12.99907,-7.20395 -20.24023,-8.51367 -4.93536,-0.95467 -9.98171,-0.99268 -14.87111,0.22656 -7.81328,2.40606 -16.02216,6.16977 -20.39842,13.44727 -1.49287,0.39256 -0.53115,-5.08439 -1.22853,-6.89453 -0.58011,-5.66547 -4.37752,-11.21245 -10.25586,-12.23047 -1.741184,-0.61803 -3.604082,-0.88323 -5.457028,-0.81836 z m 242.607423,3.00781 c -2.08279,0.0862 -4.15338,0.60995 -6.09961,1.6543 -7.37608,3.69638 -8.52375,13.41707 -5.44922,20.34766 2.38971,7.06322 10.53289,10.48059 17.48633,8.56054 6.70727,-1.44794 12.53308,-6.61514 12.51758,-13.85937 -0.19121,-9.2389 -9.42966,-17.07647 -18.45508,-16.70313 z m 90.31055,5.66407 c -7.02536,0.0908 -14.02582,1.34382 -20.5918,3.84179 -11.5302,4.04396 -20.92138,12.8515 -26.90625,23.3711 -3.53433,6.34713 -5.48656,13.50907 -6.23242,20.70898 -1.45583,12.64891 -0.12314,25.62358 3.88477,37.69727 4.12682,12.02272 12.15756,23.50135 24.16406,28.60742 6.11181,3.09346 12.99906,3.84817 19.71289,4.5293 14.47727,0.80564 29.22466,-1.67294 42.45703,-7.65039 7.12472,-3.58613 14.82235,-7.32589 19.12695,-14.38086 3.06796,-4.61684 3.71116,-11.18991 0.16992,-15.72657 -3.99214,-5.02646 -11.26777,-4.04995 -16.46875,-1.71875 -3.96368,1.47027 -7.60595,3.68337 -11.55273,5.1836 -6.7739,3.23279 -14.0663,5.31848 -21.55273,5.98828 -8.87354,0.53311 -19.22787,-0.23229 -25.42774,-7.46875 -1.66488,-2.38571 -3.59292,-5.9258 -2.04101,-8.72461 4.98828,-0.84856 10.11883,-0.9911 15.11914,-1.9082 9.69389,-1.15237 19.36709,-2.43456 28.97461,-4.1504 7.72578,-1.8132 15.94103,-2.20837 23.00781,-6.14257 5.01439,-2.72514 7.21031,-8.35001 7.70508,-13.76172 0.44418,-10.04608 -2.35629,-20.43753 -8.4043,-28.53906 -6.1473,-7.89573 -14.91091,-13.5987 -24.41016,-16.6211 -6.65922,-2.15332 -13.70902,-3.22557 -20.73437,-3.13476 z m 2.37109,25.15234 c 6.14637,-0.37709 12.10791,2.56706 16.73047,6.51172 1.54819,1.23853 3.06736,2.54175 4.31055,4.12109 0.99195,1.95306 4.76754,6.39262 1.05078,7.17774 -11.74865,1.87819 -23.52794,3.58677 -35.29102,5.37304 -4.09304,0.50398 -8.18124,1.45255 -12.28906,1.59571 -2.36014,-1.57647 0.37579,-5.42317 0.99023,-7.65235 3.28987,-9.25995 12.37466,-15.35437 21.85547,-16.7539 0.88226,-0.1962 1.76453,-0.31918 2.64258,-0.37305 z m -92.20703,21.75195 c -4.41361,0.12321 -8.93798,1.58731 -11.67773,5.01172 -4.16527,7.46924 -4.06467,16.36317 -4.41016,24.67578 0.4253,15.34205 0.074,30.70092 0.33984,46.04492 0.69769,12.4308 -0.81073,25.13185 2.24805,37.32422 1.39202,6.52477 7.01313,12.28498 14,11.96094 6.76847,0.8839 12.32701,-4.71553 13.7793,-10.9375 2.77234,-10.39223 1.99325,-21.30556 2.17187,-31.94922 0.36738,-17.25274 -0.28039,-34.50289 -0.21289,-51.75781 0.0682,-6.59131 -0.38706,-13.17183 -1.23828,-19.70898 0.0258,-5.88406 -5.21929,-9.85292 -10.69336,-10.36329 -1.37651,-0.23401 -2.83543,-0.34185 -4.30664,-0.30078 z m -86.65039,17.03321 c 0.67415,-0.0128 1.35276,0.008 2.0332,0.0684 5.02157,0.6279 10.99103,0.16915 15.36328,2.3125 0.28302,12.57417 0.0242,25.17917 0.14649,37.76171 1.02184,5.5806 -0.0185,11.23308 -7.03125,10.22266 -9.03284,0.34096 -19.73904,-0.12534 -26.1875,-7.38672 -5.57177,-6.68573 -6.73724,-16.25382 -5.2832,-24.61914 1.66149,-10.0019 10.84674,-18.16731 20.95898,-18.35937 z m 209.3125,75.6582 c -4.70226,-0.20065 -9.63719,1.45474 -13.63086,3.68359 -5.11604,3.08537 -5.073,9.51432 -4.80469,14.75977 2.42441,14.05568 5.68298,27.98361 8.45703,41.97461 5.83542,28.44485 11.803,56.85341 17.55665,85.31445 2.39309,9.08244 2.52261,19.26647 8.58593,26.91602 5.23067,5.08956 13.90367,4.53105 20.06836,1.57812 7.71045,-3.0983 9.10162,-12.63634 7.82422,-19.88281 0.0827,-2.80828 -0.79408,-5.5337 -1.4668,-8.23047 -4.78831,-23.31097 -9.63096,-46.6203 -14.41211,-69.92578 -3.09722,-16.35475 -5.82577,-32.82 -10.17382,-48.91406 -2.33948,-8.50903 -2.85864,-18.47721 -10.04493,-24.63086 -2.40008,-1.73347 -5.13762,-2.52219 -7.95898,-2.64258 z m -341.22656,5.34766 c -8.9277,-0.33383 -17.9751,0.67025 -26.648442,2.27343 -15.936073,3.7255 -32.9471,9.1521 -43.699219,22.27344 -14.170124,18.49899 -12.917381,47.15304 2.9375,64.28516 9.400673,11.32976 25.01746,14.24343 39.007813,13.53906 16.483798,-0.0467 33.482718,-5.65024 49.554688,0.26172 8.7219,3.13062 13.36812,12.48611 13.15039,21.35937 -0.54414,13.76312 -13.52418,23.33253 -25.86719,26.50782 -13.21749,4.27237 -28.127742,0.006 -37.900388,-9.61719 -4.448562,-7.26827 -13.960111,-9.61644 -21.765625,-7 -8.832575,1.53072 -12.507544,11.93256 -9.964844,19.73828 3.397254,8.27093 10.637256,14.3718 17.623047,19.66406 17.015083,11.65145 39.11125,11.9829 58.45117,6.86133 19.81164,-5.52382 39.23422,-17.05365 49.51368,-35.4043 8.02095,-15.491 6.04161,-34.62278 -1.60547,-49.85547 -6.89067,-13.23546 -20.94038,-21.30806 -35.35742,-23.58789 -12.83096,-3.00516 -25.84832,-0.27138 -38.69532,0.89258 -10.241864,0.77481 -22.410098,3.01734 -30.814453,-4.43164 -5.878177,-6.86497 -5.486105,-17.77236 0.05664,-24.75976 10.094298,-11.33084 26.421593,-14.26074 40.939453,-13.66211 10.50515,-0.0443 18.70419,7.20019 28.3125,10.16992 7.58432,2.5701 16.73318,-3.52799 16.94141,-11.54102 -0.85419,-10.24302 -9.7565,-17.64889 -18.23828,-22.20703 -8.19609,-3.75289 -17.00395,-5.42594 -25.93164,-5.75976 z m 136.05859,18.78515 c -12.82056,-0.10249 -25.1839,5.50616 -34.62109,13.99414 -8.83457,8.56269 -14.53855,19.86955 -18.28516,31.47656 -2.82398,9.39042 -4.86367,19.35778 -3.53906,29.1875 0.87388,10.67505 5.75234,21.06105 13.97461,28.04493 6.14421,5.05094 13.16982,9.09016 20.60742,11.92383 10.69289,4.37554 22.23072,6.60285 33.77539,6.53515 7.1427,-0.35782 14.77375,-0.46817 21.12109,-4.21289 5.76487,-2.73247 10.67053,-9.20114 8.63477,-15.80469 -1.54532,-6.19254 -8.68286,-7.72188 -14.1875,-7.92773 -3.95072,-0.22474 -7.92125,0.27536 -11.88086,0.11328 -7.38432,0.1863 -14.77323,-0.68848 -21.82031,-2.96094 -8.17037,-2.9186 -17.14394,-7.22167 -20.68946,-15.70508 -1.35063,-3.26855 -1.73642,-8.01487 1.08008,-10.51562 6.78101,2.06207 13.59379,4.11626 20.38282,6.20117 12.2302,3.52909 24.55208,6.77089 37.02929,9.3125 6.25201,1.19265 13.77226,0.95342 18.15821,-4.35937 5.31355,-5.47602 7.08821,-13.25902 8.0332,-20.58204 1.29176,-8.0538 -0.6388,-16.30484 -4.27344,-23.50195 -5.01352,-9.83508 -13.43663,-17.43197 -22.79883,-23.05469 -9.33922,-5.12791 -19.99827,-8.29268 -30.70117,-8.16406 z m 126.57617,22.12305 c -14.67964,-0.23352 -29.01057,6.41749 -38.7207,17.35742 -12.9171,14.22463 -22.15947,33.85979 -18.48047,53.39453 1.53033,10.2228 7.4221,19.39542 15.80469,25.36719 6.5187,5.35934 13.95286,9.5944 21.87109,12.51562 0.3277,6.65981 -0.84504,13.52066 1.03906,19.9961 2.32259,6.65984 9.08539,11.43111 16.14844,11.31836 v -27.51563 c 7.69328,0.30837 14.98706,-2.47041 21.85742,-5.61328 1.75936,4.20139 1.72518,10.17485 4.15625,14.67188 -0.30291,3.89472 -8.31476,6.41525 -9.79687,11.44922 -1.35994,2.85615 -5.4995,10.37055 -1.73047,11.32031 6.15884,-0.21015 12.39998,0.4651 18.49609,-0.42578 4.25293,-0.20477 9.99123,-6.11628 10.24024,-7.39258 2.83619,6.09729 10.38646,8.30497 16.71094,7.81836 h 13.3789 c -0.13766,-11.90276 -10.16107,-21.68267 -21.1875,-24.64258 3.95748,-16.89628 -1.41067,-34.60709 3.375,-51.40625 3.91168,-14.14046 3.24741,-30.102 -4.81445,-42.7207 -9.6373,-16.15325 -28.45379,-25.13948 -46.91992,-25.44922 z m -122.9414,4.99805 c 3.49703,-0.15167 7.03458,0.30139 10.31054,1.24804 6.92457,1.29185 11.49225,7.29521 14.53711,13.19532 0.99281,1.71932 1.76693,3.56983 2.20313,5.50976 0.30442,2.19627 1.8147,7.76479 -1.92774,7.01563 -12.62094,-3.4705 -25.2508,-6.88669 -37.85937,-10.41602 -2.96308,-1.14695 -6.64641,-0.97728 -9.08203,-3.10937 1.0049,-3.02934 3.67514,-5.13501 6.06054,-7.11133 4.21265,-4.14403 9.92943,-6.07926 15.75782,-6.33203 z m 121.22851,23.56054 c 11.31437,-0.0537 24.30779,5.92605 27.2168,17.74805 2.99536,15.83805 -8.29518,33.21789 -24.08984,36.62891 -9.70068,2.19729 -18.59897,-4.4402 -24.89844,-11.08008 -7.00361,-7.24778 -4.89482,-18.54687 -1.17383,-26.86524 4.17613,-8.75511 12.88404,-16.24177 22.94531,-16.43164 z"
       style="fill:none;fill-opacity:1;stroke:#ffffff;stroke-opacity:1;stroke-width:8;stroke-dasharray:none" />
    <path
       id="path1-6"
       inkscape:label="L"
       d="m 451.1211,20 -0.29102,0.441407 c -6.428,11.2692 -10.07691,18.251228 -17.00391,29.111328 2.853,3.9535 6.39349,8.588825 12.39649,14.078125 -6.727,-3.8732 -11.18983,-7.444456 -14.42383,-10.972656 -8.824,13.5617 -22.38189,32.709931 -49.58789,69.394536 18.629,-7.724 32.8403,-12.12575 45.6543,-12.84375 -0.222,-2.373 -0.21261,-4.90144 0.15039,-7.52344 l 0.0879,-0.53906 c 1.737,-11.065705 8.619,-18.824614 15.375,-17.349614 6.757,1.474999 10.83128,11.628959 9.11328,22.693364 -0.33,2.07 -0.83123,4.04037 -1.49023,5.85937 12.05799,4.038 24.52082,11.91744 40.29882,24.02344 -2.558,-6.639 -4.81695,-12.62827 -7.00195,-18.32227 -4.052,-4.092 -8.17195,-9.27946 -17.12695,-15.48047 6.384,2.588 10.83833,5.19077 14.23632,7.88477 C 459.44682,52.321679 458.0551,44.7873 451.1211,20 Z M 20.96875,49.9375 c -4.9052,5.026312 1.13701,13.636658 -4.93945,18.601563 -3.91906,10.985538 0.44378,26.171036 12.84961,29.345705 5.73376,-0.83727 1.44811,8.153312 -0.30664,9.320312 C 20.50165,108.89187 17.47163,93.009955 10,98.193358 c 7.2064,4.091972 7.65671,16.194902 17.74219,15.753912 3.86367,2.0332 0.17232,10.98498 1.00391,15.90625 0.0629,23.80385 -0.0881,47.60208 -0.39454,71.39258 0.006,17.32539 -0.44208,34.68086 -0.40039,51.99218 0.57286,5.74824 1.25374,11.72507 5.33008,16.21289 4.93658,5.65291 13.91765,4.79011 20.29102,2.31641 7.24682,-3.84654 8.47473,-12.91307 8.30078,-20.3125 0.40215,-33.31379 0.74173,-66.63411 1.1582,-99.94922 0.0693,-14.86369 0.4827,-29.75694 0.43164,-44.59375 C 63.92914,102.5689 58.57609,96.633083 66.125,96.464844 77.05518,91.108012 79.72465,75.454017 73.95313,65.488282 69.95394,61.933148 76.71616,46.600021 66.30664,50.677735 58.28832,57.528933 48.99622,51.888828 39.58594,53.771485 32.24646,57.293193 28.31712,49.63101 20.96875,49.9375 Z m 262.87305,45.75 c -1.02895,0.05289 -2.06225,0.220799 -3.08203,0.513672 -6.4018,0.862966 -10.96933,6.171888 -11.54297,12.492188 -0.6497,14.84841 -0.153,29.74555 -0.25781,44.61328 -1.27006,4.22349 2.60346,12.24975 -2.00977,14.11719 -14.10538,-0.20574 -29.10858,-0.83479 -41.80469,6.41992 -15.81679,7.66202 -24.82503,25.18587 -25.28906,42.31446 -0.41672,15.73128 2.30578,33.16725 13.9707,44.71289 12.92606,12.8085 32.11708,16.15907 49.65625,15.74609 9.41588,-0.40122 19.26867,1.35114 28.31641,-1.97266 7.4042,-2.76158 7.57384,-11.74153 8.24414,-18.36328 0.39939,-14.98293 0.21008,-29.99229 0.20508,-44.97656 0.1041,-26.05904 -0.0829,-52.12422 0.0859,-78.17578 -0.26386,-8.40156 0.87687,-16.98776 -0.99024,-25.25 -1.27091,-7.30731 -8.29934,-12.561602 -15.50195,-12.19141 z m -188.875,27.63672 c -5.55884,0.19463 -11.03181,3.35439 -12.88867,8.82813 -3.01748,7.31937 -1.77814,15.2715 -1.84571,22.94531 -0.0246,5.2585 0.14014,10.55501 -0.0469,15.82617 0.48356,18.19228 -0.78871,36.45055 1.23243,54.57617 0.38215,5.88923 0.80171,12.04665 4.11523,17.14844 3.68967,4.66486 10.80614,7.76173 16.45703,4.90234 6.06087,-3.23115 7.63743,-10.56162 8.56054,-16.79882 0.45171,-11.06092 0.22079,-22.13216 0.20508,-33.19532 0.26603,-6.17616 0.29884,-12.36293 0.39844,-18.55078 0.10262,-6.13933 4.22162,-11.27107 9.18555,-14.46484 7.14066,-4.75139 17.18204,-5.80082 24.68359,-1.29102 6.28549,3.75989 9.28151,11.08587 9.69727,18.14649 -0.29611,9.28433 0.37478,18.56079 0.27148,27.83984 0.25675,9.70399 0.102,19.62447 2.94141,29.01367 1.04454,4.91835 5.12035,9.1307 10.31836,9.26563 4.62042,0.25512 10.41217,-0.14825 13.15234,-4.45703 3.262,-6.29585 3.06306,-13.67839 3.21094,-20.59375 0.7193,-8.89972 0.95089,-17.81757 0.77929,-26.75196 -0.89341,-10.07605 -0.64498,-20.23309 -2.23632,-30.24414 -1.51636,-10.66496 -6.64653,-21.19721 -15.74024,-27.36133 -6.04969,-4.14992 -12.99907,-7.20395 -20.24023,-8.51367 -4.93536,-0.95467 -9.98171,-0.99268 -14.8711,0.22656 -7.81328,2.40606 -16.02217,6.16977 -20.39843,13.44727 -1.49287,0.39256 -0.53115,-5.08439 -1.22852,-6.89453 -0.58012,-5.66547 -4.37752,-11.21245 -10.25586,-12.23047 -1.74118,-0.61803 -3.60408,-0.88323 -5.45703,-0.81836 z m 242.60742,3.00781 c -2.08279,0.0862 -4.15338,0.60995 -6.09961,1.6543 -7.37608,3.69638 -8.52375,13.41707 -5.44922,20.34766 2.38971,7.06322 10.53289,10.48059 17.48633,8.56054 6.70727,-1.44794 12.53308,-6.61514 12.51758,-13.85937 -0.19121,-9.2389 -9.42966,-17.07647 -18.45508,-16.70313 z m 90.31055,5.66407 c -7.02536,0.0908 -14.02582,1.34382 -20.5918,3.84179 -11.5302,4.04396 -20.92138,12.8515 -26.90625,23.3711 -3.53433,6.34713 -5.48656,13.50907 -6.23242,20.70898 -1.45583,12.64891 -0.12314,25.62358 3.88477,37.69727 4.12682,12.02272 12.15756,23.50135 24.16406,28.60742 6.11181,3.09346 12.99906,3.84817 19.71289,4.5293 14.47727,0.80564 29.22466,-1.67294 42.45703,-7.65039 7.12472,-3.58613 14.82235,-7.32589 19.12695,-14.38086 3.06796,-4.61684 3.71116,-11.18991 0.16992,-15.72657 -3.99214,-5.02646 -11.26777,-4.04995 -16.46875,-1.71875 -3.96368,1.47027 -7.60595,3.68337 -11.55273,5.1836 -6.7739,3.23279 -14.0663,5.31848 -21.55273,5.98828 -8.87354,0.53311 -19.22787,-0.23229 -25.42774,-7.46875 -1.66488,-2.38571 -3.59292,-5.9258 -2.04101,-8.72461 4.98828,-0.84856 10.11883,-0.9911 15.11914,-1.9082 9.69389,-1.15237 19.36709,-2.43456 28.97461,-4.1504 7.72578,-1.8132 15.94103,-2.20837 23.00781,-6.14257 5.01439,-2.72514 7.21031,-8.35001 7.70508,-13.76172 0.44418,-10.04608 -2.35629,-20.43753 -8.4043,-28.53906 -6.1473,-7.89573 -14.91091,-13.5987 -24.41016,-16.6211 -6.65922,-2.15332 -13.70902,-3.22557 -20.73437,-3.13476 z m 2.37109,25.15234 c 6.14637,-0.37709 12.10791,2.56706 16.73047,6.51172 1.54819,1.23853 3.06736,2.54175 4.31055,4.12109 0.99195,1.95306 4.76754,6.39262 1.05078,7.17774 -11.74865,1.87819 -23.52794,3.58677 -35.29102,5.37304 -4.09304,0.50398 -8.18124,1.45255 -12.28906,1.59571 -2.36014,-1.57647 0.37579,-5.42317 0.99023,-7.65235 3.28987,-9.25995 12.37466,-15.35437 21.85547,-16.7539 0.88226,-0.1962 1.76453,-0.31918 2.64258,-0.37305 z m -92.20703,21.75195 c -4.41361,0.12321 -8.93798,1.58731 -11.67773,5.01172 -4.16527,7.46924 -4.06467,16.36317 -4.41016,24.67578 0.4253,15.34205 0.074,30.70092 0.33984,46.04492 0.69769,12.4308 -0.81073,25.13185 2.24805,37.32422 1.39202,6.52477 7.01313,12.28498 14,11.96094 6.76847,0.8839 12.32701,-4.71553 13.7793,-10.9375 2.77234,-10.39223 1.99325,-21.30556 2.17187,-31.94922 0.36738,-17.25274 -0.28039,-34.50289 -0.21289,-51.75781 0.0682,-6.59131 -0.38706,-13.17183 -1.23828,-19.70898 0.0258,-5.88406 -5.21929,-9.85292 -10.69336,-10.36329 -1.37651,-0.23401 -2.83543,-0.34185 -4.30664,-0.30078 z m -86.65039,17.03321 c 0.67415,-0.0128 1.35276,0.008 2.0332,0.0684 5.02157,0.6279 10.99103,0.16915 15.36328,2.3125 0.28302,12.57417 0.0242,25.17917 0.14649,37.76171 1.02184,5.5806 -0.0185,11.23308 -7.03125,10.22266 -9.03284,0.34096 -19.73904,-0.12534 -26.1875,-7.38672 -5.57177,-6.68573 -6.73724,-16.25382 -5.2832,-24.61914 1.66149,-10.0019 10.84674,-18.16731 20.95898,-18.35937 z m 209.3125,75.6582 c -4.70226,-0.20065 -9.63719,1.45474 -13.63086,3.68359 -5.11604,3.08537 -5.073,9.51432 -4.80469,14.75977 2.42441,14.05568 5.68298,27.98361 8.45703,41.97461 5.83542,28.44485 11.803,56.85341 17.55665,85.31445 2.39309,9.08244 2.52261,19.26647 8.58593,26.91602 5.23067,5.08956 13.90367,4.53105 20.06836,1.57812 7.71045,-3.0983 9.10162,-12.63634 7.82422,-19.88281 0.0827,-2.80828 -0.79408,-5.5337 -1.4668,-8.23047 -4.78831,-23.31097 -9.63096,-46.6203 -14.41211,-69.92578 -3.09722,-16.35475 -5.82577,-32.82 -10.17382,-48.91406 -2.33948,-8.50903 -2.85864,-18.47721 -10.04493,-24.63086 -2.40008,-1.73347 -5.13762,-2.52219 -7.95898,-2.64258 z m -341.22656,5.34766 c -8.9277,-0.33383 -17.9751,0.67025 -26.64844,2.27343 -15.93607,3.7255 -32.9471,9.1521 -43.69922,22.27344 -14.17012,18.49899 -12.91738,47.15304 2.9375,64.28516 9.40067,11.32976 25.01746,14.24343 39.00781,13.53906 16.4838,-0.0467 33.48272,-5.65024 49.55469,0.26172 8.7219,3.13062 13.36812,12.48611 13.15039,21.35937 -0.54414,13.76312 -13.52418,23.33253 -25.86719,26.50782 -13.21749,4.27237 -28.12774,0.006 -37.90039,-9.61719 -4.44856,-7.26827 -13.96011,-9.61644 -21.76562,-7 -8.83258,1.53072 -12.50755,11.93256 -9.96485,19.73828 3.39726,8.27093 10.63726,14.3718 17.62305,19.66406 17.01508,11.65145 39.11125,11.9829 58.45117,6.86133 19.81164,-5.52382 39.23422,-17.05365 49.51368,-35.4043 8.02095,-15.491 6.04161,-34.62278 -1.60547,-49.85547 -6.89067,-13.23546 -20.94038,-21.30806 -35.35742,-23.58789 -12.83096,-3.00516 -25.84832,-0.27138 -38.69532,0.89258 -10.24186,0.77481 -22.4101,3.01734 -30.81445,-4.43164 -5.87818,-6.86497 -5.48611,-17.77236 0.0566,-24.75976 10.0943,-11.33084 26.42159,-14.26074 40.93945,-13.66211 10.50515,-0.0443 18.70419,7.20019 28.3125,10.16992 7.58432,2.5701 16.73318,-3.52799 16.94141,-11.54102 -0.85419,-10.24302 -9.7565,-17.64889 -18.23828,-22.20703 -8.19609,-3.75289 -17.00395,-5.42594 -25.93164,-5.75976 z m 136.05859,18.78515 c -12.82056,-0.10249 -25.1839,5.50616 -34.62109,13.99414 -8.83457,8.56269 -14.53855,19.86955 -18.28516,31.47656 -2.82398,9.39042 -4.86367,19.35778 -3.53906,29.1875 0.87388,10.67505 5.75234,21.06105 13.97461,28.04493 6.14421,5.05094 13.16982,9.09016 20.60742,11.92383 10.69289,4.37554 22.23072,6.60285 33.77539,6.53515 7.1427,-0.35782 14.77375,-0.46817 21.12109,-4.21289 5.76487,-2.73247 10.67053,-9.20114 8.63477,-15.80469 -1.54532,-6.19254 -8.68286,-7.72188 -14.1875,-7.92773 -3.95072,-0.22474 -7.92125,0.27536 -11.88086,0.11328 -7.38432,0.1863 -14.77323,-0.68848 -21.82031,-2.96094 -8.17037,-2.9186 -17.14394,-7.22167 -20.68946,-15.70508 -1.35063,-3.26855 -1.73642,-8.01487 1.08008,-10.51562 6.78101,2.06207 13.59379,4.11626 20.38282,6.20117 12.2302,3.52909 24.55208,6.77089 37.02929,9.3125 6.25201,1.19265 13.77226,0.95342 18.15821,-4.35937 5.31355,-5.47602 7.08821,-13.25902 8.0332,-20.58204 1.29176,-8.0538 -0.6388,-16.30484 -4.27344,-23.50195 -5.01352,-9.83508 -13.43663,-17.43197 -22.79883,-23.05469 -9.33922,-5.12791 -19.99827,-8.29268 -30.70117,-8.16406 z m 126.57617,22.12305 c -14.67964,-0.23352 -29.01057,6.41749 -38.7207,17.35742 -12.9171,14.22463 -22.15947,33.85979 -18.48047,53.39453 1.53033,10.2228 7.4221,19.39542 15.80469,25.36719 6.5187,5.35934 13.95286,9.5944 21.87109,12.51562 0.3277,6.65981 -0.84504,13.52066 1.03906,19.9961 2.32259,6.65984 9.08539,11.43111 16.14844,11.31836 v -27.51563 c 7.69328,0.30837 14.98706,-2.47041 21.85742,-5.61328 1.75936,4.20139 1.72518,10.17485 4.15625,14.67188 -0.30291,3.89472 -8.31476,6.41525 -9.79687,11.44922 -1.35994,2.85615 -5.4995,10.37055 -1.73047,11.32031 6.15884,-0.21015 12.39998,0.4651 18.49609,-0.42578 4.25293,-0.20477 9.99123,-6.11628 10.24024,-7.39258 2.83619,6.09729 10.38646,8.30497 16.71094,7.81836 h 13.3789 c -0.13766,-11.90276 -10.16107,-21.68267 -21.1875,-24.64258 3.95748,-16.89628 -1.41067,-34.60709 3.375,-51.40625 3.91168,-14.14046 3.24741,-30.102 -4.81445,-42.7207 -9.6373,-16.15325 -28.45379,-25.13948 -46.91992,-25.44922 z m -122.9414,4.99805 c 3.49703,-0.15167 7.03458,0.30139 10.31054,1.24804 6.92457,1.29185 11.49225,7.29521 14.53711,13.19532 0.99281,1.71932 1.76693,3.56983 2.20313,5.50976 0.30442,2.19627 1.8147,7.76479 -1.92774,7.01563 -12.62094,-3.4705 -25.2508,-6.88669 -37.85937,-10.41602 -2.96308,-1.14695 -6.64641,-0.97728 -9.08203,-3.10937 1.0049,-3.02934 3.67514,-5.13501 6.06054,-7.11133 4.21265,-4.14403 9.92943,-6.07926 15.75782,-6.33203 z m 121.22851,23.56054 c 11.31437,-0.0537 24.30779,5.92605 27.2168,17.74805 2.99536,15.83805 -8.29518,33.21789 -24.08984,36.62891 -9.70068,2.19729 -18.59897,-4.4402 -24.89844,-11.08008 -7.00361,-7.24778 -4.89482,-18.54687 -1.17383,-26.86524 4.17613,-8.75511 12.88404,-16.24177 22.94531,-16.43164 z"
       style="fill:#000000;fill-opacity:1;stroke:none;stroke-opacity:1" />
    <path
       style="fill:none;stroke:#ffffff;stroke-width:3;stroke-linecap:butt;stroke-dasharray:none;stroke-opacity:1;paint-order:markers stroke fill"
       d="m 457.71158,305.043 7.14758,-10.30255 -9.38918,-6.65256"
       id="path10"
       sodipodi:nodetypes="ccc"
       inkscape:label="Arrow" />
    <text
       xml:space="preserve"
       style="font-size:9.39709px;writing-mode:lr-tb;direction:ltr;fill:#ffffff;fill-opacity:1;stroke:none;stroke-width:3.91545;stroke-linecap:butt;stroke-opacity:1;paint-order:markers stroke fill"
       x="382.09756"
       y="413.28625"
       id="text11"
       transform="rotate(-12.497426)"><tspan
         sodipodi:role="line"
         id="tspan11"
         x="382.09756"
         y="413.28625"
         style="stroke-width:3.91545">S</tspan><tspan
         sodipodi:role="line"
         x="382.09756"
         y="425.03262"
         id="tspan12"
         style="stroke-width:3.91545">U</tspan><tspan
         sodipodi:role="line"
         x="382.09756"
         y="436.77899"
         id="tspan13"
         style="stroke-width:3.91545">D</tspan><tspan
         sodipodi:role="line"
         x="382.09756"
         y="448.52533"
         id="tspan14"
         style="stroke-width:3.91545">O</tspan></text>
  </g>
</svg>
