  0
SECTION
  2
HEADER
  9
$ACADVER
  1
AC1014
  9
$HANDSEED
  5
FFFF
  9
$INSUNITS
 70
     0
  9
$MEASUREMENT
 70
     1
  0
ENDSEC
  0
SECTION
  2
TABLES
  0
TABLE
  2
VPORT
  5
8
330
0
100
AcDbSymbolTable
 70
     4
  0
VPORT
  5
2E
330
8
100
AcDbSymbolTableRecord
100
AcDbViewportTableRecord
  2
*ACTIVE
 70
     0
 10
0.0
 20
0.0
 11
1.0
 21
1.0
 12
210.0
 22
148.5
 13
0.0
 23
0.0
 14
10.0
 24
10.0
 15
10.0
 25
10.0
 16
0.0
 26
0.0
 36
1.0
 17
0.0
 27
0.0
 37
0.0
 40
341.0
 41
1.24
 42
50.0
 43
0.0
 44
0.0
 50
0.0
 51
0.0
 71
     0
 72
   100
 73
     1
 74
     3
 75
     0
 76
     0
 77
     0
 78
     0
  0
ENDTAB
  0
TABLE
  2
LTYPE
  5
5
330
0
100
AcDbSymbolTable
 70
     1
  0
LTYPE
  5
14
330
5
100
AcDbSymbolTableRecord
100
AcDbLinetypeTableRecord
  2
BYBLOCK
 70
     0
  3

 72
    65
 73
     0
 40
0.0
  0
LTYPE
  5
15
330
5
100
AcDbSymbolTableRecord
100
AcDbLinetypeTableRecord
  2
BYLAYER
 70
     0
  3

 72
    65
 73
     0
 40
0.0
  0
LTYPE
  5
16
330
5
100
AcDbSymbolTableRecord
100
AcDbLinetypeTableRecord
  2
CONTINUOUS
 70
     0
  3
Solid line
 72
    65
 73
     0
 40
0.0
  0
ENDTAB
  0
TABLE
  2
LAYER
  5
2
100
AcDbSymbolTable
 70
1
  0
LAYER
  5
50
100
AcDbSymbolTableRecord
100
AcDbLayerTableRecord
  2
0
 70
0
  6
CONTINUOUS
  0
ENDTAB
  0
TABLE
  2
STYLE
  5
3
330
0
100
AcDbSymbolTable
 70
     1
  0
STYLE
  5
11
330
3
100
AcDbSymbolTableRecord
100
AcDbTextStyleTableRecord
  2
STANDARD
 70
     0
 40
0.0
 41
1.0
 50
0.0
 71
     0
 42
2.5
  3
txt
  4

  0
ENDTAB
  0
TABLE
  2
VIEW
  5
6
330
0
100
AcDbSymbolTable
 70
     0
  0
ENDTAB
  0
TABLE
  2
UCS
  5
7
330
0
100
AcDbSymbolTable
 70
     0
  0
ENDTAB
  0
TABLE
  2
APPID
  5
9
330
0
100
AcDbSymbolTable
 70
     2
  0
APPID
  5
12
330
9
100
AcDbSymbolTableRecord
100
AcDbRegAppTableRecord
  2
ACAD
 70
     0
  0
ENDTAB
  0
TABLE
  2
DIMSTYLE
  5
A
330
0
100
AcDbSymbolTable
 70
     1
  0
DIMSTYLE
105
27
330
A
100
AcDbSymbolTableRecord
100
AcDbDimStyleTableRecord
  2
ISO-25
 70
     0
  3

  4

  5

  6

  7

 40
1.0
 41
2.5
 42
0.625
 43
3.75
 44
1.25
 45
0.0
 46
0.0
 47
0.0
 48
0.0
140
2.5
141
2.5
142
0.0
143
0.03937007874016
144
1.0
145
0.0
146
1.0
147
0.625
 71
     0
 72
     0
 73
     0
 74
     0
 75
     0
 76
     0
 77
     1
 78
     8
170
     0
171
     3
172
     1
173
     0
174
     0
175
     0
176
     0
177
     0
178
     0
270
     2
271
     2
272
     2
273
     2
274
     3
340
11
275
     0
280
     0
281
     0
282
     0
283
     0
284
     8
285
     0
286
     0
287
     3
288
     0
  0
ENDTAB
  0
TABLE
  2
BLOCK_RECORD
  5
1
330
0
100
AcDbSymbolTable
 70
     1
  0
BLOCK_RECORD
  5
1F
330
1
100
AcDbSymbolTableRecord
100
AcDbBlockTableRecord
  2
*MODEL_SPACE
  0
BLOCK_RECORD
  5
1B
330
1
100
AcDbSymbolTableRecord
100
AcDbBlockTableRecord
  2
*PAPER_SPACE
  0
ENDTAB
  0
ENDSEC
  0
SECTION
  2
BLOCKS
  0
BLOCK
  5
20
330
1F
100
AcDbEntity
  8
0
100
AcDbBlockBegin
  2
*MODEL_SPACE
 70
     0
 10
0.0
 20
0.0
 30
0.0
  3
*MODEL_SPACE
  1

  0
ENDBLK
  5
21
330
1F
100
AcDbEntity
  8
0
100
AcDbBlockEnd
  0
BLOCK
  5
1C
330
1B
100
AcDbEntity
 67
     1
  8
0
100
AcDbBlockBegin
  2
*PAPER_SPACE
  1

  0
ENDBLK
  5
1D
330
1B
100
AcDbEntity
 67
     1
  8
0
100
AcDbBlockEnd
  0
ENDSEC
  0
SECTION
  2
ENTITIES
  0
SPLINE
  5
100
100
AcDbEntity
  8
0
 62
1
100
AcDbSpline
 70
8
 71
3
 72
8
 73
4
 74
0
 40
0
 40
0
 40
0
 40
0
 40
1
 40
1
 40
1
 40
1
 10
450.830080
 20
491.558593
 30
0.0
 10
444.402080
 20
480.289393
 30
0.0
 10
440.753170
 20
473.307365
 30
0.0
 10
433.826170
 20
462.447265
 30
0.0
  0
SPLINE
  5
101
100
AcDbEntity
  8
0
 62
1
100
AcDbSpline
 70
8
 71
3
 72
8
 73
4
 74
0
 40
0
 40
0
 40
0
 40
0
 40
1
 40
1
 40
1
 40
1
 10
433.826170
 20
462.447265
 30
0.0
 10
436.679170
 20
458.493765
 30
0.0
 10
440.219660
 20
453.858440
 30
0.0
 10
446.222660
 20
448.369140
 30
0.0
  0
SPLINE
  5
102
100
AcDbEntity
  8
0
 62
1
100
AcDbSpline
 70
8
 71
3
 72
8
 73
4
 74
0
 40
0
 40
0
 40
0
 40
0
 40
1
 40
1
 40
1
 40
1
 10
446.222660
 20
448.369140
 30
0.0
 10
439.495660
 20
452.242340
 30
0.0
 10
435.032830
 20
455.813596
 30
0.0
 10
431.798830
 20
459.341796
 30
0.0
  0
SPLINE
  5
103
100
AcDbEntity
  8
0
 62
1
100
AcDbSpline
 70
8
 71
3
 72
8
 73
4
 74
0
 40
0
 40
0
 40
0
 40
0
 40
1
 40
1
 40
1
 40
1
 10
431.798830
 20
459.341796
 30
0.0
 10
422.974830
 20
445.780096
 30
0.0
 10
409.416940
 20
426.631865
 30
0.0
 10
382.210940
 20
389.947260
 30
0.0
  0
SPLINE
  5
104
100
AcDbEntity
  8
0
 62
1
100
AcDbSpline
 70
8
 71
3
 72
8
 73
4
 74
0
 40
0
 40
0
 40
0
 40
0
 40
1
 40
1
 40
1
 40
1
 10
382.210940
 20
389.947260
 30
0.0
 10
400.839940
 20
397.671260
 30
0.0
 10
415.051240
 20
402.073010
 30
0.0
 10
427.865240
 20
402.791010
 30
0.0
  0
SPLINE
  5
105
100
AcDbEntity
  8
0
 62
1
100
AcDbSpline
 70
8
 71
3
 72
8
 73
4
 74
0
 40
0
 40
0
 40
0
 40
0
 40
1
 40
1
 40
1
 40
1
 10
427.865240
 20
402.791010
 30
0.0
 10
427.643240
 20
405.164010
 30
0.0
 10
427.652630
 20
407.692450
 30
0.0
 10
428.015630
 20
410.314450
 30
0.0
  0
LWPOLYLINE
  5
106
100
AcDbEntity
  8
0
 62
1
100
AcDbPolyline
 90
2
 70
0
 10
451.121100
 20
492.000000
 30
0.0
 10
450.830080
 20
491.558593
 30
0.0
  0
SPLINE
  5
107
100
AcDbEntity
  8
0
 62
1
100
AcDbSpline
 70
8
 71
3
 72
8
 73
4
 74
0
 40
0
 40
0
 40
0
 40
0
 40
1
 40
1
 40
1
 40
1
 10
428.103530
 20
410.853510
 30
0.0
 10
429.840530
 20
421.919215
 30
0.0
 10
436.722530
 20
429.678124
 30
0.0
 10
443.478530
 20
428.203124
 30
0.0
  0
SPLINE
  5
108
100
AcDbEntity
  8
0
 62
1
100
AcDbSpline
 70
8
 71
3
 72
8
 73
4
 74
0
 40
0
 40
0
 40
0
 40
0
 40
1
 40
1
 40
1
 40
1
 10
443.478530
 20
428.203124
 30
0.0
 10
450.235530
 20
426.728125
 30
0.0
 10
454.309810
 20
416.574165
 30
0.0
 10
452.591810
 20
405.509760
 30
0.0
  0
SPLINE
  5
109
100
AcDbEntity
  8
0
 62
1
100
AcDbSpline
 70
8
 71
3
 72
8
 73
4
 74
0
 40
0
 40
0
 40
0
 40
0
 40
1
 40
1
 40
1
 40
1
 10
452.591810
 20
405.509760
 30
0.0
 10
452.261810
 20
403.439760
 30
0.0
 10
451.760580
 20
401.469390
 30
0.0
 10
451.101580
 20
399.650390
 30
0.0
  0
SPLINE
  5
10a
100
AcDbEntity
  8
0
 62
1
100
AcDbSpline
 70
8
 71
3
 72
8
 73
4
 74
0
 40
0
 40
0
 40
0
 40
0
 40
1
 40
1
 40
1
 40
1
 10
451.101580
 20
399.650390
 30
0.0
 10
463.159570
 20
395.612390
 30
0.0
 10
475.622400
 20
387.732950
 30
0.0
 10
491.400400
 20
375.626950
 30
0.0
  0
SPLINE
  5
10b
100
AcDbEntity
  8
0
 62
1
100
AcDbSpline
 70
8
 71
3
 72
8
 73
4
 74
0
 40
0
 40
0
 40
0
 40
0
 40
1
 40
1
 40
1
 40
1
 10
491.400400
 20
375.626950
 30
0.0
 10
488.842400
 20
382.265950
 30
0.0
 10
486.583450
 20
388.255220
 30
0.0
 10
484.398450
 20
393.949220
 30
0.0
  0
SPLINE
  5
10c
100
AcDbEntity
  8
0
 62
1
100
AcDbSpline
 70
8
 71
3
 72
8
 73
4
 74
0
 40
0
 40
0
 40
0
 40
0
 40
1
 40
1
 40
1
 40
1
 10
484.398450
 20
393.949220
 30
0.0
 10
480.346450
 20
398.041220
 30
0.0
 10
476.226500
 20
403.228680
 30
0.0
 10
467.271500
 20
409.429690
 30
0.0
  0
SPLINE
  5
10d
100
AcDbEntity
  8
0
 62
1
100
AcDbSpline
 70
8
 71
3
 72
8
 73
4
 74
0
 40
0
 40
0
 40
0
 40
0
 40
1
 40
1
 40
1
 40
1
 10
467.271500
 20
409.429690
 30
0.0
 10
473.655500
 20
406.841690
 30
0.0
 10
478.109830
 20
404.238920
 30
0.0
 10
481.507820
 20
401.544920
 30
0.0
  0
SPLINE
  5
10e
100
AcDbEntity
  8
0
 62
1
100
AcDbSpline
 70
8
 71
3
 72
8
 73
4
 74
0
 40
0
 40
0
 40
0
 40
0
 40
1
 40
1
 40
1
 40
1
 10
481.507820
 20
401.544920
 30
0.0
 10
459.446820
 20
459.678321
 30
0.0
 10
458.055100
 20
467.212700
 30
0.0
 10
451.121100
 20
492.000000
 30
0.0
  0
LWPOLYLINE
  5
10f
100
AcDbEntity
  8
0
 62
1
100
AcDbPolyline
 90
2
 70
0
 10
428.015630
 20
410.314450
 30
0.0
 10
428.103530
 20
410.853510
 30
0.0
  0
SPLINE
  5
110
100
AcDbEntity
  8
0
 62
1
100
AcDbSpline
 70
8
 71
3
 72
8
 73
4
 74
0
 40
0
 40
0
 40
0
 40
0
 40
1
 40
1
 40
1
 40
1
 10
20.968750
 20
462.062500
 30
0.0
 10
16.063546
 20
457.036188
 30
0.0
 10
22.105761
 20
448.425842
 30
0.0
 10
16.029297
 20
443.460937
 30
0.0
  0
SPLINE
  5
111
100
AcDbEntity
  8
0
 62
1
100
AcDbSpline
 70
8
 71
3
 72
8
 73
4
 74
0
 40
0
 40
0
 40
0
 40
0
 40
1
 40
1
 40
1
 40
1
 10
16.029297
 20
443.460937
 30
0.0
 10
12.110243
 20
432.475399
 30
0.0
 10
16.473077
 20
417.289901
 30
0.0
 10
28.878907
 20
414.115232
 30
0.0
  0
SPLINE
  5
112
100
AcDbEntity
  8
0
 62
1
100
AcDbSpline
 70
8
 71
3
 72
8
 73
4
 74
0
 40
0
 40
0
 40
0
 40
0
 40
1
 40
1
 40
1
 40
1
 10
28.878907
 20
414.115232
 30
0.0
 10
34.612668
 20
414.952502
 30
0.0
 10
30.327017
 20
405.961920
 30
0.0
 10
28.572266
 20
404.794920
 30
0.0
  0
SPLINE
  5
113
100
AcDbEntity
  8
0
 62
1
100
AcDbSpline
 70
8
 71
3
 72
8
 73
4
 74
0
 40
0
 40
0
 40
0
 40
0
 40
1
 40
1
 40
1
 40
1
 10
28.572266
 20
404.794920
 30
0.0
 10
20.501644
 20
403.108130
 30
0.0
 10
17.471625
 20
418.990045
 30
0.0
 10
10.000000
 20
413.806642
 30
0.0
  0
SPLINE
  5
114
100
AcDbEntity
  8
0
 62
1
100
AcDbSpline
 70
8
 71
3
 72
8
 73
4
 74
0
 40
0
 40
0
 40
0
 40
0
 40
1
 40
1
 40
1
 40
1
 10
10.000000
 20
413.806642
 30
0.0
 10
17.206400
 20
409.714670
 30
0.0
 10
17.656709
 20
397.611740
 30
0.0
 10
27.742188
 20
398.052730
 30
0.0
  0
SPLINE
  5
115
100
AcDbEntity
  8
0
 62
1
100
AcDbSpline
 70
8
 71
3
 72
8
 73
4
 74
0
 40
0
 40
0
 40
0
 40
0
 40
1
 40
1
 40
1
 40
1
 10
27.742188
 20
398.052730
 30
0.0
 10
31.605857
 20
396.019530
 30
0.0
 10
27.914504
 20
387.067750
 30
0.0
 10
28.746094
 20
382.146480
 30
0.0
  0
SPLINE
  5
116
100
AcDbEntity
  8
0
 62
1
100
AcDbSpline
 70
8
 71
3
 72
8
 73
4
 74
0
 40
0
 40
0
 40
0
 40
0
 40
1
 40
1
 40
1
 40
1
 10
28.746094
 20
382.146480
 30
0.0
 10
28.809034
 20
358.342630
 30
0.0
 10
28.658004
 20
334.544400
 30
0.0
 10
28.351563
 20
310.753900
 30
0.0
  0
SPLINE
  5
117
100
AcDbEntity
  8
0
 62
1
100
AcDbSpline
 70
8
 71
3
 72
8
 73
4
 74
0
 40
0
 40
0
 40
0
 40
0
 40
1
 40
1
 40
1
 40
1
 10
28.351563
 20
310.753900
 30
0.0
 10
28.357463
 20
293.428510
 30
0.0
 10
27.909477
 20
276.073040
 30
0.0
 10
27.951172
 20
258.761720
 30
0.0
  0
SPLINE
  5
118
100
AcDbEntity
  8
0
 62
1
100
AcDbSpline
 70
8
 71
3
 72
8
 73
4
 74
0
 40
0
 40
0
 40
0
 40
0
 40
1
 40
1
 40
1
 40
1
 10
27.951172
 20
258.761720
 30
0.0
 10
28.524032
 20
253.013480
 30
0.0
 10
29.204908
 20
247.036650
 30
0.0
 10
33.281250
 20
242.548830
 30
0.0
  0
SPLINE
  5
119
100
AcDbEntity
  8
0
 62
1
100
AcDbSpline
 70
8
 71
3
 72
8
 73
4
 74
0
 40
0
 40
0
 40
0
 40
0
 40
1
 40
1
 40
1
 40
1
 10
33.281250
 20
242.548830
 30
0.0
 10
38.217830
 20
236.895920
 30
0.0
 10
47.198894
 20
237.758720
 30
0.0
 10
53.572266
 20
240.232420
 30
0.0
  0
SPLINE
  5
11a
100
AcDbEntity
  8
0
 62
1
100
AcDbSpline
 70
8
 71
3
 72
8
 73
4
 74
0
 40
0
 40
0
 40
0
 40
0
 40
1
 40
1
 40
1
 40
1
 10
53.572266
 20
240.232420
 30
0.0
 10
60.819085
 20
244.078960
 30
0.0
 10
62.046994
 20
253.145490
 30
0.0
 10
61.873047
 20
260.544920
 30
0.0
  0
SPLINE
  5
11b
100
AcDbEntity
  8
0
 62
1
100
AcDbSpline
 70
8
 71
3
 72
8
 73
4
 74
0
 40
0
 40
0
 40
0
 40
0
 40
1
 40
1
 40
1
 40
1
 10
61.873047
 20
260.544920
 30
0.0
 10
62.275203
 20
293.858710
 30
0.0
 10
62.614774
 20
327.179030
 30
0.0
 10
63.031250
 20
360.494140
 30
0.0
  0
SPLINE
  5
11c
100
AcDbEntity
  8
0
 62
1
100
AcDbSpline
 70
8
 71
3
 72
8
 73
4
 74
0
 40
0
 40
0
 40
0
 40
0
 40
1
 40
1
 40
1
 40
1
 10
63.031250
 20
360.494140
 30
0.0
 10
63.100580
 20
375.357830
 30
0.0
 10
63.513952
 20
390.251080
 30
0.0
 10
63.462891
 20
405.087890
 30
0.0
  0
SPLINE
  5
11d
100
AcDbEntity
  8
0
 62
1
100
AcDbSpline
 70
8
 71
3
 72
8
 73
4
 74
0
 40
0
 40
0
 40
0
 40
0
 40
1
 40
1
 40
1
 40
1
 10
63.462891
 20
405.087890
 30
0.0
 10
63.929134
 20
409.431100
 30
0.0
 10
58.576092
 20
415.366917
 30
0.0
 10
66.125000
 20
415.535156
 30
0.0
  0
SPLINE
  5
11e
100
AcDbEntity
  8
0
 62
1
100
AcDbSpline
 70
8
 71
3
 72
8
 73
4
 74
0
 40
0
 40
0
 40
0
 40
0
 40
1
 40
1
 40
1
 40
1
 10
66.125000
 20
415.535156
 30
0.0
 10
77.055174
 20
420.891988
 30
0.0
 10
79.724647
 20
436.545983
 30
0.0
 10
73.953126
 20
446.511718
 30
0.0
  0
SPLINE
  5
11f
100
AcDbEntity
  8
0
 62
1
100
AcDbSpline
 70
8
 71
3
 72
8
 73
4
 74
0
 40
0
 40
0
 40
0
 40
0
 40
1
 40
1
 40
1
 40
1
 10
73.953126
 20
446.511718
 30
0.0
 10
69.953936
 20
450.066852
 30
0.0
 10
76.716160
 20
465.399979
 30
0.0
 10
66.306641
 20
461.322265
 30
0.0
  0
SPLINE
  5
120
100
AcDbEntity
  8
0
 62
1
100
AcDbSpline
 70
8
 71
3
 72
8
 73
4
 74
0
 40
0
 40
0
 40
0
 40
0
 40
1
 40
1
 40
1
 40
1
 10
66.306641
 20
461.322265
 30
0.0
 10
58.288316
 20
454.471067
 30
0.0
 10
48.996221
 20
460.111172
 30
0.0
 10
39.585938
 20
458.228515
 30
0.0
  0
SPLINE
  5
121
100
AcDbEntity
  8
0
 62
1
100
AcDbSpline
 70
8
 71
3
 72
8
 73
4
 74
0
 40
0
 40
0
 40
0
 40
0
 40
1
 40
1
 40
1
 40
1
 10
39.585938
 20
458.228515
 30
0.0
 10
32.246459
 20
454.706807
 30
0.0
 10
28.317117
 20
462.368990
 30
0.0
 10
20.968750
 20
462.062500
 30
0.0
  0
LWPOLYLINE
  5
122
100
AcDbEntity
  8
0
 62
1
100
AcDbPolyline
 90
1
 70
1
 10
451.121100
 20
492.000000
 30
0.0
  0
SPLINE
  5
123
100
AcDbEntity
  8
0
 62
1
100
AcDbSpline
 70
8
 71
3
 72
8
 73
4
 74
0
 40
0
 40
0
 40
0
 40
0
 40
1
 40
1
 40
1
 40
1
 10
283.841800
 20
416.312500
 30
0.0
 10
282.812850
 20
416.259610
 30
0.0
 10
281.779550
 20
416.091701
 30
0.0
 10
280.759770
 20
415.798828
 30
0.0
  0
SPLINE
  5
124
100
AcDbEntity
  8
0
 62
1
100
AcDbSpline
 70
8
 71
3
 72
8
 73
4
 74
0
 40
0
 40
0
 40
0
 40
0
 40
1
 40
1
 40
1
 40
1
 10
280.759770
 20
415.798828
 30
0.0
 10
274.357970
 20
414.935862
 30
0.0
 10
269.790440
 20
409.626940
 30
0.0
 10
269.216800
 20
403.306640
 30
0.0
  0
SPLINE
  5
125
100
AcDbEntity
  8
0
 62
1
100
AcDbSpline
 70
8
 71
3
 72
8
 73
4
 74
0
 40
0
 40
0
 40
0
 40
0
 40
1
 40
1
 40
1
 40
1
 10
269.216800
 20
403.306640
 30
0.0
 10
268.567100
 20
388.458230
 30
0.0
 10
269.063800
 20
373.561090
 30
0.0
 10
268.958990
 20
358.693360
 30
0.0
  0
SPLINE
  5
126
100
AcDbEntity
  8
0
 62
1
100
AcDbSpline
 70
8
 71
3
 72
8
 73
4
 74
0
 40
0
 40
0
 40
0
 40
0
 40
1
 40
1
 40
1
 40
1
 10
268.958990
 20
358.693360
 30
0.0
 10
267.688930
 20
354.469870
 30
0.0
 10
271.562450
 20
346.443610
 30
0.0
 10
266.949220
 20
344.576170
 30
0.0
  0
SPLINE
  5
127
100
AcDbEntity
  8
0
 62
1
100
AcDbSpline
 70
8
 71
3
 72
8
 73
4
 74
0
 40
0
 40
0
 40
0
 40
0
 40
1
 40
1
 40
1
 40
1
 10
266.949220
 20
344.576170
 30
0.0
 10
252.843840
 20
344.781910
 30
0.0
 10
237.840640
 20
345.410960
 30
0.0
 10
225.144530
 20
338.156250
 30
0.0
  0
SPLINE
  5
128
100
AcDbEntity
  8
0
 62
1
100
AcDbSpline
 70
8
 71
3
 72
8
 73
4
 74
0
 40
0
 40
0
 40
0
 40
0
 40
1
 40
1
 40
1
 40
1
 10
225.144530
 20
338.156250
 30
0.0
 10
209.327740
 20
330.494230
 30
0.0
 10
200.319500
 20
312.970380
 30
0.0
 10
199.855470
 20
295.841790
 30
0.0
  0
SPLINE
  5
129
100
AcDbEntity
  8
0
 62
1
100
AcDbSpline
 70
8
 71
3
 72
8
 73
4
 74
0
 40
0
 40
0
 40
0
 40
0
 40
1
 40
1
 40
1
 40
1
 10
199.855470
 20
295.841790
 30
0.0
 10
199.438750
 20
280.110510
 30
0.0
 10
202.161250
 20
262.674540
 30
0.0
 10
213.826170
 20
251.128900
 30
0.0
  0
SPLINE
  5
12a
100
AcDbEntity
  8
0
 62
1
100
AcDbSpline
 70
8
 71
3
 72
8
 73
4
 74
0
 40
0
 40
0
 40
0
 40
0
 40
1
 40
1
 40
1
 40
1
 10
213.826170
 20
251.128900
 30
0.0
 10
226.752230
 20
238.320400
 30
0.0
 10
245.943250
 20
234.969830
 30
0.0
 10
263.482420
 20
235.382810
 30
0.0
  0
SPLINE
  5
12b
100
AcDbEntity
  8
0
 62
1
100
AcDbSpline
 70
8
 71
3
 72
8
 73
4
 74
0
 40
0
 40
0
 40
0
 40
0
 40
1
 40
1
 40
1
 40
1
 10
263.482420
 20
235.382810
 30
0.0
 10
272.898300
 20
235.784030
 30
0.0
 10
282.751090
 20
234.031670
 30
0.0
 10
291.798830
 20
237.355470
 30
0.0
  0
SPLINE
  5
12c
100
AcDbEntity
  8
0
 62
1
100
AcDbSpline
 70
8
 71
3
 72
8
 73
4
 74
0
 40
0
 40
0
 40
0
 40
0
 40
1
 40
1
 40
1
 40
1
 10
291.798830
 20
237.355470
 30
0.0
 10
299.203030
 20
240.117050
 30
0.0
 10
299.372670
 20
249.097000
 30
0.0
 10
300.042970
 20
255.718750
 30
0.0
  0
SPLINE
  5
12d
100
AcDbEntity
  8
0
 62
1
100
AcDbSpline
 70
8
 71
3
 72
8
 73
4
 74
0
 40
0
 40
0
 40
0
 40
0
 40
1
 40
1
 40
1
 40
1
 10
300.042970
 20
255.718750
 30
0.0
 10
300.442360
 20
270.701680
 30
0.0
 10
300.253050
 20
285.711040
 30
0.0
 10
300.248050
 20
300.695310
 30
0.0
  0
SPLINE
  5
12e
100
AcDbEntity
  8
0
 62
1
100
AcDbSpline
 70
8
 71
3
 72
8
 73
4
 74
0
 40
0
 40
0
 40
0
 40
0
 40
1
 40
1
 40
1
 40
1
 10
300.248050
 20
300.695310
 30
0.0
 10
300.352150
 20
326.754350
 30
0.0
 10
300.165150
 20
352.819530
 30
0.0
 10
300.333950
 20
378.871090
 30
0.0
  0
SPLINE
  5
12f
100
AcDbEntity
  8
0
 62
1
100
AcDbSpline
 70
8
 71
3
 72
8
 73
4
 74
0
 40
0
 40
0
 40
0
 40
0
 40
1
 40
1
 40
1
 40
1
 10
300.333950
 20
378.871090
 30
0.0
 10
300.070090
 20
387.272650
 30
0.0
 10
301.210820
 20
395.858850
 30
0.0
 10
299.343710
 20
404.121090
 30
0.0
  0
SPLINE
  5
130
100
AcDbEntity
  8
0
 62
1
100
AcDbSpline
 70
8
 71
3
 72
8
 73
4
 74
0
 40
0
 40
0
 40
0
 40
0
 40
1
 40
1
 40
1
 40
1
 10
299.343710
 20
404.121090
 30
0.0
 10
298.072800
 20
411.428400
 30
0.0
 10
291.044370
 20
416.682692
 30
0.0
 10
283.841760
 20
416.312500
 30
0.0
  0
LWPOLYLINE
  5
131
100
AcDbEntity
  8
0
 62
1
100
AcDbPolyline
 90
1
 70
1
 10
20.968750
 20
462.062500
 30
0.0
  0
SPLINE
  5
132
100
AcDbEntity
  8
0
 62
1
100
AcDbSpline
 70
8
 71
3
 72
8
 73
4
 74
0
 40
0
 40
0
 40
0
 40
0
 40
1
 40
1
 40
1
 40
1
 10
94.966797
 20
388.675780
 30
0.0
 10
89.407962
 20
388.481150
 30
0.0
 10
83.934984
 20
385.321390
 30
0.0
 10
82.078126
 20
379.847650
 30
0.0
  0
SPLINE
  5
133
100
AcDbEntity
  8
0
 62
1
100
AcDbSpline
 70
8
 71
3
 72
8
 73
4
 74
0
 40
0
 40
0
 40
0
 40
0
 40
1
 40
1
 40
1
 40
1
 10
82.078126
 20
379.847650
 30
0.0
 10
79.060644
 20
372.528280
 30
0.0
 10
80.299992
 20
364.576150
 30
0.0
 10
80.232422
 20
356.902340
 30
0.0
  0
SPLINE
  5
134
100
AcDbEntity
  8
0
 62
1
100
AcDbSpline
 70
8
 71
3
 72
8
 73
4
 74
0
 40
0
 40
0
 40
0
 40
0
 40
1
 40
1
 40
1
 40
1
 10
80.232422
 20
356.902340
 30
0.0
 10
80.207852
 20
351.643840
 30
0.0
 10
80.372557
 20
346.347330
 30
0.0
 10
80.185552
 20
341.076170
 30
0.0
  0
SPLINE
  5
135
100
AcDbEntity
  8
0
 62
1
100
AcDbSpline
 70
8
 71
3
 72
8
 73
4
 74
0
 40
0
 40
0
 40
0
 40
0
 40
1
 40
1
 40
1
 40
1
 10
80.185552
 20
341.076170
 30
0.0
 10
80.669107
 20
322.883890
 30
0.0
 10
79.396834
 20
304.625620
 30
0.0
 10
81.417974
 20
286.500000
 30
0.0
  0
SPLINE
  5
136
100
AcDbEntity
  8
0
 62
1
100
AcDbSpline
 70
8
 71
3
 72
8
 73
4
 74
0
 40
0
 40
0
 40
0
 40
0
 40
1
 40
1
 40
1
 40
1
 10
81.417974
 20
286.500000
 30
0.0
 10
81.800131
 20
280.610770
 30
0.0
 10
82.219693
 20
274.453350
 30
0.0
 10
85.533209
 20
269.351560
 30
0.0
  0
SPLINE
  5
137
100
AcDbEntity
  8
0
 62
1
100
AcDbSpline
 70
8
 71
3
 72
8
 73
4
 74
0
 40
0
 40
0
 40
0
 40
0
 40
1
 40
1
 40
1
 40
1
 10
85.533209
 20
269.351560
 30
0.0
 10
89.222878
 20
264.686700
 30
0.0
 10
96.339344
 20
261.589830
 30
0.0
 10
101.990250
 20
264.449220
 30
0.0
  0
SPLINE
  5
138
100
AcDbEntity
  8
0
 62
1
100
AcDbSpline
 70
8
 71
3
 72
8
 73
4
 74
0
 40
0
 40
0
 40
0
 40
0
 40
1
 40
1
 40
1
 40
1
 10
101.990250
 20
264.449220
 30
0.0
 10
108.051110
 20
267.680370
 30
0.0
 10
109.627670
 20
275.010840
 30
0.0
 10
110.550790
 20
281.248040
 30
0.0
  0
SPLINE
  5
139
100
AcDbEntity
  8
0
 62
1
100
AcDbSpline
 70
8
 71
3
 72
8
 73
4
 74
0
 40
0
 40
0
 40
0
 40
0
 40
1
 40
1
 40
1
 40
1
 10
110.550790
 20
281.248040
 30
0.0
 10
111.002490
 20
292.308960
 30
0.0
 10
110.771570
 20
303.380200
 30
0.0
 10
110.755870
 20
314.443360
 30
0.0
  0
SPLINE
  5
13a
100
AcDbEntity
  8
0
 62
1
100
AcDbSpline
 70
8
 71
3
 72
8
 73
4
 74
0
 40
0
 40
0
 40
0
 40
0
 40
1
 40
1
 40
1
 40
1
 10
110.755870
 20
314.443360
 30
0.0
 10
111.021900
 20
320.619520
 30
0.0
 10
111.054710
 20
326.806290
 30
0.0
 10
111.154300
 20
332.994140
 30
0.0
  0
SPLINE
  5
13b
100
AcDbEntity
  8
0
 62
1
100
AcDbSpline
 70
8
 71
3
 72
8
 73
4
 74
0
 40
0
 40
0
 40
0
 40
0
 40
1
 40
1
 40
1
 40
1
 10
111.154300
 20
332.994140
 30
0.0
 10
111.256920
 20
339.133470
 30
0.0
 10
115.375920
 20
344.265210
 30
0.0
 10
120.339860
 20
347.458980
 30
0.0
  0
SPLINE
  5
13c
100
AcDbEntity
  8
0
 62
1
100
AcDbSpline
 70
8
 71
3
 72
8
 73
4
 74
0
 40
0
 40
0
 40
0
 40
0
 40
1
 40
1
 40
1
 40
1
 10
120.339860
 20
347.458980
 30
0.0
 10
127.480510
 20
352.210370
 30
0.0
 10
137.521890
 20
353.259800
 30
0.0
 10
145.023440
 20
348.750000
 30
0.0
  0
SPLINE
  5
13d
100
AcDbEntity
  8
0
 62
1
100
AcDbSpline
 70
8
 71
3
 72
8
 73
4
 74
0
 40
0
 40
0
 40
0
 40
0
 40
1
 40
1
 40
1
 40
1
 10
145.023440
 20
348.750000
 30
0.0
 10
151.308940
 20
344.990110
 30
0.0
 10
154.304950
 20
337.664130
 30
0.0
 10
154.720720
 20
330.603510
 30
0.0
  0
SPLINE
  5
13e
100
AcDbEntity
  8
0
 62
1
100
AcDbSpline
 70
8
 71
3
 72
8
 73
4
 74
0
 40
0
 40
0
 40
0
 40
0
 40
1
 40
1
 40
1
 40
1
 10
154.720720
 20
330.603510
 30
0.0
 10
154.424610
 20
321.319180
 30
0.0
 10
155.095490
 20
312.042720
 30
0.0
 10
154.992190
 20
302.763670
 30
0.0
  0
SPLINE
  5
13f
100
AcDbEntity
  8
0
 62
1
100
AcDbSpline
 70
8
 71
3
 72
8
 73
4
 74
0
 40
0
 40
0
 40
0
 40
0
 40
1
 40
1
 40
1
 40
1
 10
154.992190
 20
302.763670
 30
0.0
 10
155.248950
 20
293.059680
 30
0.0
 10
155.094200
 20
283.139200
 30
0.0
 10
157.933600
 20
273.750000
 30
0.0
  0
SPLINE
  5
140
100
AcDbEntity
  8
0
 62
1
100
AcDbSpline
 70
8
 71
3
 72
8
 73
4
 74
0
 40
0
 40
0
 40
0
 40
0
 40
1
 40
1
 40
1
 40
1
 10
157.933600
 20
273.750000
 30
0.0
 10
158.978140
 20
268.831650
 30
0.0
 10
163.053950
 20
264.619300
 30
0.0
 10
168.251970
 20
264.484370
 30
0.0
  0
SPLINE
  5
141
100
AcDbEntity
  8
0
 62
1
100
AcDbSpline
 70
8
 71
3
 72
8
 73
4
 74
0
 40
0
 40
0
 40
0
 40
0
 40
1
 40
1
 40
1
 40
1
 10
168.251970
 20
264.484370
 30
0.0
 10
172.872380
 20
264.229250
 30
0.0
 10
178.664140
 20
264.632620
 30
0.0
 10
181.404310
 20
268.941400
 30
0.0
  0
SPLINE
  5
142
100
AcDbEntity
  8
0
 62
1
100
AcDbSpline
 70
8
 71
3
 72
8
 73
4
 74
0
 40
0
 40
0
 40
0
 40
0
 40
1
 40
1
 40
1
 40
1
 10
181.404310
 20
268.941400
 30
0.0
 10
184.666310
 20
275.237250
 30
0.0
 10
184.467370
 20
282.619790
 30
0.0
 10
184.615250
 20
289.535150
 30
0.0
  0
SPLINE
  5
143
100
AcDbEntity
  8
0
 62
1
100
AcDbSpline
 70
8
 71
3
 72
8
 73
4
 74
0
 40
0
 40
0
 40
0
 40
0
 40
1
 40
1
 40
1
 40
1
 10
184.615250
 20
289.535150
 30
0.0
 10
185.334550
 20
298.434870
 30
0.0
 10
185.566130
 20
307.352720
 30
0.0
 10
185.394540
 20
316.287110
 30
0.0
  0
SPLINE
  5
144
100
AcDbEntity
  8
0
 62
1
100
AcDbSpline
 70
8
 71
3
 72
8
 73
4
 74
0
 40
0
 40
0
 40
0
 40
0
 40
1
 40
1
 40
1
 40
1
 10
185.394540
 20
316.287110
 30
0.0
 10
184.501130
 20
326.363160
 30
0.0
 10
184.749560
 20
336.520200
 30
0.0
 10
183.158220
 20
346.531250
 30
0.0
  0
SPLINE
  5
145
100
AcDbEntity
  8
0
 62
1
100
AcDbSpline
 70
8
 71
3
 72
8
 73
4
 74
0
 40
0
 40
0
 40
0
 40
0
 40
1
 40
1
 40
1
 40
1
 10
183.158220
 20
346.531250
 30
0.0
 10
181.641860
 20
357.196210
 30
0.0
 10
176.511680
 20
367.728460
 30
0.0
 10
167.417980
 20
373.892580
 30
0.0
  0
SPLINE
  5
146
100
AcDbEntity
  8
0
 62
1
100
AcDbSpline
 70
8
 71
3
 72
8
 73
4
 74
0
 40
0
 40
0
 40
0
 40
0
 40
1
 40
1
 40
1
 40
1
 10
167.417980
 20
373.892580
 30
0.0
 10
161.368290
 20
378.042500
 30
0.0
 10
154.418910
 20
381.096530
 30
0.0
 10
147.177750
 20
382.406250
 30
0.0
  0
SPLINE
  5
147
100
AcDbEntity
  8
0
 62
1
100
AcDbSpline
 70
8
 71
3
 72
8
 73
4
 74
0
 40
0
 40
0
 40
0
 40
0
 40
1
 40
1
 40
1
 40
1
 10
147.177750
 20
382.406250
 30
0.0
 10
142.242390
 20
383.360920
 30
0.0
 10
137.196040
 20
383.398930
 30
0.0
 10
132.306640
 20
382.179690
 30
0.0
  0
SPLINE
  5
148
100
AcDbEntity
  8
0
 62
1
100
AcDbSpline
 70
8
 71
3
 72
8
 73
4
 74
0
 40
0
 40
0
 40
0
 40
0
 40
1
 40
1
 40
1
 40
1
 10
132.306640
 20
382.179690
 30
0.0
 10
124.493360
 20
379.773630
 30
0.0
 10
116.284480
 20
376.009920
 30
0.0
 10
111.908220
 20
368.732420
 30
0.0
  0
SPLINE
  5
149
100
AcDbEntity
  8
0
 62
1
100
AcDbSpline
 70
8
 71
3
 72
8
 73
4
 74
0
 40
0
 40
0
 40
0
 40
0
 40
1
 40
1
 40
1
 40
1
 10
111.908220
 20
368.732420
 30
0.0
 10
110.415350
 20
368.339860
 30
0.0
 10
111.377070
 20
373.816810
 30
0.0
 10
110.679690
 20
375.626950
 30
0.0
  0
SPLINE
  5
14a
100
AcDbEntity
  8
0
 62
1
100
AcDbSpline
 70
8
 71
3
 72
8
 73
4
 74
0
 40
0
 40
0
 40
0
 40
0
 40
1
 40
1
 40
1
 40
1
 10
110.679690
 20
375.626950
 30
0.0
 10
110.099580
 20
381.292420
 30
0.0
 10
106.302170
 20
386.839400
 30
0.0
 10
100.423830
 20
387.857420
 30
0.0
  0
SPLINE
  5
14b
100
AcDbEntity
  8
0
 62
1
100
AcDbSpline
 70
8
 71
3
 72
8
 73
4
 74
0
 40
0
 40
0
 40
0
 40
0
 40
1
 40
1
 40
1
 40
1
 10
100.423830
 20
387.857420
 30
0.0
 10
98.682646
 20
388.475450
 30
0.0
 10
96.819748
 20
388.740650
 30
0.0
 10
94.966802
 20
388.675780
 30
0.0
  0
LWPOLYLINE
  5
14c
100
AcDbEntity
  8
0
 62
1
100
AcDbPolyline
 90
1
 70
1
 10
283.841760
 20
416.312500
 30
0.0
  0
SPLINE
  5
14d
100
AcDbEntity
  8
0
 62
1
100
AcDbSpline
 70
8
 71
3
 72
8
 73
4
 74
0
 40
0
 40
0
 40
0
 40
0
 40
1
 40
1
 40
1
 40
1
 10
337.574220
 20
385.667970
 30
0.0
 10
335.491430
 20
385.581770
 30
0.0
 10
333.420840
 20
385.058020
 30
0.0
 10
331.474610
 20
384.013670
 30
0.0
  0
SPLINE
  5
14e
100
AcDbEntity
  8
0
 62
1
100
AcDbSpline
 70
8
 71
3
 72
8
 73
4
 74
0
 40
0
 40
0
 40
0
 40
0
 40
1
 40
1
 40
1
 40
1
 10
331.474610
 20
384.013670
 30
0.0
 10
324.098530
 20
380.317290
 30
0.0
 10
322.950860
 20
370.596600
 30
0.0
 10
326.025390
 20
363.666010
 30
0.0
  0
SPLINE
  5
14f
100
AcDbEntity
  8
0
 62
1
100
AcDbSpline
 70
8
 71
3
 72
8
 73
4
 74
0
 40
0
 40
0
 40
0
 40
0
 40
1
 40
1
 40
1
 40
1
 10
326.025390
 20
363.666010
 30
0.0
 10
328.415100
 20
356.602790
 30
0.0
 10
336.558280
 20
353.185420
 30
0.0
 10
343.511720
 20
355.105470
 30
0.0
  0
SPLINE
  5
150
100
AcDbEntity
  8
0
 62
1
100
AcDbSpline
 70
8
 71
3
 72
8
 73
4
 74
0
 40
0
 40
0
 40
0
 40
0
 40
1
 40
1
 40
1
 40
1
 10
343.511720
 20
355.105470
 30
0.0
 10
350.218990
 20
356.553410
 30
0.0
 10
356.044800
 20
361.720610
 30
0.0
 10
356.029300
 20
368.964840
 30
0.0
  0
SPLINE
  5
151
100
AcDbEntity
  8
0
 62
1
100
AcDbSpline
 70
8
 71
3
 72
8
 73
4
 74
0
 40
0
 40
0
 40
0
 40
0
 40
1
 40
1
 40
1
 40
1
 10
356.029300
 20
368.964840
 30
0.0
 10
355.838090
 20
378.203740
 30
0.0
 10
346.599640
 20
386.041310
 30
0.0
 10
337.574220
 20
385.667970
 30
0.0
  0
LWPOLYLINE
  5
152
100
AcDbEntity
  8
0
 62
1
100
AcDbPolyline
 90
1
 70
1
 10
94.966802
 20
388.675780
 30
0.0
  0
SPLINE
  5
153
100
AcDbEntity
  8
0
 62
1
100
AcDbSpline
 70
8
 71
3
 72
8
 73
4
 74
0
 40
0
 40
0
 40
0
 40
0
 40
1
 40
1
 40
1
 40
1
 10
427.884770
 20
380.003900
 30
0.0
 10
420.859410
 20
379.913100
 30
0.0
 10
413.858950
 20
378.660080
 30
0.0
 10
407.292970
 20
376.162110
 30
0.0
  0
SPLINE
  5
154
100
AcDbEntity
  8
0
 62
1
100
AcDbSpline
 70
8
 71
3
 72
8
 73
4
 74
0
 40
0
 40
0
 40
0
 40
0
 40
1
 40
1
 40
1
 40
1
 10
407.292970
 20
376.162110
 30
0.0
 10
395.762770
 20
372.118150
 30
0.0
 10
386.371590
 20
363.310610
 30
0.0
 10
380.386720
 20
352.791010
 30
0.0
  0
SPLINE
  5
155
100
AcDbEntity
  8
0
 62
1
100
AcDbSpline
 70
8
 71
3
 72
8
 73
4
 74
0
 40
0
 40
0
 40
0
 40
0
 40
1
 40
1
 40
1
 40
1
 10
380.386720
 20
352.791010
 30
0.0
 10
376.852390
 20
346.443880
 30
0.0
 10
374.900160
 20
339.281940
 30
0.0
 10
374.154300
 20
332.082030
 30
0.0
  0
SPLINE
  5
156
100
AcDbEntity
  8
0
 62
1
100
AcDbSpline
 70
8
 71
3
 72
8
 73
4
 74
0
 40
0
 40
0
 40
0
 40
0
 40
1
 40
1
 40
1
 40
1
 10
374.154300
 20
332.082030
 30
0.0
 10
372.698470
 20
319.433120
 30
0.0
 10
374.031160
 20
306.458450
 30
0.0
 10
378.039070
 20
294.384760
 30
0.0
  0
SPLINE
  5
157
100
AcDbEntity
  8
0
 62
1
100
AcDbSpline
 70
8
 71
3
 72
8
 73
4
 74
0
 40
0
 40
0
 40
0
 40
0
 40
1
 40
1
 40
1
 40
1
 10
378.039070
 20
294.384760
 30
0.0
 10
382.165890
 20
282.362040
 30
0.0
 10
390.196630
 20
270.883410
 30
0.0
 10
402.203130
 20
265.777340
 30
0.0
  0
SPLINE
  5
158
100
AcDbEntity
  8
0
 62
1
100
AcDbSpline
 70
8
 71
3
 72
8
 73
4
 74
0
 40
0
 40
0
 40
0
 40
0
 40
1
 40
1
 40
1
 40
1
 10
402.203130
 20
265.777340
 30
0.0
 10
408.314940
 20
262.683880
 30
0.0
 10
415.202190
 20
261.929170
 30
0.0
 10
421.916020
 20
261.248040
 30
0.0
  0
SPLINE
  5
159
100
AcDbEntity
  8
0
 62
1
100
AcDbSpline
 70
8
 71
3
 72
8
 73
4
 74
0
 40
0
 40
0
 40
0
 40
0
 40
1
 40
1
 40
1
 40
1
 10
421.916020
 20
261.248040
 30
0.0
 10
436.393290
 20
260.442400
 30
0.0
 10
451.140680
 20
262.920980
 30
0.0
 10
464.373050
 20
268.898430
 30
0.0
  0
SPLINE
  5
15a
100
AcDbEntity
  8
0
 62
1
100
AcDbSpline
 70
8
 71
3
 72
8
 73
4
 74
0
 40
0
 40
0
 40
0
 40
0
 40
1
 40
1
 40
1
 40
1
 10
464.373050
 20
268.898430
 30
0.0
 10
471.497770
 20
272.484560
 30
0.0
 10
479.195400
 20
276.224320
 30
0.0
 10
483.500000
 20
283.279290
 30
0.0
  0
SPLINE
  5
15b
100
AcDbEntity
  8
0
 62
1
100
AcDbSpline
 70
8
 71
3
 72
8
 73
4
 74
0
 40
0
 40
0
 40
0
 40
0
 40
1
 40
1
 40
1
 40
1
 10
483.500000
 20
283.279290
 30
0.0
 10
486.567960
 20
287.896130
 30
0.0
 10
487.211160
 20
294.469200
 30
0.0
 10
483.669920
 20
299.005860
 30
0.0
  0
SPLINE
  5
15c
100
AcDbEntity
  8
0
 62
1
100
AcDbSpline
 70
8
 71
3
 72
8
 73
4
 74
0
 40
0
 40
0
 40
0
 40
0
 40
1
 40
1
 40
1
 40
1
 10
483.669920
 20
299.005860
 30
0.0
 10
479.677780
 20
304.032320
 30
0.0
 10
472.402150
 20
303.055810
 30
0.0
 10
467.201170
 20
300.724610
 30
0.0
  0
SPLINE
  5
15d
100
AcDbEntity
  8
0
 62
1
100
AcDbSpline
 70
8
 71
3
 72
8
 73
4
 74
0
 40
0
 40
0
 40
0
 40
0
 40
1
 40
1
 40
1
 40
1
 10
467.201170
 20
300.724610
 30
0.0
 10
463.237490
 20
299.254340
 30
0.0
 10
459.595220
 20
297.041240
 30
0.0
 10
455.648440
 20
295.541010
 30
0.0
  0
SPLINE
  5
15e
100
AcDbEntity
  8
0
 62
1
100
AcDbSpline
 70
8
 71
3
 72
8
 73
4
 74
0
 40
0
 40
0
 40
0
 40
0
 40
1
 40
1
 40
1
 40
1
 10
455.648440
 20
295.541010
 30
0.0
 10
448.874540
 20
292.308220
 30
0.0
 10
441.582140
 20
290.222530
 30
0.0
 10
434.095710
 20
289.552730
 30
0.0
  0
SPLINE
  5
15f
100
AcDbEntity
  8
0
 62
1
100
AcDbSpline
 70
8
 71
3
 72
8
 73
4
 74
0
 40
0
 40
0
 40
0
 40
0
 40
1
 40
1
 40
1
 40
1
 10
434.095710
 20
289.552730
 30
0.0
 10
425.222170
 20
289.019620
 30
0.0
 10
414.867840
 20
289.785020
 30
0.0
 10
408.667970
 20
297.021480
 30
0.0
  0
SPLINE
  5
160
100
AcDbEntity
  8
0
 62
1
100
AcDbSpline
 70
8
 71
3
 72
8
 73
4
 74
0
 40
0
 40
0
 40
0
 40
0
 40
1
 40
1
 40
1
 40
1
 10
408.667970
 20
297.021480
 30
0.0
 10
407.003090
 20
299.407190
 30
0.0
 10
405.075050
 20
302.947280
 30
0.0
 10
406.626960
 20
305.746090
 30
0.0
  0
SPLINE
  5
161
100
AcDbEntity
  8
0
 62
1
100
AcDbSpline
 70
8
 71
3
 72
8
 73
4
 74
0
 40
0
 40
0
 40
0
 40
0
 40
1
 40
1
 40
1
 40
1
 10
406.626960
 20
305.746090
 30
0.0
 10
411.615240
 20
306.594650
 30
0.0
 10
416.745790
 20
306.737190
 30
0.0
 10
421.746100
 20
307.654290
 30
0.0
  0
SPLINE
  5
162
100
AcDbEntity
  8
0
 62
1
100
AcDbSpline
 70
8
 71
3
 72
8
 73
4
 74
0
 40
0
 40
0
 40
0
 40
0
 40
1
 40
1
 40
1
 40
1
 10
421.746100
 20
307.654290
 30
0.0
 10
431.439990
 20
308.806660
 30
0.0
 10
441.113190
 20
310.088850
 30
0.0
 10
450.720710
 20
311.804690
 30
0.0
  0
SPLINE
  5
163
100
AcDbEntity
  8
0
 62
1
100
AcDbSpline
 70
8
 71
3
 72
8
 73
4
 74
0
 40
0
 40
0
 40
0
 40
0
 40
1
 40
1
 40
1
 40
1
 10
450.720710
 20
311.804690
 30
0.0
 10
458.446490
 20
313.617890
 30
0.0
 10
466.661740
 20
314.013060
 30
0.0
 10
473.728520
 20
317.947260
 30
0.0
  0
SPLINE
  5
164
100
AcDbEntity
  8
0
 62
1
100
AcDbSpline
 70
8
 71
3
 72
8
 73
4
 74
0
 40
0
 40
0
 40
0
 40
0
 40
1
 40
1
 40
1
 40
1
 10
473.728520
 20
317.947260
 30
0.0
 10
478.742910
 20
320.672400
 30
0.0
 10
480.938830
 20
326.297270
 30
0.0
 10
481.433600
 20
331.708980
 30
0.0
  0
SPLINE
  5
165
100
AcDbEntity
  8
0
 62
1
100
AcDbSpline
 70
8
 71
3
 72
8
 73
4
 74
0
 40
0
 40
0
 40
0
 40
0
 40
1
 40
1
 40
1
 40
1
 10
481.433600
 20
331.708980
 30
0.0
 10
481.877780
 20
341.755060
 30
0.0
 10
479.077310
 20
352.146510
 30
0.0
 10
473.029300
 20
360.248040
 30
0.0
  0
SPLINE
  5
166
100
AcDbEntity
  8
0
 62
1
100
AcDbSpline
 70
8
 71
3
 72
8
 73
4
 74
0
 40
0
 40
0
 40
0
 40
0
 40
1
 40
1
 40
1
 40
1
 10
473.029300
 20
360.248040
 30
0.0
 10
466.882000
 20
368.143770
 30
0.0
 10
458.118390
 20
373.846740
 30
0.0
 10
448.619140
 20
376.869140
 30
0.0
  0
SPLINE
  5
167
100
AcDbEntity
  8
0
 62
1
100
AcDbSpline
 70
8
 71
3
 72
8
 73
4
 74
0
 40
0
 40
0
 40
0
 40
0
 40
1
 40
1
 40
1
 40
1
 10
448.619140
 20
376.869140
 30
0.0
 10
441.959920
 20
379.022460
 30
0.0
 10
434.910120
 20
380.094710
 30
0.0
 10
427.884770
 20
380.003900
 30
0.0
  0
LWPOLYLINE
  5
168
100
AcDbEntity
  8
0
 62
1
100
AcDbPolyline
 90
1
 70
1
 10
337.574220
 20
385.667970
 30
0.0
  0
SPLINE
  5
169
100
AcDbEntity
  8
0
 62
1
100
AcDbSpline
 70
8
 71
3
 72
8
 73
4
 74
0
 40
0
 40
0
 40
0
 40
0
 40
1
 40
1
 40
1
 40
1
 10
430.255860
 20
354.851560
 30
0.0
 10
436.402230
 20
355.228650
 30
0.0
 10
442.363770
 20
352.284500
 30
0.0
 10
446.986330
 20
348.339840
 30
0.0
  0
SPLINE
  5
16a
100
AcDbEntity
  8
0
 62
1
100
AcDbSpline
 70
8
 71
3
 72
8
 73
4
 74
0
 40
0
 40
0
 40
0
 40
0
 40
1
 40
1
 40
1
 40
1
 10
446.986330
 20
348.339840
 30
0.0
 10
448.534520
 20
347.101310
 30
0.0
 10
450.053690
 20
345.798090
 30
0.0
 10
451.296880
 20
344.218750
 30
0.0
  0
SPLINE
  5
16b
100
AcDbEntity
  8
0
 62
1
100
AcDbSpline
 70
8
 71
3
 72
8
 73
4
 74
0
 40
0
 40
0
 40
0
 40
0
 40
1
 40
1
 40
1
 40
1
 10
451.296880
 20
344.218750
 30
0.0
 10
452.288830
 20
342.265690
 30
0.0
 10
456.064420
 20
337.826130
 30
0.0
 10
452.347660
 20
337.041010
 30
0.0
  0
SPLINE
  5
16c
100
AcDbEntity
  8
0
 62
1
100
AcDbSpline
 70
8
 71
3
 72
8
 73
4
 74
0
 40
0
 40
0
 40
0
 40
0
 40
1
 40
1
 40
1
 40
1
 10
452.347660
 20
337.041010
 30
0.0
 10
440.599010
 20
335.162820
 30
0.0
 10
428.819720
 20
333.454240
 30
0.0
 10
417.056640
 20
331.667970
 30
0.0
  0
SPLINE
  5
16d
100
AcDbEntity
  8
0
 62
1
100
AcDbSpline
 70
8
 71
3
 72
8
 73
4
 74
0
 40
0
 40
0
 40
0
 40
0
 40
1
 40
1
 40
1
 40
1
 10
417.056640
 20
331.667970
 30
0.0
 10
412.963600
 20
331.163990
 30
0.0
 10
408.875400
 20
330.215420
 30
0.0
 10
404.767580
 20
330.072260
 30
0.0
  0
SPLINE
  5
16e
100
AcDbEntity
  8
0
 62
1
100
AcDbSpline
 70
8
 71
3
 72
8
 73
4
 74
0
 40
0
 40
0
 40
0
 40
0
 40
1
 40
1
 40
1
 40
1
 10
404.767580
 20
330.072260
 30
0.0
 10
402.407440
 20
331.648730
 30
0.0
 10
405.143370
 20
335.495430
 30
0.0
 10
405.757810
 20
337.724610
 30
0.0
  0
SPLINE
  5
16f
100
AcDbEntity
  8
0
 62
1
100
AcDbSpline
 70
8
 71
3
 72
8
 73
4
 74
0
 40
0
 40
0
 40
0
 40
0
 40
1
 40
1
 40
1
 40
1
 10
405.757810
 20
337.724610
 30
0.0
 10
409.047680
 20
346.984560
 30
0.0
 10
418.132470
 20
353.078980
 30
0.0
 10
427.613280
 20
354.478510
 30
0.0
  0
SPLINE
  5
170
100
AcDbEntity
  8
0
 62
1
100
AcDbSpline
 70
8
 71
3
 72
8
 73
4
 74
0
 40
0
 40
0
 40
0
 40
0
 40
1
 40
1
 40
1
 40
1
 10
427.613280
 20
354.478510
 30
0.0
 10
428.495540
 20
354.674710
 30
0.0
 10
429.377810
 20
354.797690
 30
0.0
 10
430.255860
 20
354.851560
 30
0.0
  0
LWPOLYLINE
  5
171
100
AcDbEntity
  8
0
 62
1
100
AcDbPolyline
 90
1
 70
1
 10
427.884770
 20
380.003900
 30
0.0
  0
SPLINE
  5
172
100
AcDbEntity
  8
0
 62
1
100
AcDbSpline
 70
8
 71
3
 72
8
 73
4
 74
0
 40
0
 40
0
 40
0
 40
0
 40
1
 40
1
 40
1
 40
1
 10
338.048830
 20
333.099610
 30
0.0
 10
333.635220
 20
332.976400
 30
0.0
 10
329.110850
 20
331.512300
 30
0.0
 10
326.371100
 20
328.087890
 30
0.0
  0
SPLINE
  5
173
100
AcDbEntity
  8
0
 62
1
100
AcDbSpline
 70
8
 71
3
 72
8
 73
4
 74
0
 40
0
 40
0
 40
0
 40
0
 40
1
 40
1
 40
1
 40
1
 10
326.371100
 20
328.087890
 30
0.0
 10
322.205830
 20
320.618650
 30
0.0
 10
322.306430
 20
311.724720
 30
0.0
 10
321.960940
 20
303.412110
 30
0.0
  0
SPLINE
  5
174
100
AcDbEntity
  8
0
 62
1
100
AcDbSpline
 70
8
 71
3
 72
8
 73
4
 74
0
 40
0
 40
0
 40
0
 40
0
 40
1
 40
1
 40
1
 40
1
 10
321.960940
 20
303.412110
 30
0.0
 10
322.386240
 20
288.070060
 30
0.0
 10
322.034940
 20
272.711190
 30
0.0
 10
322.300780
 20
257.367190
 30
0.0
  0
SPLINE
  5
175
100
AcDbEntity
  8
0
 62
1
100
AcDbSpline
 70
8
 71
3
 72
8
 73
4
 74
0
 40
0
 40
0
 40
0
 40
0
 40
1
 40
1
 40
1
 40
1
 10
322.300780
 20
257.367190
 30
0.0
 10
322.998470
 20
244.936390
 30
0.0
 10
321.490050
 20
232.235340
 30
0.0
 10
324.548830
 20
220.042970
 30
0.0
  0
SPLINE
  5
176
100
AcDbEntity
  8
0
 62
1
100
AcDbSpline
 70
8
 71
3
 72
8
 73
4
 74
0
 40
0
 40
0
 40
0
 40
0
 40
1
 40
1
 40
1
 40
1
 10
324.548830
 20
220.042970
 30
0.0
 10
325.940850
 20
213.518200
 30
0.0
 10
331.561960
 20
207.757990
 30
0.0
 10
338.548830
 20
208.082030
 30
0.0
  0
SPLINE
  5
177
100
AcDbEntity
  8
0
 62
1
100
AcDbSpline
 70
8
 71
3
 72
8
 73
4
 74
0
 40
0
 40
0
 40
0
 40
0
 40
1
 40
1
 40
1
 40
1
 10
338.548830
 20
208.082030
 30
0.0
 10
345.317300
 20
207.198130
 30
0.0
 10
350.875840
 20
212.797560
 30
0.0
 10
352.328130
 20
219.019530
 30
0.0
  0
SPLINE
  5
178
100
AcDbEntity
  8
0
 62
1
100
AcDbSpline
 70
8
 71
3
 72
8
 73
4
 74
0
 40
0
 40
0
 40
0
 40
0
 40
1
 40
1
 40
1
 40
1
 10
352.328130
 20
219.019530
 30
0.0
 10
355.100470
 20
229.411760
 30
0.0
 10
354.321380
 20
240.325090
 30
0.0
 10
354.500000
 20
250.968750
 30
0.0
  0
SPLINE
  5
179
100
AcDbEntity
  8
0
 62
1
100
AcDbSpline
 70
8
 71
3
 72
8
 73
4
 74
0
 40
0
 40
0
 40
0
 40
0
 40
1
 40
1
 40
1
 40
1
 10
354.500000
 20
250.968750
 30
0.0
 10
354.867380
 20
268.221490
 30
0.0
 10
354.219610
 20
285.471640
 30
0.0
 10
354.287110
 20
302.726560
 30
0.0
  0
SPLINE
  5
17a
100
AcDbEntity
  8
0
 62
1
100
AcDbSpline
 70
8
 71
3
 72
8
 73
4
 74
0
 40
0
 40
0
 40
0
 40
0
 40
1
 40
1
 40
1
 40
1
 10
354.287110
 20
302.726560
 30
0.0
 10
354.355310
 20
309.317870
 30
0.0
 10
353.900050
 20
315.898390
 30
0.0
 10
353.048830
 20
322.435540
 30
0.0
  0
SPLINE
  5
17b
100
AcDbEntity
  8
0
 62
1
100
AcDbSpline
 70
8
 71
3
 72
8
 73
4
 74
0
 40
0
 40
0
 40
0
 40
0
 40
1
 40
1
 40
1
 40
1
 10
353.048830
 20
322.435540
 30
0.0
 10
353.074630
 20
328.319600
 30
0.0
 10
347.829540
 20
332.288460
 30
0.0
 10
342.355470
 20
332.798830
 30
0.0
  0
SPLINE
  5
17c
100
AcDbEntity
  8
0
 62
1
100
AcDbSpline
 70
8
 71
3
 72
8
 73
4
 74
0
 40
0
 40
0
 40
0
 40
0
 40
1
 40
1
 40
1
 40
1
 10
342.355470
 20
332.798830
 30
0.0
 10
340.978960
 20
333.032840
 30
0.0
 10
339.520040
 20
333.140680
 30
0.0
 10
338.048830
 20
333.099610
 30
0.0
  0
LWPOLYLINE
  5
17d
100
AcDbEntity
  8
0
 62
1
100
AcDbPolyline
 90
1
 70
1
 10
430.255860
 20
354.851560
 30
0.0
  0
SPLINE
  5
17e
100
AcDbEntity
  8
0
 62
1
100
AcDbSpline
 70
8
 71
3
 72
8
 73
4
 74
0
 40
0
 40
0
 40
0
 40
0
 40
1
 40
1
 40
1
 40
1
 10
251.398440
 20
316.066400
 30
0.0
 10
252.072590
 20
316.079200
 30
0.0
 10
252.751200
 20
316.058400
 30
0.0
 10
253.431640
 20
315.998000
 30
0.0
  0
SPLINE
  5
17f
100
AcDbEntity
  8
0
 62
1
100
AcDbSpline
 70
8
 71
3
 72
8
 73
4
 74
0
 40
0
 40
0
 40
0
 40
0
 40
1
 40
1
 40
1
 40
1
 10
253.431640
 20
315.998000
 30
0.0
 10
258.453210
 20
315.370100
 30
0.0
 10
264.422670
 20
315.828850
 30
0.0
 10
268.794920
 20
313.685500
 30
0.0
  0
SPLINE
  5
180
100
AcDbEntity
  8
0
 62
1
100
AcDbSpline
 70
8
 71
3
 72
8
 73
4
 74
0
 40
0
 40
0
 40
0
 40
0
 40
1
 40
1
 40
1
 40
1
 10
268.794920
 20
313.685500
 30
0.0
 10
269.077940
 20
301.111330
 30
0.0
 10
268.819120
 20
288.506330
 30
0.0
 10
268.941410
 20
275.923790
 30
0.0
  0
SPLINE
  5
181
100
AcDbEntity
  8
0
 62
1
100
AcDbSpline
 70
8
 71
3
 72
8
 73
4
 74
0
 40
0
 40
0
 40
0
 40
0
 40
1
 40
1
 40
1
 40
1
 10
268.941410
 20
275.923790
 30
0.0
 10
269.963250
 20
270.343190
 30
0.0
 10
268.922910
 20
264.690710
 30
0.0
 10
261.910160
 20
265.701130
 30
0.0
  0
SPLINE
  5
182
100
AcDbEntity
  8
0
 62
1
100
AcDbSpline
 70
8
 71
3
 72
8
 73
4
 74
0
 40
0
 40
0
 40
0
 40
0
 40
1
 40
1
 40
1
 40
1
 10
261.910160
 20
265.701130
 30
0.0
 10
252.877320
 20
265.360170
 30
0.0
 10
242.171120
 20
265.826470
 30
0.0
 10
235.722660
 20
273.087850
 30
0.0
  0
SPLINE
  5
183
100
AcDbEntity
  8
0
 62
1
100
AcDbSpline
 70
8
 71
3
 72
8
 73
4
 74
0
 40
0
 40
0
 40
0
 40
0
 40
1
 40
1
 40
1
 40
1
 10
235.722660
 20
273.087850
 30
0.0
 10
230.150890
 20
279.773580
 30
0.0
 10
228.985420
 20
289.341670
 30
0.0
 10
230.439460
 20
297.706990
 30
0.0
  0
SPLINE
  5
184
100
AcDbEntity
  8
0
 62
1
100
AcDbSpline
 70
8
 71
3
 72
8
 73
4
 74
0
 40
0
 40
0
 40
0
 40
0
 40
1
 40
1
 40
1
 40
1
 10
230.439460
 20
297.706990
 30
0.0
 10
232.100950
 20
307.708890
 30
0.0
 10
241.286200
 20
315.874300
 30
0.0
 10
251.398440
 20
316.066360
 30
0.0
  0
LWPOLYLINE
  5
185
100
AcDbEntity
  8
0
 62
1
100
AcDbPolyline
 90
1
 70
1
 10
338.048830
 20
333.099610
 30
0.0
  0
SPLINE
  5
186
100
AcDbEntity
  8
0
 62
1
100
AcDbSpline
 70
8
 71
3
 72
8
 73
4
 74
0
 40
0
 40
0
 40
0
 40
0
 40
1
 40
1
 40
1
 40
1
 10
460.710940
 20
240.408200
 30
0.0
 10
456.008680
 20
240.608850
 30
0.0
 10
451.073750
 20
238.953460
 30
0.0
 10
447.080080
 20
236.724610
 30
0.0
  0
SPLINE
  5
187
100
AcDbEntity
  8
0
 62
1
100
AcDbSpline
 70
8
 71
3
 72
8
 73
4
 74
0
 40
0
 40
0
 40
0
 40
0
 40
1
 40
1
 40
1
 40
1
 10
447.080080
 20
236.724610
 30
0.0
 10
441.964040
 20
233.639240
 30
0.0
 10
442.007080
 20
227.210290
 30
0.0
 10
442.275390
 20
221.964840
 30
0.0
  0
SPLINE
  5
188
100
AcDbEntity
  8
0
 62
1
100
AcDbSpline
 70
8
 71
3
 72
8
 73
4
 74
0
 40
0
 40
0
 40
0
 40
0
 40
1
 40
1
 40
1
 40
1
 10
442.275390
 20
221.964840
 30
0.0
 10
444.699800
 20
207.909160
 30
0.0
 10
447.958370
 20
193.981230
 30
0.0
 10
450.732420
 20
179.990230
 30
0.0
  0
SPLINE
  5
189
100
AcDbEntity
  8
0
 62
1
100
AcDbSpline
 70
8
 71
3
 72
8
 73
4
 74
0
 40
0
 40
0
 40
0
 40
0
 40
1
 40
1
 40
1
 40
1
 10
450.732420
 20
179.990230
 30
0.0
 10
456.567840
 20
151.545380
 30
0.0
 10
462.535420
 20
123.136820
 30
0.0
 10
468.289070
 20
94.675780
 30
0.0
  0
SPLINE
  5
18a
100
AcDbEntity
  8
0
 62
1
100
AcDbSpline
 70
8
 71
3
 72
8
 73
4
 74
0
 40
0
 40
0
 40
0
 40
0
 40
1
 40
1
 40
1
 40
1
 10
468.289070
 20
94.675780
 30
0.0
 10
470.682160
 20
85.593340
 30
0.0
 10
470.811680
 20
75.409310
 30
0.0
 10
476.875000
 20
67.759760
 30
0.0
  0
SPLINE
  5
18b
100
AcDbEntity
  8
0
 62
1
100
AcDbSpline
 70
8
 71
3
 72
8
 73
4
 74
0
 40
0
 40
0
 40
0
 40
0
 40
1
 40
1
 40
1
 40
1
 10
476.875000
 20
67.759760
 30
0.0
 10
482.105670
 20
62.670200
 30
0.0
 10
490.778670
 20
63.228710
 30
0.0
 10
496.943360
 20
66.181640
 30
0.0
  0
SPLINE
  5
18c
100
AcDbEntity
  8
0
 62
1
100
AcDbSpline
 70
8
 71
3
 72
8
 73
4
 74
0
 40
0
 40
0
 40
0
 40
0
 40
1
 40
1
 40
1
 40
1
 10
496.943360
 20
66.181640
 30
0.0
 10
504.653810
 20
69.279940
 30
0.0
 10
506.044980
 20
78.817980
 30
0.0
 10
504.767580
 20
86.064450
 30
0.0
  0
SPLINE
  5
18d
100
AcDbEntity
  8
0
 62
1
100
AcDbSpline
 70
8
 71
3
 72
8
 73
4
 74
0
 40
0
 40
0
 40
0
 40
0
 40
1
 40
1
 40
1
 40
1
 10
504.767580
 20
86.064450
 30
0.0
 10
504.850280
 20
88.872730
 30
0.0
 10
503.973500
 20
91.598150
 30
0.0
 10
503.300780
 20
94.294920
 30
0.0
  0
SPLINE
  5
18e
100
AcDbEntity
  8
0
 62
1
100
AcDbSpline
 70
8
 71
3
 72
8
 73
4
 74
0
 40
0
 40
0
 40
0
 40
0
 40
1
 40
1
 40
1
 40
1
 10
503.300780
 20
94.294920
 30
0.0
 10
498.512470
 20
117.605890
 30
0.0
 10
493.669820
 20
140.915220
 30
0.0
 10
488.888670
 20
164.220700
 30
0.0
  0
SPLINE
  5
18f
100
AcDbEntity
  8
0
 62
1
100
AcDbSpline
 70
8
 71
3
 72
8
 73
4
 74
0
 40
0
 40
0
 40
0
 40
0
 40
1
 40
1
 40
1
 40
1
 10
488.888670
 20
164.220700
 30
0.0
 10
485.791450
 20
180.575450
 30
0.0
 10
483.062900
 20
197.040700
 30
0.0
 10
478.714850
 20
213.134760
 30
0.0
  0
SPLINE
  5
190
100
AcDbEntity
  8
0
 62
1
100
AcDbSpline
 70
8
 71
3
 72
8
 73
4
 74
0
 40
0
 40
0
 40
0
 40
0
 40
1
 40
1
 40
1
 40
1
 10
478.714850
 20
213.134760
 30
0.0
 10
476.375370
 20
221.643790
 30
0.0
 10
475.856210
 20
231.611970
 30
0.0
 10
468.669920
 20
237.765620
 30
0.0
  0
SPLINE
  5
191
100
AcDbEntity
  8
0
 62
1
100
AcDbSpline
 70
8
 71
3
 72
8
 73
4
 74
0
 40
0
 40
0
 40
0
 40
0
 40
1
 40
1
 40
1
 40
1
 10
468.669920
 20
237.765620
 30
0.0
 10
466.269840
 20
239.499090
 30
0.0
 10
463.532300
 20
240.287810
 30
0.0
 10
460.710940
 20
240.408200
 30
0.0
  0
LWPOLYLINE
  5
192
100
AcDbEntity
  8
0
 62
1
100
AcDbPolyline
 90
1
 70
1
 10
251.398440
 20
316.066360
 30
0.0
  0
SPLINE
  5
193
100
AcDbEntity
  8
0
 62
1
100
AcDbSpline
 70
8
 71
3
 72
8
 73
4
 74
0
 40
0
 40
0
 40
0
 40
0
 40
1
 40
1
 40
1
 40
1
 10
119.484380
 20
235.060540
 30
0.0
 10
110.556680
 20
235.394370
 30
0.0
 10
101.509280
 20
234.390290
 30
0.0
 10
92.835938
 20
232.787110
 30
0.0
  0
SPLINE
  5
194
100
AcDbEntity
  8
0
 62
1
100
AcDbSpline
 70
8
 71
3
 72
8
 73
4
 74
0
 40
0
 40
0
 40
0
 40
0
 40
1
 40
1
 40
1
 40
1
 10
92.835938
 20
232.787110
 30
0.0
 10
76.899865
 20
229.061610
 30
0.0
 10
59.888838
 20
223.635010
 30
0.0
 10
49.136719
 20
210.513670
 30
0.0
  0
SPLINE
  5
195
100
AcDbEntity
  8
0
 62
1
100
AcDbSpline
 70
8
 71
3
 72
8
 73
4
 74
0
 40
0
 40
0
 40
0
 40
0
 40
1
 40
1
 40
1
 40
1
 10
49.136719
 20
210.513670
 30
0.0
 10
34.966595
 20
192.014680
 30
0.0
 10
36.219338
 20
163.360630
 30
0.0
 10
52.074219
 20
146.228510
 30
0.0
  0
SPLINE
  5
196
100
AcDbEntity
  8
0
 62
1
100
AcDbSpline
 70
8
 71
3
 72
8
 73
4
 74
0
 40
0
 40
0
 40
0
 40
0
 40
1
 40
1
 40
1
 40
1
 10
52.074219
 20
146.228510
 30
0.0
 10
61.474892
 20
134.898750
 30
0.0
 10
77.091679
 20
131.985080
 30
0.0
 10
91.082032
 20
132.689450
 30
0.0
  0
SPLINE
  5
197
100
AcDbEntity
  8
0
 62
1
100
AcDbSpline
 70
8
 71
3
 72
8
 73
4
 74
0
 40
0
 40
0
 40
0
 40
0
 40
1
 40
1
 40
1
 40
1
 10
91.082032
 20
132.689450
 30
0.0
 10
107.565830
 20
132.736150
 30
0.0
 10
124.564750
 20
138.339690
 30
0.0
 10
140.636720
 20
132.427730
 30
0.0
  0
SPLINE
  5
198
100
AcDbEntity
  8
0
 62
1
100
AcDbSpline
 70
8
 71
3
 72
8
 73
4
 74
0
 40
0
 40
0
 40
0
 40
0
 40
1
 40
1
 40
1
 40
1
 10
140.636720
 20
132.427730
 30
0.0
 10
149.358620
 20
129.297110
 30
0.0
 10
154.004840
 20
119.941620
 30
0.0
 10
153.787110
 20
111.068360
 30
0.0
  0
SPLINE
  5
199
100
AcDbEntity
  8
0
 62
1
100
AcDbSpline
 70
8
 71
3
 72
8
 73
4
 74
0
 40
0
 40
0
 40
0
 40
0
 40
1
 40
1
 40
1
 40
1
 10
153.787110
 20
111.068360
 30
0.0
 10
153.242970
 20
97.305240
 30
0.0
 10
140.262930
 20
87.735830
 30
0.0
 10
127.919920
 20
84.560540
 30
0.0
  0
SPLINE
  5
19a
100
AcDbEntity
  8
0
 62
1
100
AcDbSpline
 70
8
 71
3
 72
8
 73
4
 74
0
 40
0
 40
0
 40
0
 40
0
 40
1
 40
1
 40
1
 40
1
 10
127.919920
 20
84.560540
 30
0.0
 10
114.702430
 20
80.288170
 30
0.0
 10
99.792178
 20
84.554540
 30
0.0
 10
90.019532
 20
94.177730
 30
0.0
  0
SPLINE
  5
19b
100
AcDbEntity
  8
0
 62
1
100
AcDbSpline
 70
8
 71
3
 72
8
 73
4
 74
0
 40
0
 40
0
 40
0
 40
0
 40
1
 40
1
 40
1
 40
1
 10
90.019532
 20
94.177730
 30
0.0
 10
85.570970
 20
101.446000
 30
0.0
 10
76.059421
 20
103.794170
 30
0.0
 10
68.253907
 20
101.177730
 30
0.0
  0
SPLINE
  5
19c
100
AcDbEntity
  8
0
 62
1
100
AcDbSpline
 70
8
 71
3
 72
8
 73
4
 74
0
 40
0
 40
0
 40
0
 40
0
 40
1
 40
1
 40
1
 40
1
 10
68.253907
 20
101.177730
 30
0.0
 10
59.421332
 20
99.647010
 30
0.0
 10
55.746363
 20
89.245170
 30
0.0
 10
58.289063
 20
81.439450
 30
0.0
  0
SPLINE
  5
19d
100
AcDbEntity
  8
0
 62
1
100
AcDbSpline
 70
8
 71
3
 72
8
 73
4
 74
0
 40
0
 40
0
 40
0
 40
0
 40
1
 40
1
 40
1
 40
1
 10
58.289063
 20
81.439450
 30
0.0
 10
61.686317
 20
73.168520
 30
0.0
 10
68.926319
 20
67.067650
 30
0.0
 10
75.912110
 20
61.775390
 30
0.0
  0
SPLINE
  5
19e
100
AcDbEntity
  8
0
 62
1
100
AcDbSpline
 70
8
 71
3
 72
8
 73
4
 74
0
 40
0
 40
0
 40
0
 40
0
 40
1
 40
1
 40
1
 40
1
 10
75.912110
 20
61.775390
 30
0.0
 10
92.927193
 20
50.123940
 30
0.0
 10
115.023360
 20
49.792490
 30
0.0
 10
134.363280
 20
54.914060
 30
0.0
  0
SPLINE
  5
19f
100
AcDbEntity
  8
0
 62
1
100
AcDbSpline
 70
8
 71
3
 72
8
 73
4
 74
0
 40
0
 40
0
 40
0
 40
0
 40
1
 40
1
 40
1
 40
1
 10
134.363280
 20
54.914060
 30
0.0
 10
154.174920
 20
60.437880
 30
0.0
 10
173.597500
 20
71.967710
 30
0.0
 10
183.876960
 20
90.318360
 30
0.0
  0
SPLINE
  5
1a0
100
AcDbEntity
  8
0
 62
1
100
AcDbSpline
 70
8
 71
3
 72
8
 73
4
 74
0
 40
0
 40
0
 40
0
 40
0
 40
1
 40
1
 40
1
 40
1
 10
183.876960
 20
90.318360
 30
0.0
 10
191.897910
 20
105.809360
 30
0.0
 10
189.918570
 20
124.941140
 30
0.0
 10
182.271490
 20
140.173830
 30
0.0
  0
SPLINE
  5
1a1
100
AcDbEntity
  8
0
 62
1
100
AcDbSpline
 70
8
 71
3
 72
8
 73
4
 74
0
 40
0
 40
0
 40
0
 40
0
 40
1
 40
1
 40
1
 40
1
 10
182.271490
 20
140.173830
 30
0.0
 10
175.380820
 20
153.409290
 30
0.0
 10
161.331110
 20
161.481890
 30
0.0
 10
146.914070
 20
163.761720
 30
0.0
  0
SPLINE
  5
1a2
100
AcDbEntity
  8
0
 62
1
100
AcDbSpline
 70
8
 71
3
 72
8
 73
4
 74
0
 40
0
 40
0
 40
0
 40
0
 40
1
 40
1
 40
1
 40
1
 10
146.914070
 20
163.761720
 30
0.0
 10
134.083110
 20
166.766880
 30
0.0
 10
121.065750
 20
164.033100
 30
0.0
 10
108.218750
 20
162.869140
 30
0.0
  0
SPLINE
  5
1a3
100
AcDbEntity
  8
0
 62
1
100
AcDbSpline
 70
8
 71
3
 72
8
 73
4
 74
0
 40
0
 40
0
 40
0
 40
0
 40
1
 40
1
 40
1
 40
1
 10
108.218750
 20
162.869140
 30
0.0
 10
97.976886
 20
162.094330
 30
0.0
 10
85.808652
 20
159.851800
 30
0.0
 10
77.404297
 20
167.300780
 30
0.0
  0
SPLINE
  5
1a4
100
AcDbEntity
  8
0
 62
1
100
AcDbSpline
 70
8
 71
3
 72
8
 73
4
 74
0
 40
0
 40
0
 40
0
 40
0
 40
1
 40
1
 40
1
 40
1
 10
77.404297
 20
167.300780
 30
0.0
 10
71.526120
 20
174.165750
 30
0.0
 10
71.918192
 20
185.073140
 30
0.0
 10
77.460937
 20
192.060540
 30
0.0
  0
SPLINE
  5
1a5
100
AcDbEntity
  8
0
 62
1
100
AcDbSpline
 70
8
 71
3
 72
8
 73
4
 74
0
 40
0
 40
0
 40
0
 40
0
 40
1
 40
1
 40
1
 40
1
 10
77.460937
 20
192.060540
 30
0.0
 10
87.555235
 20
203.391380
 30
0.0
 10
103.882530
 20
206.321280
 30
0.0
 10
118.400390
 20
205.722650
 30
0.0
  0
SPLINE
  5
1a6
100
AcDbEntity
  8
0
 62
1
100
AcDbSpline
 70
8
 71
3
 72
8
 73
4
 74
0
 40
0
 40
0
 40
0
 40
0
 40
1
 40
1
 40
1
 40
1
 10
118.400390
 20
205.722650
 30
0.0
 10
128.905540
 20
205.766950
 30
0.0
 10
137.104580
 20
198.522460
 30
0.0
 10
146.712890
 20
195.552730
 30
0.0
  0
SPLINE
  5
1a7
100
AcDbEntity
  8
0
 62
1
100
AcDbSpline
 70
8
 71
3
 72
8
 73
4
 74
0
 40
0
 40
0
 40
0
 40
0
 40
1
 40
1
 40
1
 40
1
 10
146.712890
 20
195.552730
 30
0.0
 10
154.297210
 20
192.982630
 30
0.0
 10
163.446070
 20
199.080720
 30
0.0
 10
163.654300
 20
207.093750
 30
0.0
  0
SPLINE
  5
1a8
100
AcDbEntity
  8
0
 62
1
100
AcDbSpline
 70
8
 71
3
 72
8
 73
4
 74
0
 40
0
 40
0
 40
0
 40
0
 40
1
 40
1
 40
1
 40
1
 10
163.654300
 20
207.093750
 30
0.0
 10
162.800110
 20
217.336770
 30
0.0
 10
153.897800
 20
224.742640
 30
0.0
 10
145.416020
 20
229.300780
 30
0.0
  0
SPLINE
  5
1a9
100
AcDbEntity
  8
0
 62
1
100
AcDbSpline
 70
8
 71
3
 72
8
 73
4
 74
0
 40
0
 40
0
 40
0
 40
0
 40
1
 40
1
 40
1
 40
1
 10
145.416020
 20
229.300780
 30
0.0
 10
137.219930
 20
233.053670
 30
0.0
 10
128.412070
 20
234.726720
 30
0.0
 10
119.484380
 20
235.060540
 30
0.0
  0
LWPOLYLINE
  5
1aa
100
AcDbEntity
  8
0
 62
1
100
AcDbPolyline
 90
1
 70
1
 10
460.710940
 20
240.408200
 30
0.0
  0
SPLINE
  5
1ab
100
AcDbEntity
  8
0
 62
1
100
AcDbSpline
 70
8
 71
3
 72
8
 73
4
 74
0
 40
0
 40
0
 40
0
 40
0
 40
1
 40
1
 40
1
 40
1
 10
255.542970
 20
216.275390
 30
0.0
 10
242.722410
 20
216.377880
 30
0.0
 10
230.359070
 20
210.769230
 30
0.0
 10
220.921880
 20
202.281250
 30
0.0
  0
SPLINE
  5
1ac
100
AcDbEntity
  8
0
 62
1
100
AcDbSpline
 70
8
 71
3
 72
8
 73
4
 74
0
 40
0
 40
0
 40
0
 40
0
 40
1
 40
1
 40
1
 40
1
 10
220.921880
 20
202.281250
 30
0.0
 10
212.087310
 20
193.718560
 30
0.0
 10
206.383330
 20
182.411700
 30
0.0
 10
202.636720
 20
170.804690
 30
0.0
  0
SPLINE
  5
1ad
100
AcDbEntity
  8
0
 62
1
100
AcDbSpline
 70
8
 71
3
 72
8
 73
4
 74
0
 40
0
 40
0
 40
0
 40
0
 40
1
 40
1
 40
1
 40
1
 10
202.636720
 20
170.804690
 30
0.0
 10
199.812740
 20
161.414270
 30
0.0
 10
197.773050
 20
151.446910
 30
0.0
 10
199.097660
 20
141.617190
 30
0.0
  0
SPLINE
  5
1ae
100
AcDbEntity
  8
0
 62
1
100
AcDbSpline
 70
8
 71
3
 72
8
 73
4
 74
0
 40
0
 40
0
 40
0
 40
0
 40
1
 40
1
 40
1
 40
1
 10
199.097660
 20
141.617190
 30
0.0
 10
199.971540
 20
130.942140
 30
0.0
 10
204.850000
 20
120.556140
 30
0.0
 10
213.072270
 20
113.572260
 30
0.0
  0
SPLINE
  5
1af
100
AcDbEntity
  8
0
 62
1
100
AcDbSpline
 70
8
 71
3
 72
8
 73
4
 74
0
 40
0
 40
0
 40
0
 40
0
 40
1
 40
1
 40
1
 40
1
 10
213.072270
 20
113.572260
 30
0.0
 10
219.216480
 20
108.521320
 30
0.0
 10
226.242090
 20
104.482100
 30
0.0
 10
233.679690
 20
101.648430
 30
0.0
  0
SPLINE
  5
1b0
100
AcDbEntity
  8
0
 62
1
100
AcDbSpline
 70
8
 71
3
 72
8
 73
4
 74
0
 40
0
 40
0
 40
0
 40
0
 40
1
 40
1
 40
1
 40
1
 10
233.679690
 20
101.648430
 30
0.0
 10
244.372580
 20
97.272890
 30
0.0
 10
255.910410
 20
95.045580
 30
0.0
 10
267.455080
 20
95.113280
 30
0.0
  0
SPLINE
  5
1b1
100
AcDbEntity
  8
0
 62
1
100
AcDbSpline
 70
8
 71
3
 72
8
 73
4
 74
0
 40
0
 40
0
 40
0
 40
0
 40
1
 40
1
 40
1
 40
1
 10
267.455080
 20
95.113280
 30
0.0
 10
274.597780
 20
95.471100
 30
0.0
 10
282.228830
 20
95.581450
 30
0.0
 10
288.576170
 20
99.326170
 30
0.0
  0
SPLINE
  5
1b2
100
AcDbEntity
  8
0
 62
1
100
AcDbSpline
 70
8
 71
3
 72
8
 73
4
 74
0
 40
0
 40
0
 40
0
 40
0
 40
1
 40
1
 40
1
 40
1
 10
288.576170
 20
99.326170
 30
0.0
 10
294.341040
 20
102.058640
 30
0.0
 10
299.246700
 20
108.527310
 30
0.0
 10
297.210940
 20
115.130860
 30
0.0
  0
SPLINE
  5
1b3
100
AcDbEntity
  8
0
 62
1
100
AcDbSpline
 70
8
 71
3
 72
8
 73
4
 74
0
 40
0
 40
0
 40
0
 40
0
 40
1
 40
1
 40
1
 40
1
 10
297.210940
 20
115.130860
 30
0.0
 10
295.665620
 20
121.323400
 30
0.0
 10
288.528080
 20
122.852740
 30
0.0
 10
283.023440
 20
123.058590
 30
0.0
  0
SPLINE
  5
1b4
100
AcDbEntity
  8
0
 62
1
100
AcDbSpline
 70
8
 71
3
 72
8
 73
4
 74
0
 40
0
 40
0
 40
0
 40
0
 40
1
 40
1
 40
1
 40
1
 10
283.023440
 20
123.058590
 30
0.0
 10
279.072720
 20
123.283330
 30
0.0
 10
275.102190
 20
122.783230
 30
0.0
 10
271.142580
 20
122.945310
 30
0.0
  0
SPLINE
  5
1b5
100
AcDbEntity
  8
0
 62
1
100
AcDbSpline
 70
8
 71
3
 72
8
 73
4
 74
0
 40
0
 40
0
 40
0
 40
0
 40
1
 40
1
 40
1
 40
1
 10
271.142580
 20
122.945310
 30
0.0
 10
263.758260
 20
122.759010
 30
0.0
 10
256.369350
 20
123.633790
 30
0.0
 10
249.322270
 20
125.906250
 30
0.0
  0
SPLINE
  5
1b6
100
AcDbEntity
  8
0
 62
1
100
AcDbSpline
 70
8
 71
3
 72
8
 73
4
 74
0
 40
0
 40
0
 40
0
 40
0
 40
1
 40
1
 40
1
 40
1
 10
249.322270
 20
125.906250
 30
0.0
 10
241.151900
 20
128.824850
 30
0.0
 10
232.178330
 20
133.127920
 30
0.0
 10
228.632810
 20
141.611330
 30
0.0
  0
SPLINE
  5
1b7
100
AcDbEntity
  8
0
 62
1
100
AcDbSpline
 70
8
 71
3
 72
8
 73
4
 74
0
 40
0
 40
0
 40
0
 40
0
 40
1
 40
1
 40
1
 40
1
 10
228.632810
 20
141.611330
 30
0.0
 10
227.282180
 20
144.879880
 30
0.0
 10
226.896390
 20
149.626200
 30
0.0
 10
229.712890
 20
152.126950
 30
0.0
  0
SPLINE
  5
1b8
100
AcDbEntity
  8
0
 62
1
100
AcDbSpline
 70
8
 71
3
 72
8
 73
4
 74
0
 40
0
 40
0
 40
0
 40
0
 40
1
 40
1
 40
1
 40
1
 10
229.712890
 20
152.126950
 30
0.0
 10
236.493900
 20
150.064880
 30
0.0
 10
243.306680
 20
148.010690
 30
0.0
 10
250.095710
 20
145.925780
 30
0.0
  0
SPLINE
  5
1b9
100
AcDbEntity
  8
0
 62
1
100
AcDbSpline
 70
8
 71
3
 72
8
 73
4
 74
0
 40
0
 40
0
 40
0
 40
0
 40
1
 40
1
 40
1
 40
1
 10
250.095710
 20
145.925780
 30
0.0
 10
262.325910
 20
142.396690
 30
0.0
 10
274.647790
 20
139.154890
 30
0.0
 10
287.125000
 20
136.613280
 30
0.0
  0
SPLINE
  5
1ba
100
AcDbEntity
  8
0
 62
1
100
AcDbSpline
 70
8
 71
3
 72
8
 73
4
 74
0
 40
0
 40
0
 40
0
 40
0
 40
1
 40
1
 40
1
 40
1
 10
287.125000
 20
136.613280
 30
0.0
 10
293.377010
 20
135.420630
 30
0.0
 10
300.897260
 20
135.659860
 30
0.0
 10
305.283210
 20
140.972650
 30
0.0
  0
SPLINE
  5
1bb
100
AcDbEntity
  8
0
 62
1
100
AcDbSpline
 70
8
 71
3
 72
8
 73
4
 74
0
 40
0
 40
0
 40
0
 40
0
 40
1
 40
1
 40
1
 40
1
 10
305.283210
 20
140.972650
 30
0.0
 10
310.596760
 20
146.448670
 30
0.0
 10
312.371420
 20
154.231670
 30
0.0
 10
313.316410
 20
161.554690
 30
0.0
  0
SPLINE
  5
1bc
100
AcDbEntity
  8
0
 62
1
100
AcDbSpline
 70
8
 71
3
 72
8
 73
4
 74
0
 40
0
 40
0
 40
0
 40
0
 40
1
 40
1
 40
1
 40
1
 10
313.316410
 20
161.554690
 30
0.0
 10
314.608170
 20
169.608490
 30
0.0
 10
312.677610
 20
177.859530
 30
0.0
 10
309.042970
 20
185.056640
 30
0.0
  0
SPLINE
  5
1bd
100
AcDbEntity
  8
0
 62
1
100
AcDbSpline
 70
8
 71
3
 72
8
 73
4
 74
0
 40
0
 40
0
 40
0
 40
0
 40
1
 40
1
 40
1
 40
1
 10
309.042970
 20
185.056640
 30
0.0
 10
304.029450
 20
194.891720
 30
0.0
 10
295.606340
 20
202.488610
 30
0.0
 10
286.244140
 20
208.111330
 30
0.0
  0
SPLINE
  5
1be
100
AcDbEntity
  8
0
 62
1
100
AcDbSpline
 70
8
 71
3
 72
8
 73
4
 74
0
 40
0
 40
0
 40
0
 40
0
 40
1
 40
1
 40
1
 40
1
 10
286.244140
 20
208.111330
 30
0.0
 10
276.904920
 20
213.239240
 30
0.0
 10
266.245870
 20
216.404010
 30
0.0
 10
255.542970
 20
216.275390
 30
0.0
  0
LWPOLYLINE
  5
1bf
100
AcDbEntity
  8
0
 62
1
100
AcDbPolyline
 90
1
 70
1
 10
119.484380
 20
235.060540
 30
0.0
  0
SPLINE
  5
1c0
100
AcDbEntity
  8
0
 62
1
100
AcDbSpline
 70
8
 71
3
 72
8
 73
4
 74
0
 40
0
 40
0
 40
0
 40
0
 40
1
 40
1
 40
1
 40
1
 10
382.119140
 20
194.152340
 30
0.0
 10
367.439500
 20
194.385860
 30
0.0
 10
353.108570
 20
187.734850
 30
0.0
 10
343.398440
 20
176.794920
 30
0.0
  0
SPLINE
  5
1c1
100
AcDbEntity
  8
0
 62
1
100
AcDbSpline
 70
8
 71
3
 72
8
 73
4
 74
0
 40
0
 40
0
 40
0
 40
0
 40
1
 40
1
 40
1
 40
1
 10
343.398440
 20
176.794920
 30
0.0
 10
330.481340
 20
162.570290
 30
0.0
 10
321.238970
 20
142.935130
 30
0.0
 10
324.917970
 20
123.400390
 30
0.0
  0
SPLINE
  5
1c2
100
AcDbEntity
  8
0
 62
1
100
AcDbSpline
 70
8
 71
3
 72
8
 73
4
 74
0
 40
0
 40
0
 40
0
 40
0
 40
1
 40
1
 40
1
 40
1
 10
324.917970
 20
123.400390
 30
0.0
 10
326.448300
 20
113.177590
 30
0.0
 10
332.340070
 20
104.004970
 30
0.0
 10
340.722660
 20
98.033200
 30
0.0
  0
SPLINE
  5
1c3
100
AcDbEntity
  8
0
 62
1
100
AcDbSpline
 70
8
 71
3
 72
8
 73
4
 74
0
 40
0
 40
0
 40
0
 40
0
 40
1
 40
1
 40
1
 40
1
 10
340.722660
 20
98.033200
 30
0.0
 10
347.241360
 20
92.673860
 30
0.0
 10
354.675520
 20
88.438800
 30
0.0
 10
362.593750
 20
85.517580
 30
0.0
  0
SPLINE
  5
1c4
100
AcDbEntity
  8
0
 62
1
100
AcDbSpline
 70
8
 71
3
 72
8
 73
4
 74
0
 40
0
 40
0
 40
0
 40
0
 40
1
 40
1
 40
1
 40
1
 10
362.593750
 20
85.517580
 30
0.0
 10
362.921450
 20
78.857770
 30
0.0
 10
361.748710
 20
71.996920
 30
0.0
 10
363.632810
 20
65.521480
 30
0.0
  0
SPLINE
  5
1c5
100
AcDbEntity
  8
0
 62
1
100
AcDbSpline
 70
8
 71
3
 72
8
 73
4
 74
0
 40
0
 40
0
 40
0
 40
0
 40
1
 40
1
 40
1
 40
1
 10
363.632810
 20
65.521480
 30
0.0
 10
365.955400
 20
58.861640
 30
0.0
 10
372.718200
 20
54.090370
 30
0.0
 10
379.781250
 20
54.203120
 30
0.0
  0
LWPOLYLINE
  5
1c6
100
AcDbEntity
  8
0
 62
1
100
AcDbPolyline
 90
1
 70
1
 10
255.542970
 20
216.275390
 30
0.0
  0
SPLINE
  5
1c7
100
AcDbEntity
  8
0
 62
1
100
AcDbSpline
 70
8
 71
3
 72
8
 73
4
 74
0
 40
0
 40
0
 40
0
 40
0
 40
1
 40
1
 40
1
 40
1
 10
379.781250
 20
81.718750
 30
0.0
 10
387.474530
 20
81.410380
 30
0.0
 10
394.768310
 20
84.189160
 30
0.0
 10
401.638670
 20
87.332030
 30
0.0
  0
SPLINE
  5
1c8
100
AcDbEntity
  8
0
 62
1
100
AcDbSpline
 70
8
 71
3
 72
8
 73
4
 74
0
 40
0
 40
0
 40
0
 40
0
 40
1
 40
1
 40
1
 40
1
 10
401.638670
 20
87.332030
 30
0.0
 10
403.398030
 20
83.130640
 30
0.0
 10
403.363850
 20
77.157180
 30
0.0
 10
405.794920
 20
72.660150
 30
0.0
  0
SPLINE
  5
1c9
100
AcDbEntity
  8
0
 62
1
100
AcDbSpline
 70
8
 71
3
 72
8
 73
4
 74
0
 40
0
 40
0
 40
0
 40
0
 40
1
 40
1
 40
1
 40
1
 10
405.794920
 20
72.660150
 30
0.0
 10
405.492010
 20
68.765430
 30
0.0
 10
397.480160
 20
66.244900
 30
0.0
 10
395.998050
 20
61.210930
 30
0.0
  0
SPLINE
  5
1ca
100
AcDbEntity
  8
0
 62
1
100
AcDbSpline
 70
8
 71
3
 72
8
 73
4
 74
0
 40
0
 40
0
 40
0
 40
0
 40
1
 40
1
 40
1
 40
1
 10
395.998050
 20
61.210930
 30
0.0
 10
394.638110
 20
58.354780
 30
0.0
 10
390.498550
 20
50.840380
 30
0.0
 10
394.267580
 20
49.890620
 30
0.0
  0
SPLINE
  5
1cb
100
AcDbEntity
  8
0
 62
1
100
AcDbSpline
 70
8
 71
3
 72
8
 73
4
 74
0
 40
0
 40
0
 40
0
 40
0
 40
1
 40
1
 40
1
 40
1
 10
394.267580
 20
49.890620
 30
0.0
 10
400.426420
 20
50.100770
 30
0.0
 10
406.667560
 20
49.425520
 30
0.0
 10
412.763670
 20
50.316400
 30
0.0
  0
SPLINE
  5
1cc
100
AcDbEntity
  8
0
 62
1
100
AcDbSpline
 70
8
 71
3
 72
8
 73
4
 74
0
 40
0
 40
0
 40
0
 40
0
 40
1
 40
1
 40
1
 40
1
 10
412.763670
 20
50.316400
 30
0.0
 10
417.016600
 20
50.521170
 30
0.0
 10
422.754900
 20
56.432680
 30
0.0
 10
423.003910
 20
57.708980
 30
0.0
  0
SPLINE
  5
1cd
100
AcDbEntity
  8
0
 62
1
100
AcDbSpline
 70
8
 71
3
 72
8
 73
4
 74
0
 40
0
 40
0
 40
0
 40
0
 40
1
 40
1
 40
1
 40
1
 10
423.003910
 20
57.708980
 30
0.0
 10
425.840100
 20
51.611690
 30
0.0
 10
433.390370
 20
49.404010
 30
0.0
 10
439.714850
 20
49.890620
 30
0.0
  0
LWPOLYLINE
  5
1ce
100
AcDbEntity
  8
0
 62
1
100
AcDbPolyline
 90
2
 70
0
 10
379.781250
 20
54.203120
 30
0.0
 10
379.781250
 20
81.718750
 30
0.0
  0
SPLINE
  5
1cf
100
AcDbEntity
  8
0
 62
1
100
AcDbSpline
 70
8
 71
3
 72
8
 73
4
 74
0
 40
0
 40
0
 40
0
 40
0
 40
1
 40
1
 40
1
 40
1
 10
453.093750
 20
49.890620
 30
0.0
 10
452.956090
 20
61.793380
 30
0.0
 10
442.932680
 20
71.573290
 30
0.0
 10
431.906250
 20
74.533200
 30
0.0
  0
SPLINE
  5
1d0
100
AcDbEntity
  8
0
 62
1
100
AcDbSpline
 70
8
 71
3
 72
8
 73
4
 74
0
 40
0
 40
0
 40
0
 40
0
 40
1
 40
1
 40
1
 40
1
 10
431.906250
 20
74.533200
 30
0.0
 10
435.863730
 20
91.429480
 30
0.0
 10
430.495580
 20
109.140290
 30
0.0
 10
435.281250
 20
125.939450
 30
0.0
  0
SPLINE
  5
1d1
100
AcDbEntity
  8
0
 62
1
100
AcDbSpline
 70
8
 71
3
 72
8
 73
4
 74
0
 40
0
 40
0
 40
0
 40
0
 40
1
 40
1
 40
1
 40
1
 10
435.281250
 20
125.939450
 30
0.0
 10
439.192930
 20
140.079910
 30
0.0
 10
438.528660
 20
156.041450
 30
0.0
 10
430.466800
 20
168.660150
 30
0.0
  0
SPLINE
  5
1d2
100
AcDbEntity
  8
0
 62
1
100
AcDbSpline
 70
8
 71
3
 72
8
 73
4
 74
0
 40
0
 40
0
 40
0
 40
0
 40
1
 40
1
 40
1
 40
1
 10
430.466800
 20
168.660150
 30
0.0
 10
420.829500
 20
184.813400
 30
0.0
 10
402.013010
 20
193.799630
 30
0.0
 10
383.546880
 20
194.109370
 30
0.0
  0
LWPOLYLINE
  5
1d3
100
AcDbEntity
  8
0
 62
1
100
AcDbPolyline
 90
2
 70
0
 10
439.714850
 20
49.890620
 30
0.0
 10
453.093750
 20
49.890620
 30
0.0
  0
SPLINE
  5
1d4
100
AcDbEntity
  8
0
 62
1
100
AcDbSpline
 70
8
 71
3
 72
8
 73
4
 74
0
 40
0
 40
0
 40
0
 40
0
 40
1
 40
1
 40
1
 40
1
 10
259.177740
 20
189.154290
 30
0.0
 10
262.674770
 20
189.305960
 30
0.0
 10
266.212320
 20
188.852900
 30
0.0
 10
269.488280
 20
187.906250
 30
0.0
  0
SPLINE
  5
1d5
100
AcDbEntity
  8
0
 62
1
100
AcDbSpline
 70
8
 71
3
 72
8
 73
4
 74
0
 40
0
 40
0
 40
0
 40
0
 40
1
 40
1
 40
1
 40
1
 10
269.488280
 20
187.906250
 30
0.0
 10
276.412850
 20
186.614400
 30
0.0
 10
280.980530
 20
180.611040
 30
0.0
 10
284.025390
 20
174.710930
 30
0.0
  0
SPLINE
  5
1d6
100
AcDbEntity
  8
0
 62
1
100
AcDbSpline
 70
8
 71
3
 72
8
 73
4
 74
0
 40
0
 40
0
 40
0
 40
0
 40
1
 40
1
 40
1
 40
1
 10
284.025390
 20
174.710930
 30
0.0
 10
285.018200
 20
172.991610
 30
0.0
 10
285.792320
 20
171.141100
 30
0.0
 10
286.228520
 20
169.201170
 30
0.0
  0
SPLINE
  5
1d7
100
AcDbEntity
  8
0
 62
1
100
AcDbSpline
 70
8
 71
3
 72
8
 73
4
 74
0
 40
0
 40
0
 40
0
 40
0
 40
1
 40
1
 40
1
 40
1
 10
286.228520
 20
169.201170
 30
0.0
 10
286.532940
 20
167.004900
 30
0.0
 10
288.043220
 20
161.436380
 30
0.0
 10
284.300780
 20
162.185540
 30
0.0
  0
SPLINE
  5
1d8
100
AcDbEntity
  8
0
 62
1
100
AcDbSpline
 70
8
 71
3
 72
8
 73
4
 74
0
 40
0
 40
0
 40
0
 40
0
 40
1
 40
1
 40
1
 40
1
 10
284.300780
 20
162.185540
 30
0.0
 10
271.679840
 20
165.656040
 30
0.0
 10
259.049980
 20
169.072230
 30
0.0
 10
246.441410
 20
172.601560
 30
0.0
  0
SPLINE
  5
1d9
100
AcDbEntity
  8
0
 62
1
100
AcDbSpline
 70
8
 71
3
 72
8
 73
4
 74
0
 40
0
 40
0
 40
0
 40
0
 40
1
 40
1
 40
1
 40
1
 10
246.441410
 20
172.601560
 30
0.0
 10
243.478330
 20
173.748510
 30
0.0
 10
239.795000
 20
173.578840
 30
0.0
 10
237.359380
 20
175.710930
 30
0.0
  0
SPLINE
  5
1da
100
AcDbEntity
  8
0
 62
1
100
AcDbSpline
 70
8
 71
3
 72
8
 73
4
 74
0
 40
0
 40
0
 40
0
 40
0
 40
1
 40
1
 40
1
 40
1
 10
237.359380
 20
175.710930
 30
0.0
 10
238.364280
 20
178.740270
 30
0.0
 10
241.034520
 20
180.845940
 30
0.0
 10
243.419920
 20
182.822260
 30
0.0
  0
SPLINE
  5
1db
100
AcDbEntity
  8
0
 62
1
100
AcDbSpline
 70
8
 71
3
 72
8
 73
4
 74
0
 40
0
 40
0
 40
0
 40
0
 40
1
 40
1
 40
1
 40
1
 10
243.419920
 20
182.822260
 30
0.0
 10
247.632570
 20
186.966290
 30
0.0
 10
253.349350
 20
188.901520
 30
0.0
 10
259.177740
 20
189.154290
 30
0.0
  0
LWPOLYLINE
  5
1dc
100
AcDbEntity
  8
0
 62
1
100
AcDbPolyline
 90
2
 70
0
 10
383.546880
 20
194.109370
 30
0.0
 10
382.119140
 20
194.152340
 30
0.0
  0
SPLINE
  5
1dd
100
AcDbEntity
  8
0
 62
1
100
AcDbSpline
 70
8
 71
3
 72
8
 73
4
 74
0
 40
0
 40
0
 40
0
 40
0
 40
1
 40
1
 40
1
 40
1
 10
380.406250
 20
165.593750
 30
0.0
 10
391.720620
 20
165.647450
 30
0.0
 10
404.714040
 20
159.667700
 30
0.0
 10
407.623050
 20
147.845700
 30
0.0
  0
SPLINE
  5
1de
100
AcDbEntity
  8
0
 62
1
100
AcDbSpline
 70
8
 71
3
 72
8
 73
4
 74
0
 40
0
 40
0
 40
0
 40
0
 40
1
 40
1
 40
1
 40
1
 10
407.623050
 20
147.845700
 30
0.0
 10
410.618410
 20
132.007650
 30
0.0
 10
399.327870
 20
114.627810
 30
0.0
 10
383.533210
 20
111.216790
 30
0.0
  0
SPLINE
  5
1df
100
AcDbEntity
  8
0
 62
1
100
AcDbSpline
 70
8
 71
3
 72
8
 73
4
 74
0
 40
0
 40
0
 40
0
 40
0
 40
1
 40
1
 40
1
 40
1
 10
383.533210
 20
111.216790
 30
0.0
 10
373.832530
 20
109.019500
 30
0.0
 10
364.934240
 20
115.656990
 30
0.0
 10
358.634770
 20
122.296870
 30
0.0
  0
SPLINE
  5
1e0
100
AcDbEntity
  8
0
 62
1
100
AcDbSpline
 70
8
 71
3
 72
8
 73
4
 74
0
 40
0
 40
0
 40
0
 40
0
 40
1
 40
1
 40
1
 40
1
 10
358.634770
 20
122.296870
 30
0.0
 10
351.631160
 20
129.544650
 30
0.0
 10
353.739950
 20
140.843740
 30
0.0
 10
357.460940
 20
149.162110
 30
0.0
  0
SPLINE
  5
1e1
100
AcDbEntity
  8
0
 62
1
100
AcDbSpline
 70
8
 71
3
 72
8
 73
4
 74
0
 40
0
 40
0
 40
0
 40
0
 40
1
 40
1
 40
1
 40
1
 10
357.460940
 20
149.162110
 30
0.0
 10
361.637070
 20
157.917220
 30
0.0
 10
370.344980
 20
165.403880
 30
0.0
 10
380.406250
 20
165.593750
 30
0.0
  0
LWPOLYLINE
  5
1e2
100
AcDbEntity
  8
0
 62
1
100
AcDbPolyline
 90
1
 70
1
 10
259.177740
 20
189.154290
 30
0.0
  0
LWPOLYLINE
  5
1e3
100
AcDbEntity
  8
0
 62
1
100
AcDbPolyline
 90
1
 70
1
 10
380.406250
 20
165.593750
 30
0.0
  0
SPLINE
  5
1e4
100
AcDbEntity
  8
0
 62
7
100
AcDbSpline
 70
8
 71
3
 72
8
 73
4
 74
0
 40
0
 40
0
 40
0
 40
0
 40
1
 40
1
 40
1
 40
1
 10
450.830080
 20
491.558593
 30
0.0
 10
444.402080
 20
480.289393
 30
0.0
 10
440.753170
 20
473.307365
 30
0.0
 10
433.826170
 20
462.447265
 30
0.0
  0
SPLINE
  5
1e5
100
AcDbEntity
  8
0
 62
7
100
AcDbSpline
 70
8
 71
3
 72
8
 73
4
 74
0
 40
0
 40
0
 40
0
 40
0
 40
1
 40
1
 40
1
 40
1
 10
433.826170
 20
462.447265
 30
0.0
 10
436.679170
 20
458.493765
 30
0.0
 10
440.219660
 20
453.858440
 30
0.0
 10
446.222660
 20
448.369140
 30
0.0
  0
SPLINE
  5
1e6
100
AcDbEntity
  8
0
 62
7
100
AcDbSpline
 70
8
 71
3
 72
8
 73
4
 74
0
 40
0
 40
0
 40
0
 40
0
 40
1
 40
1
 40
1
 40
1
 10
446.222660
 20
448.369140
 30
0.0
 10
439.495660
 20
452.242340
 30
0.0
 10
435.032830
 20
455.813596
 30
0.0
 10
431.798830
 20
459.341796
 30
0.0
  0
SPLINE
  5
1e7
100
AcDbEntity
  8
0
 62
7
100
AcDbSpline
 70
8
 71
3
 72
8
 73
4
 74
0
 40
0
 40
0
 40
0
 40
0
 40
1
 40
1
 40
1
 40
1
 10
431.798830
 20
459.341796
 30
0.0
 10
422.974830
 20
445.780096
 30
0.0
 10
409.416940
 20
426.631865
 30
0.0
 10
382.210940
 20
389.947260
 30
0.0
  0
SPLINE
  5
1e8
100
AcDbEntity
  8
0
 62
7
100
AcDbSpline
 70
8
 71
3
 72
8
 73
4
 74
0
 40
0
 40
0
 40
0
 40
0
 40
1
 40
1
 40
1
 40
1
 10
382.210940
 20
389.947260
 30
0.0
 10
400.839940
 20
397.671260
 30
0.0
 10
415.051240
 20
402.073010
 30
0.0
 10
427.865240
 20
402.791010
 30
0.0
  0
SPLINE
  5
1e9
100
AcDbEntity
  8
0
 62
7
100
AcDbSpline
 70
8
 71
3
 72
8
 73
4
 74
0
 40
0
 40
0
 40
0
 40
0
 40
1
 40
1
 40
1
 40
1
 10
427.865240
 20
402.791010
 30
0.0
 10
427.643240
 20
405.164010
 30
0.0
 10
427.652630
 20
407.692450
 30
0.0
 10
428.015630
 20
410.314450
 30
0.0
  0
LWPOLYLINE
  5
1ea
100
AcDbEntity
  8
0
 62
7
100
AcDbPolyline
 90
2
 70
0
 10
451.121100
 20
492.000000
 30
0.0
 10
450.830080
 20
491.558593
 30
0.0
  0
SPLINE
  5
1eb
100
AcDbEntity
  8
0
 62
7
100
AcDbSpline
 70
8
 71
3
 72
8
 73
4
 74
0
 40
0
 40
0
 40
0
 40
0
 40
1
 40
1
 40
1
 40
1
 10
428.103530
 20
410.853510
 30
0.0
 10
429.840530
 20
421.919215
 30
0.0
 10
436.722530
 20
429.678124
 30
0.0
 10
443.478530
 20
428.203124
 30
0.0
  0
SPLINE
  5
1ec
100
AcDbEntity
  8
0
 62
7
100
AcDbSpline
 70
8
 71
3
 72
8
 73
4
 74
0
 40
0
 40
0
 40
0
 40
0
 40
1
 40
1
 40
1
 40
1
 10
443.478530
 20
428.203124
 30
0.0
 10
450.235530
 20
426.728125
 30
0.0
 10
454.309810
 20
416.574165
 30
0.0
 10
452.591810
 20
405.509760
 30
0.0
  0
SPLINE
  5
1ed
100
AcDbEntity
  8
0
 62
7
100
AcDbSpline
 70
8
 71
3
 72
8
 73
4
 74
0
 40
0
 40
0
 40
0
 40
0
 40
1
 40
1
 40
1
 40
1
 10
452.591810
 20
405.509760
 30
0.0
 10
452.261810
 20
403.439760
 30
0.0
 10
451.760580
 20
401.469390
 30
0.0
 10
451.101580
 20
399.650390
 30
0.0
  0
SPLINE
  5
1ee
100
AcDbEntity
  8
0
 62
7
100
AcDbSpline
 70
8
 71
3
 72
8
 73
4
 74
0
 40
0
 40
0
 40
0
 40
0
 40
1
 40
1
 40
1
 40
1
 10
451.101580
 20
399.650390
 30
0.0
 10
463.159570
 20
395.612390
 30
0.0
 10
475.622400
 20
387.732950
 30
0.0
 10
491.400400
 20
375.626950
 30
0.0
  0
SPLINE
  5
1ef
100
AcDbEntity
  8
0
 62
7
100
AcDbSpline
 70
8
 71
3
 72
8
 73
4
 74
0
 40
0
 40
0
 40
0
 40
0
 40
1
 40
1
 40
1
 40
1
 10
491.400400
 20
375.626950
 30
0.0
 10
488.842400
 20
382.265950
 30
0.0
 10
486.583450
 20
388.255220
 30
0.0
 10
484.398450
 20
393.949220
 30
0.0
  0
SPLINE
  5
1f0
100
AcDbEntity
  8
0
 62
7
100
AcDbSpline
 70
8
 71
3
 72
8
 73
4
 74
0
 40
0
 40
0
 40
0
 40
0
 40
1
 40
1
 40
1
 40
1
 10
484.398450
 20
393.949220
 30
0.0
 10
480.346450
 20
398.041220
 30
0.0
 10
476.226500
 20
403.228680
 30
0.0
 10
467.271500
 20
409.429690
 30
0.0
  0
SPLINE
  5
1f1
100
AcDbEntity
  8
0
 62
7
100
AcDbSpline
 70
8
 71
3
 72
8
 73
4
 74
0
 40
0
 40
0
 40
0
 40
0
 40
1
 40
1
 40
1
 40
1
 10
467.271500
 20
409.429690
 30
0.0
 10
473.655500
 20
406.841690
 30
0.0
 10
478.109830
 20
404.238920
 30
0.0
 10
481.507820
 20
401.544920
 30
0.0
  0
SPLINE
  5
1f2
100
AcDbEntity
  8
0
 62
7
100
AcDbSpline
 70
8
 71
3
 72
8
 73
4
 74
0
 40
0
 40
0
 40
0
 40
0
 40
1
 40
1
 40
1
 40
1
 10
481.507820
 20
401.544920
 30
0.0
 10
459.446820
 20
459.678321
 30
0.0
 10
458.055100
 20
467.212700
 30
0.0
 10
451.121100
 20
492.000000
 30
0.0
  0
LWPOLYLINE
  5
1f3
100
AcDbEntity
  8
0
 62
7
100
AcDbPolyline
 90
2
 70
0
 10
428.015630
 20
410.314450
 30
0.0
 10
428.103530
 20
410.853510
 30
0.0
  0
SPLINE
  5
1f4
100
AcDbEntity
  8
0
 62
7
100
AcDbSpline
 70
8
 71
3
 72
8
 73
4
 74
0
 40
0
 40
0
 40
0
 40
0
 40
1
 40
1
 40
1
 40
1
 10
20.968750
 20
462.062500
 30
0.0
 10
16.063550
 20
457.036188
 30
0.0
 10
22.105760
 20
448.425842
 30
0.0
 10
16.029300
 20
443.460937
 30
0.0
  0
SPLINE
  5
1f5
100
AcDbEntity
  8
0
 62
7
100
AcDbSpline
 70
8
 71
3
 72
8
 73
4
 74
0
 40
0
 40
0
 40
0
 40
0
 40
1
 40
1
 40
1
 40
1
 10
16.029300
 20
443.460937
 30
0.0
 10
12.110240
 20
432.475399
 30
0.0
 10
16.473080
 20
417.289901
 30
0.0
 10
28.878910
 20
414.115232
 30
0.0
  0
SPLINE
  5
1f6
100
AcDbEntity
  8
0
 62
7
100
AcDbSpline
 70
8
 71
3
 72
8
 73
4
 74
0
 40
0
 40
0
 40
0
 40
0
 40
1
 40
1
 40
1
 40
1
 10
28.878910
 20
414.115232
 30
0.0
 10
34.612670
 20
414.952502
 30
0.0
 10
30.327020
 20
405.961920
 30
0.0
 10
28.572270
 20
404.794920
 30
0.0
  0
SPLINE
  5
1f7
100
AcDbEntity
  8
0
 62
7
100
AcDbSpline
 70
8
 71
3
 72
8
 73
4
 74
0
 40
0
 40
0
 40
0
 40
0
 40
1
 40
1
 40
1
 40
1
 10
28.572270
 20
404.794920
 30
0.0
 10
20.501650
 20
403.108130
 30
0.0
 10
17.471630
 20
418.990045
 30
0.0
 10
10.000000
 20
413.806642
 30
0.0
  0
SPLINE
  5
1f8
100
AcDbEntity
  8
0
 62
7
100
AcDbSpline
 70
8
 71
3
 72
8
 73
4
 74
0
 40
0
 40
0
 40
0
 40
0
 40
1
 40
1
 40
1
 40
1
 10
10.000000
 20
413.806642
 30
0.0
 10
17.206400
 20
409.714670
 30
0.0
 10
17.656710
 20
397.611740
 30
0.0
 10
27.742190
 20
398.052730
 30
0.0
  0
SPLINE
  5
1f9
100
AcDbEntity
  8
0
 62
7
100
AcDbSpline
 70
8
 71
3
 72
8
 73
4
 74
0
 40
0
 40
0
 40
0
 40
0
 40
1
 40
1
 40
1
 40
1
 10
27.742190
 20
398.052730
 30
0.0
 10
31.605860
 20
396.019530
 30
0.0
 10
27.914510
 20
387.067750
 30
0.0
 10
28.746100
 20
382.146480
 30
0.0
  0
SPLINE
  5
1fa
100
AcDbEntity
  8
0
 62
7
100
AcDbSpline
 70
8
 71
3
 72
8
 73
4
 74
0
 40
0
 40
0
 40
0
 40
0
 40
1
 40
1
 40
1
 40
1
 10
28.746100
 20
382.146480
 30
0.0
 10
28.809000
 20
358.342630
 30
0.0
 10
28.658000
 20
334.544400
 30
0.0
 10
28.351560
 20
310.753900
 30
0.0
  0
SPLINE
  5
1fb
100
AcDbEntity
  8
0
 62
7
100
AcDbSpline
 70
8
 71
3
 72
8
 73
4
 74
0
 40
0
 40
0
 40
0
 40
0
 40
1
 40
1
 40
1
 40
1
 10
28.351560
 20
310.753900
 30
0.0
 10
28.357560
 20
293.428510
 30
0.0
 10
27.909480
 20
276.073040
 30
0.0
 10
27.951170
 20
258.761720
 30
0.0
  0
SPLINE
  5
1fc
100
AcDbEntity
  8
0
 62
7
100
AcDbSpline
 70
8
 71
3
 72
8
 73
4
 74
0
 40
0
 40
0
 40
0
 40
0
 40
1
 40
1
 40
1
 40
1
 10
27.951170
 20
258.761720
 30
0.0
 10
28.524030
 20
253.013480
 30
0.0
 10
29.204910
 20
247.036650
 30
0.0
 10
33.281250
 20
242.548830
 30
0.0
  0
SPLINE
  5
1fd
100
AcDbEntity
  8
0
 62
7
100
AcDbSpline
 70
8
 71
3
 72
8
 73
4
 74
0
 40
0
 40
0
 40
0
 40
0
 40
1
 40
1
 40
1
 40
1
 10
33.281250
 20
242.548830
 30
0.0
 10
38.217830
 20
236.895920
 30
0.0
 10
47.198900
 20
237.758720
 30
0.0
 10
53.572270
 20
240.232420
 30
0.0
  0
SPLINE
  5
1fe
100
AcDbEntity
  8
0
 62
7
100
AcDbSpline
 70
8
 71
3
 72
8
 73
4
 74
0
 40
0
 40
0
 40
0
 40
0
 40
1
 40
1
 40
1
 40
1
 10
53.572270
 20
240.232420
 30
0.0
 10
60.819090
 20
244.078960
 30
0.0
 10
62.047000
 20
253.145490
 30
0.0
 10
61.873050
 20
260.544920
 30
0.0
  0
SPLINE
  5
1ff
100
AcDbEntity
  8
0
 62
7
100
AcDbSpline
 70
8
 71
3
 72
8
 73
4
 74
0
 40
0
 40
0
 40
0
 40
0
 40
1
 40
1
 40
1
 40
1
 10
61.873050
 20
260.544920
 30
0.0
 10
62.275200
 20
293.858710
 30
0.0
 10
62.614780
 20
327.179030
 30
0.0
 10
63.031250
 20
360.494140
 30
0.0
  0
SPLINE
  5
200
100
AcDbEntity
  8
0
 62
7
100
AcDbSpline
 70
8
 71
3
 72
8
 73
4
 74
0
 40
0
 40
0
 40
0
 40
0
 40
1
 40
1
 40
1
 40
1
 10
63.031250
 20
360.494140
 30
0.0
 10
63.100550
 20
375.357830
 30
0.0
 10
63.513950
 20
390.251080
 30
0.0
 10
63.462890
 20
405.087890
 30
0.0
  0
SPLINE
  5
201
100
AcDbEntity
  8
0
 62
7
100
AcDbSpline
 70
8
 71
3
 72
8
 73
4
 74
0
 40
0
 40
0
 40
0
 40
0
 40
1
 40
1
 40
1
 40
1
 10
63.462890
 20
405.087890
 30
0.0
 10
63.929140
 20
409.431100
 30
0.0
 10
58.576090
 20
415.366917
 30
0.0
 10
66.125000
 20
415.535156
 30
0.0
  0
SPLINE
  5
202
100
AcDbEntity
  8
0
 62
7
100
AcDbSpline
 70
8
 71
3
 72
8
 73
4
 74
0
 40
0
 40
0
 40
0
 40
0
 40
1
 40
1
 40
1
 40
1
 10
66.125000
 20
415.535156
 30
0.0
 10
77.055180
 20
420.891988
 30
0.0
 10
79.724650
 20
436.545983
 30
0.0
 10
73.953130
 20
446.511718
 30
0.0
  0
SPLINE
  5
203
100
AcDbEntity
  8
0
 62
7
100
AcDbSpline
 70
8
 71
3
 72
8
 73
4
 74
0
 40
0
 40
0
 40
0
 40
0
 40
1
 40
1
 40
1
 40
1
 10
73.953130
 20
446.511718
 30
0.0
 10
69.953940
 20
450.066852
 30
0.0
 10
76.716160
 20
465.399979
 30
0.0
 10
66.306640
 20
461.322265
 30
0.0
  0
SPLINE
  5
204
100
AcDbEntity
  8
0
 62
7
100
AcDbSpline
 70
8
 71
3
 72
8
 73
4
 74
0
 40
0
 40
0
 40
0
 40
0
 40
1
 40
1
 40
1
 40
1
 10
66.306640
 20
461.322265
 30
0.0
 10
58.288320
 20
454.471067
 30
0.0
 10
48.996220
 20
460.111172
 30
0.0
 10
39.585940
 20
458.228515
 30
0.0
  0
SPLINE
  5
205
100
AcDbEntity
  8
0
 62
7
100
AcDbSpline
 70
8
 71
3
 72
8
 73
4
 74
0
 40
0
 40
0
 40
0
 40
0
 40
1
 40
1
 40
1
 40
1
 10
39.585940
 20
458.228515
 30
0.0
 10
32.246460
 20
454.706807
 30
0.0
 10
28.317120
 20
462.368990
 30
0.0
 10
20.968750
 20
462.062500
 30
0.0
  0
LWPOLYLINE
  5
206
100
AcDbEntity
  8
0
 62
7
100
AcDbPolyline
 90
1
 70
1
 10
451.121100
 20
492.000000
 30
0.0
  0
SPLINE
  5
207
100
AcDbEntity
  8
0
 62
7
100
AcDbSpline
 70
8
 71
3
 72
8
 73
4
 74
0
 40
0
 40
0
 40
0
 40
0
 40
1
 40
1
 40
1
 40
1
 10
283.841800
 20
416.312500
 30
0.0
 10
282.812850
 20
416.259610
 30
0.0
 10
281.779550
 20
416.091701
 30
0.0
 10
280.759770
 20
415.798828
 30
0.0
  0
SPLINE
  5
208
100
AcDbEntity
  8
0
 62
7
100
AcDbSpline
 70
8
 71
3
 72
8
 73
4
 74
0
 40
0
 40
0
 40
0
 40
0
 40
1
 40
1
 40
1
 40
1
 10
280.759770
 20
415.798828
 30
0.0
 10
274.357970
 20
414.935862
 30
0.0
 10
269.790440
 20
409.626940
 30
0.0
 10
269.216800
 20
403.306640
 30
0.0
  0
SPLINE
  5
209
100
AcDbEntity
  8
0
 62
7
100
AcDbSpline
 70
8
 71
3
 72
8
 73
4
 74
0
 40
0
 40
0
 40
0
 40
0
 40
1
 40
1
 40
1
 40
1
 10
269.216800
 20
403.306640
 30
0.0
 10
268.567100
 20
388.458230
 30
0.0
 10
269.063800
 20
373.561090
 30
0.0
 10
268.958990
 20
358.693360
 30
0.0
  0
SPLINE
  5
20a
100
AcDbEntity
  8
0
 62
7
100
AcDbSpline
 70
8
 71
3
 72
8
 73
4
 74
0
 40
0
 40
0
 40
0
 40
0
 40
1
 40
1
 40
1
 40
1
 10
268.958990
 20
358.693360
 30
0.0
 10
267.688930
 20
354.469870
 30
0.0
 10
271.562450
 20
346.443610
 30
0.0
 10
266.949220
 20
344.576170
 30
0.0
  0
SPLINE
  5
20b
100
AcDbEntity
  8
0
 62
7
100
AcDbSpline
 70
8
 71
3
 72
8
 73
4
 74
0
 40
0
 40
0
 40
0
 40
0
 40
1
 40
1
 40
1
 40
1
 10
266.949220
 20
344.576170
 30
0.0
 10
252.843840
 20
344.781910
 30
0.0
 10
237.840640
 20
345.410960
 30
0.0
 10
225.144530
 20
338.156250
 30
0.0
  0
SPLINE
  5
20c
100
AcDbEntity
  8
0
 62
7
100
AcDbSpline
 70
8
 71
3
 72
8
 73
4
 74
0
 40
0
 40
0
 40
0
 40
0
 40
1
 40
1
 40
1
 40
1
 10
225.144530
 20
338.156250
 30
0.0
 10
209.327740
 20
330.494230
 30
0.0
 10
200.319500
 20
312.970380
 30
0.0
 10
199.855470
 20
295.841790
 30
0.0
  0
SPLINE
  5
20d
100
AcDbEntity
  8
0
 62
7
100
AcDbSpline
 70
8
 71
3
 72
8
 73
4
 74
0
 40
0
 40
0
 40
0
 40
0
 40
1
 40
1
 40
1
 40
1
 10
199.855470
 20
295.841790
 30
0.0
 10
199.438750
 20
280.110510
 30
0.0
 10
202.161250
 20
262.674540
 30
0.0
 10
213.826170
 20
251.128900
 30
0.0
  0
SPLINE
  5
20e
100
AcDbEntity
  8
0
 62
7
100
AcDbSpline
 70
8
 71
3
 72
8
 73
4
 74
0
 40
0
 40
0
 40
0
 40
0
 40
1
 40
1
 40
1
 40
1
 10
213.826170
 20
251.128900
 30
0.0
 10
226.752230
 20
238.320400
 30
0.0
 10
245.943250
 20
234.969830
 30
0.0
 10
263.482420
 20
235.382810
 30
0.0
  0
SPLINE
  5
20f
100
AcDbEntity
  8
0
 62
7
100
AcDbSpline
 70
8
 71
3
 72
8
 73
4
 74
0
 40
0
 40
0
 40
0
 40
0
 40
1
 40
1
 40
1
 40
1
 10
263.482420
 20
235.382810
 30
0.0
 10
272.898300
 20
235.784030
 30
0.0
 10
282.751090
 20
234.031670
 30
0.0
 10
291.798830
 20
237.355470
 30
0.0
  0
SPLINE
  5
210
100
AcDbEntity
  8
0
 62
7
100
AcDbSpline
 70
8
 71
3
 72
8
 73
4
 74
0
 40
0
 40
0
 40
0
 40
0
 40
1
 40
1
 40
1
 40
1
 10
291.798830
 20
237.355470
 30
0.0
 10
299.203030
 20
240.117050
 30
0.0
 10
299.372670
 20
249.097000
 30
0.0
 10
300.042970
 20
255.718750
 30
0.0
  0
SPLINE
  5
211
100
AcDbEntity
  8
0
 62
7
100
AcDbSpline
 70
8
 71
3
 72
8
 73
4
 74
0
 40
0
 40
0
 40
0
 40
0
 40
1
 40
1
 40
1
 40
1
 10
300.042970
 20
255.718750
 30
0.0
 10
300.442360
 20
270.701680
 30
0.0
 10
300.253050
 20
285.711040
 30
0.0
 10
300.248050
 20
300.695310
 30
0.0
  0
SPLINE
  5
212
100
AcDbEntity
  8
0
 62
7
100
AcDbSpline
 70
8
 71
3
 72
8
 73
4
 74
0
 40
0
 40
0
 40
0
 40
0
 40
1
 40
1
 40
1
 40
1
 10
300.248050
 20
300.695310
 30
0.0
 10
300.352150
 20
326.754350
 30
0.0
 10
300.165150
 20
352.819530
 30
0.0
 10
300.333950
 20
378.871090
 30
0.0
  0
SPLINE
  5
213
100
AcDbEntity
  8
0
 62
7
100
AcDbSpline
 70
8
 71
3
 72
8
 73
4
 74
0
 40
0
 40
0
 40
0
 40
0
 40
1
 40
1
 40
1
 40
1
 10
300.333950
 20
378.871090
 30
0.0
 10
300.070090
 20
387.272650
 30
0.0
 10
301.210820
 20
395.858850
 30
0.0
 10
299.343710
 20
404.121090
 30
0.0
  0
SPLINE
  5
214
100
AcDbEntity
  8
0
 62
7
100
AcDbSpline
 70
8
 71
3
 72
8
 73
4
 74
0
 40
0
 40
0
 40
0
 40
0
 40
1
 40
1
 40
1
 40
1
 10
299.343710
 20
404.121090
 30
0.0
 10
298.072800
 20
411.428400
 30
0.0
 10
291.044370
 20
416.682692
 30
0.0
 10
283.841760
 20
416.312500
 30
0.0
  0
LWPOLYLINE
  5
215
100
AcDbEntity
  8
0
 62
7
100
AcDbPolyline
 90
1
 70
1
 10
20.968750
 20
462.062500
 30
0.0
  0
SPLINE
  5
216
100
AcDbEntity
  8
0
 62
7
100
AcDbSpline
 70
8
 71
3
 72
8
 73
4
 74
0
 40
0
 40
0
 40
0
 40
0
 40
1
 40
1
 40
1
 40
1
 10
94.966800
 20
388.675780
 30
0.0
 10
89.407960
 20
388.481150
 30
0.0
 10
83.934990
 20
385.321390
 30
0.0
 10
82.078130
 20
379.847650
 30
0.0
  0
SPLINE
  5
217
100
AcDbEntity
  8
0
 62
7
100
AcDbSpline
 70
8
 71
3
 72
8
 73
4
 74
0
 40
0
 40
0
 40
0
 40
0
 40
1
 40
1
 40
1
 40
1
 10
82.078130
 20
379.847650
 30
0.0
 10
79.060650
 20
372.528280
 30
0.0
 10
80.299990
 20
364.576150
 30
0.0
 10
80.232420
 20
356.902340
 30
0.0
  0
SPLINE
  5
218
100
AcDbEntity
  8
0
 62
7
100
AcDbSpline
 70
8
 71
3
 72
8
 73
4
 74
0
 40
0
 40
0
 40
0
 40
0
 40
1
 40
1
 40
1
 40
1
 10
80.232420
 20
356.902340
 30
0.0
 10
80.207820
 20
351.643840
 30
0.0
 10
80.372560
 20
346.347330
 30
0.0
 10
80.185520
 20
341.076170
 30
0.0
  0
SPLINE
  5
219
100
AcDbEntity
  8
0
 62
7
100
AcDbSpline
 70
8
 71
3
 72
8
 73
4
 74
0
 40
0
 40
0
 40
0
 40
0
 40
1
 40
1
 40
1
 40
1
 10
80.185520
 20
341.076170
 30
0.0
 10
80.669080
 20
322.883890
 30
0.0
 10
79.396810
 20
304.625620
 30
0.0
 10
81.417950
 20
286.500000
 30
0.0
  0
SPLINE
  5
21a
100
AcDbEntity
  8
0
 62
7
100
AcDbSpline
 70
8
 71
3
 72
8
 73
4
 74
0
 40
0
 40
0
 40
0
 40
0
 40
1
 40
1
 40
1
 40
1
 10
81.417950
 20
286.500000
 30
0.0
 10
81.800100
 20
280.610770
 30
0.0
 10
82.219660
 20
274.453350
 30
0.0
 10
85.533180
 20
269.351560
 30
0.0
  0
SPLINE
  5
21b
100
AcDbEntity
  8
0
 62
7
100
AcDbSpline
 70
8
 71
3
 72
8
 73
4
 74
0
 40
0
 40
0
 40
0
 40
0
 40
1
 40
1
 40
1
 40
1
 10
85.533180
 20
269.351560
 30
0.0
 10
89.222850
 20
264.686700
 30
0.0
 10
96.339320
 20
261.589830
 30
0.0
 10
101.990210
 20
264.449220
 30
0.0
  0
SPLINE
  5
21c
100
AcDbEntity
  8
0
 62
7
100
AcDbSpline
 70
8
 71
3
 72
8
 73
4
 74
0
 40
0
 40
0
 40
0
 40
0
 40
1
 40
1
 40
1
 40
1
 10
101.990210
 20
264.449220
 30
0.0
 10
108.051080
 20
267.680370
 30
0.0
 10
109.627640
 20
275.010840
 30
0.0
 10
110.550750
 20
281.248040
 30
0.0
  0
SPLINE
  5
21d
100
AcDbEntity
  8
0
 62
7
100
AcDbSpline
 70
8
 71
3
 72
8
 73
4
 74
0
 40
0
 40
0
 40
0
 40
0
 40
1
 40
1
 40
1
 40
1
 10
110.550750
 20
281.248040
 30
0.0
 10
111.002460
 20
292.308960
 30
0.0
 10
110.771540
 20
303.380200
 30
0.0
 10
110.755830
 20
314.443360
 30
0.0
  0
SPLINE
  5
21e
100
AcDbEntity
  8
0
 62
7
100
AcDbSpline
 70
8
 71
3
 72
8
 73
4
 74
0
 40
0
 40
0
 40
0
 40
0
 40
1
 40
1
 40
1
 40
1
 10
110.755830
 20
314.443360
 30
0.0
 10
111.021860
 20
320.619520
 30
0.0
 10
111.054670
 20
326.806290
 30
0.0
 10
111.154270
 20
332.994140
 30
0.0
  0
SPLINE
  5
21f
100
AcDbEntity
  8
0
 62
7
100
AcDbSpline
 70
8
 71
3
 72
8
 73
4
 74
0
 40
0
 40
0
 40
0
 40
0
 40
1
 40
1
 40
1
 40
1
 10
111.154270
 20
332.994140
 30
0.0
 10
111.256890
 20
339.133470
 30
0.0
 10
115.375890
 20
344.265210
 30
0.0
 10
120.339820
 20
347.458980
 30
0.0
  0
SPLINE
  5
220
100
AcDbEntity
  8
0
 62
7
100
AcDbSpline
 70
8
 71
3
 72
8
 73
4
 74
0
 40
0
 40
0
 40
0
 40
0
 40
1
 40
1
 40
1
 40
1
 10
120.339820
 20
347.458980
 30
0.0
 10
127.480480
 20
352.210370
 30
0.0
 10
137.521860
 20
353.259800
 30
0.0
 10
145.023410
 20
348.750000
 30
0.0
  0
SPLINE
  5
221
100
AcDbEntity
  8
0
 62
7
100
AcDbSpline
 70
8
 71
3
 72
8
 73
4
 74
0
 40
0
 40
0
 40
0
 40
0
 40
1
 40
1
 40
1
 40
1
 10
145.023410
 20
348.750000
 30
0.0
 10
151.308900
 20
344.990110
 30
0.0
 10
154.304920
 20
337.664130
 30
0.0
 10
154.720680
 20
330.603510
 30
0.0
  0
SPLINE
  5
222
100
AcDbEntity
  8
0
 62
7
100
AcDbSpline
 70
8
 71
3
 72
8
 73
4
 74
0
 40
0
 40
0
 40
0
 40
0
 40
1
 40
1
 40
1
 40
1
 10
154.720680
 20
330.603510
 30
0.0
 10
154.424570
 20
321.319180
 30
0.0
 10
155.095460
 20
312.042720
 30
0.0
 10
154.992160
 20
302.763670
 30
0.0
  0
SPLINE
  5
223
100
AcDbEntity
  8
0
 62
7
100
AcDbSpline
 70
8
 71
3
 72
8
 73
4
 74
0
 40
0
 40
0
 40
0
 40
0
 40
1
 40
1
 40
1
 40
1
 10
154.992160
 20
302.763670
 30
0.0
 10
155.248910
 20
293.059680
 30
0.0
 10
155.094160
 20
283.139200
 30
0.0
 10
157.933570
 20
273.750000
 30
0.0
  0
SPLINE
  5
224
100
AcDbEntity
  8
0
 62
7
100
AcDbSpline
 70
8
 71
3
 72
8
 73
4
 74
0
 40
0
 40
0
 40
0
 40
0
 40
1
 40
1
 40
1
 40
1
 10
157.933570
 20
273.750000
 30
0.0
 10
158.978110
 20
268.831650
 30
0.0
 10
163.053920
 20
264.619300
 30
0.0
 10
168.251930
 20
264.484370
 30
0.0
  0
SPLINE
  5
225
100
AcDbEntity
  8
0
 62
7
100
AcDbSpline
 70
8
 71
3
 72
8
 73
4
 74
0
 40
0
 40
0
 40
0
 40
0
 40
1
 40
1
 40
1
 40
1
 10
168.251930
 20
264.484370
 30
0.0
 10
172.872350
 20
264.229250
 30
0.0
 10
178.664100
 20
264.632620
 30
0.0
 10
181.404270
 20
268.941400
 30
0.0
  0
SPLINE
  5
226
100
AcDbEntity
  8
0
 62
7
100
AcDbSpline
 70
8
 71
3
 72
8
 73
4
 74
0
 40
0
 40
0
 40
0
 40
0
 40
1
 40
1
 40
1
 40
1
 10
181.404270
 20
268.941400
 30
0.0
 10
184.666270
 20
275.237250
 30
0.0
 10
184.467330
 20
282.619790
 30
0.0
 10
184.615210
 20
289.535150
 30
0.0
  0
SPLINE
  5
227
100
AcDbEntity
  8
0
 62
7
100
AcDbSpline
 70
8
 71
3
 72
8
 73
4
 74
0
 40
0
 40
0
 40
0
 40
0
 40
1
 40
1
 40
1
 40
1
 10
184.615210
 20
289.535150
 30
0.0
 10
185.334510
 20
298.434870
 30
0.0
 10
185.566100
 20
307.352720
 30
0.0
 10
185.394500
 20
316.287110
 30
0.0
  0
SPLINE
  5
228
100
AcDbEntity
  8
0
 62
7
100
AcDbSpline
 70
8
 71
3
 72
8
 73
4
 74
0
 40
0
 40
0
 40
0
 40
0
 40
1
 40
1
 40
1
 40
1
 10
185.394500
 20
316.287110
 30
0.0
 10
184.501090
 20
326.363160
 30
0.0
 10
184.749520
 20
336.520200
 30
0.0
 10
183.158180
 20
346.531250
 30
0.0
  0
SPLINE
  5
229
100
AcDbEntity
  8
0
 62
7
100
AcDbSpline
 70
8
 71
3
 72
8
 73
4
 74
0
 40
0
 40
0
 40
0
 40
0
 40
1
 40
1
 40
1
 40
1
 10
183.158180
 20
346.531250
 30
0.0
 10
181.641820
 20
357.196210
 30
0.0
 10
176.511650
 20
367.728460
 30
0.0
 10
167.417940
 20
373.892580
 30
0.0
  0
SPLINE
  5
22a
100
AcDbEntity
  8
0
 62
7
100
AcDbSpline
 70
8
 71
3
 72
8
 73
4
 74
0
 40
0
 40
0
 40
0
 40
0
 40
1
 40
1
 40
1
 40
1
 10
167.417940
 20
373.892580
 30
0.0
 10
161.368250
 20
378.042500
 30
0.0
 10
154.418870
 20
381.096530
 30
0.0
 10
147.177710
 20
382.406250
 30
0.0
  0
SPLINE
  5
22b
100
AcDbEntity
  8
0
 62
7
100
AcDbSpline
 70
8
 71
3
 72
8
 73
4
 74
0
 40
0
 40
0
 40
0
 40
0
 40
1
 40
1
 40
1
 40
1
 10
147.177710
 20
382.406250
 30
0.0
 10
142.242350
 20
383.360920
 30
0.0
 10
137.196000
 20
383.398930
 30
0.0
 10
132.306610
 20
382.179690
 30
0.0
  0
SPLINE
  5
22c
100
AcDbEntity
  8
0
 62
7
100
AcDbSpline
 70
8
 71
3
 72
8
 73
4
 74
0
 40
0
 40
0
 40
0
 40
0
 40
1
 40
1
 40
1
 40
1
 10
132.306610
 20
382.179690
 30
0.0
 10
124.493330
 20
379.773630
 30
0.0
 10
116.284440
 20
376.009920
 30
0.0
 10
111.908180
 20
368.732420
 30
0.0
  0
SPLINE
  5
22d
100
AcDbEntity
  8
0
 62
7
100
AcDbSpline
 70
8
 71
3
 72
8
 73
4
 74
0
 40
0
 40
0
 40
0
 40
0
 40
1
 40
1
 40
1
 40
1
 10
111.908180
 20
368.732420
 30
0.0
 10
110.415310
 20
368.339860
 30
0.0
 10
111.377030
 20
373.816810
 30
0.0
 10
110.679660
 20
375.626950
 30
0.0
  0
SPLINE
  5
22e
100
AcDbEntity
  8
0
 62
7
100
AcDbSpline
 70
8
 71
3
 72
8
 73
4
 74
0
 40
0
 40
0
 40
0
 40
0
 40
1
 40
1
 40
1
 40
1
 10
110.679660
 20
375.626950
 30
0.0
 10
110.099540
 20
381.292420
 30
0.0
 10
106.302140
 20
386.839400
 30
0.0
 10
100.423800
 20
387.857420
 30
0.0
  0
SPLINE
  5
22f
100
AcDbEntity
  8
0
 62
7
100
AcDbSpline
 70
8
 71
3
 72
8
 73
4
 74
0
 40
0
 40
0
 40
0
 40
0
 40
1
 40
1
 40
1
 40
1
 10
100.423800
 20
387.857420
 30
0.0
 10
98.682620
 20
388.475450
 30
0.0
 10
96.819720
 20
388.740650
 30
0.0
 10
94.966770
 20
388.675780
 30
0.0
  0
LWPOLYLINE
  5
230
100
AcDbEntity
  8
0
 62
7
100
AcDbPolyline
 90
1
 70
1
 10
283.841760
 20
416.312500
 30
0.0
  0
SPLINE
  5
231
100
AcDbEntity
  8
0
 62
7
100
AcDbSpline
 70
8
 71
3
 72
8
 73
4
 74
0
 40
0
 40
0
 40
0
 40
0
 40
1
 40
1
 40
1
 40
1
 10
337.574220
 20
385.667970
 30
0.0
 10
335.491430
 20
385.581770
 30
0.0
 10
333.420840
 20
385.058020
 30
0.0
 10
331.474610
 20
384.013670
 30
0.0
  0
SPLINE
  5
232
100
AcDbEntity
  8
0
 62
7
100
AcDbSpline
 70
8
 71
3
 72
8
 73
4
 74
0
 40
0
 40
0
 40
0
 40
0
 40
1
 40
1
 40
1
 40
1
 10
331.474610
 20
384.013670
 30
0.0
 10
324.098530
 20
380.317290
 30
0.0
 10
322.950860
 20
370.596600
 30
0.0
 10
326.025390
 20
363.666010
 30
0.0
  0
SPLINE
  5
233
100
AcDbEntity
  8
0
 62
7
100
AcDbSpline
 70
8
 71
3
 72
8
 73
4
 74
0
 40
0
 40
0
 40
0
 40
0
 40
1
 40
1
 40
1
 40
1
 10
326.025390
 20
363.666010
 30
0.0
 10
328.415100
 20
356.602790
 30
0.0
 10
336.558280
 20
353.185420
 30
0.0
 10
343.511720
 20
355.105470
 30
0.0
  0
SPLINE
  5
234
100
AcDbEntity
  8
0
 62
7
100
AcDbSpline
 70
8
 71
3
 72
8
 73
4
 74
0
 40
0
 40
0
 40
0
 40
0
 40
1
 40
1
 40
1
 40
1
 10
343.511720
 20
355.105470
 30
0.0
 10
350.218990
 20
356.553410
 30
0.0
 10
356.044800
 20
361.720610
 30
0.0
 10
356.029300
 20
368.964840
 30
0.0
  0
SPLINE
  5
235
100
AcDbEntity
  8
0
 62
7
100
AcDbSpline
 70
8
 71
3
 72
8
 73
4
 74
0
 40
0
 40
0
 40
0
 40
0
 40
1
 40
1
 40
1
 40
1
 10
356.029300
 20
368.964840
 30
0.0
 10
355.838090
 20
378.203740
 30
0.0
 10
346.599640
 20
386.041310
 30
0.0
 10
337.574220
 20
385.667970
 30
0.0
  0
LWPOLYLINE
  5
236
100
AcDbEntity
  8
0
 62
7
100
AcDbPolyline
 90
1
 70
1
 10
94.966770
 20
388.675780
 30
0.0
  0
SPLINE
  5
237
100
AcDbEntity
  8
0
 62
7
100
AcDbSpline
 70
8
 71
3
 72
8
 73
4
 74
0
 40
0
 40
0
 40
0
 40
0
 40
1
 40
1
 40
1
 40
1
 10
427.884770
 20
380.003900
 30
0.0
 10
420.859410
 20
379.913100
 30
0.0
 10
413.858950
 20
378.660080
 30
0.0
 10
407.292970
 20
376.162110
 30
0.0
  0
SPLINE
  5
238
100
AcDbEntity
  8
0
 62
7
100
AcDbSpline
 70
8
 71
3
 72
8
 73
4
 74
0
 40
0
 40
0
 40
0
 40
0
 40
1
 40
1
 40
1
 40
1
 10
407.292970
 20
376.162110
 30
0.0
 10
395.762770
 20
372.118150
 30
0.0
 10
386.371590
 20
363.310610
 30
0.0
 10
380.386720
 20
352.791010
 30
0.0
  0
SPLINE
  5
239
100
AcDbEntity
  8
0
 62
7
100
AcDbSpline
 70
8
 71
3
 72
8
 73
4
 74
0
 40
0
 40
0
 40
0
 40
0
 40
1
 40
1
 40
1
 40
1
 10
380.386720
 20
352.791010
 30
0.0
 10
376.852390
 20
346.443880
 30
0.0
 10
374.900160
 20
339.281940
 30
0.0
 10
374.154300
 20
332.082030
 30
0.0
  0
SPLINE
  5
23a
100
AcDbEntity
  8
0
 62
7
100
AcDbSpline
 70
8
 71
3
 72
8
 73
4
 74
0
 40
0
 40
0
 40
0
 40
0
 40
1
 40
1
 40
1
 40
1
 10
374.154300
 20
332.082030
 30
0.0
 10
372.698470
 20
319.433120
 30
0.0
 10
374.031160
 20
306.458450
 30
0.0
 10
378.039070
 20
294.384760
 30
0.0
  0
SPLINE
  5
23b
100
AcDbEntity
  8
0
 62
7
100
AcDbSpline
 70
8
 71
3
 72
8
 73
4
 74
0
 40
0
 40
0
 40
0
 40
0
 40
1
 40
1
 40
1
 40
1
 10
378.039070
 20
294.384760
 30
0.0
 10
382.165890
 20
282.362040
 30
0.0
 10
390.196630
 20
270.883410
 30
0.0
 10
402.203130
 20
265.777340
 30
0.0
  0
SPLINE
  5
23c
100
AcDbEntity
  8
0
 62
7
100
AcDbSpline
 70
8
 71
3
 72
8
 73
4
 74
0
 40
0
 40
0
 40
0
 40
0
 40
1
 40
1
 40
1
 40
1
 10
402.203130
 20
265.777340
 30
0.0
 10
408.314940
 20
262.683880
 30
0.0
 10
415.202190
 20
261.929170
 30
0.0
 10
421.916020
 20
261.248040
 30
0.0
  0
SPLINE
  5
23d
100
AcDbEntity
  8
0
 62
7
100
AcDbSpline
 70
8
 71
3
 72
8
 73
4
 74
0
 40
0
 40
0
 40
0
 40
0
 40
1
 40
1
 40
1
 40
1
 10
421.916020
 20
261.248040
 30
0.0
 10
436.393290
 20
260.442400
 30
0.0
 10
451.140680
 20
262.920980
 30
0.0
 10
464.373050
 20
268.898430
 30
0.0
  0
SPLINE
  5
23e
100
AcDbEntity
  8
0
 62
7
100
AcDbSpline
 70
8
 71
3
 72
8
 73
4
 74
0
 40
0
 40
0
 40
0
 40
0
 40
1
 40
1
 40
1
 40
1
 10
464.373050
 20
268.898430
 30
0.0
 10
471.497770
 20
272.484560
 30
0.0
 10
479.195400
 20
276.224320
 30
0.0
 10
483.500000
 20
283.279290
 30
0.0
  0
SPLINE
  5
23f
100
AcDbEntity
  8
0
 62
7
100
AcDbSpline
 70
8
 71
3
 72
8
 73
4
 74
0
 40
0
 40
0
 40
0
 40
0
 40
1
 40
1
 40
1
 40
1
 10
483.500000
 20
283.279290
 30
0.0
 10
486.567960
 20
287.896130
 30
0.0
 10
487.211160
 20
294.469200
 30
0.0
 10
483.669920
 20
299.005860
 30
0.0
  0
SPLINE
  5
240
100
AcDbEntity
  8
0
 62
7
100
AcDbSpline
 70
8
 71
3
 72
8
 73
4
 74
0
 40
0
 40
0
 40
0
 40
0
 40
1
 40
1
 40
1
 40
1
 10
483.669920
 20
299.005860
 30
0.0
 10
479.677780
 20
304.032320
 30
0.0
 10
472.402150
 20
303.055810
 30
0.0
 10
467.201170
 20
300.724610
 30
0.0
  0
SPLINE
  5
241
100
AcDbEntity
  8
0
 62
7
100
AcDbSpline
 70
8
 71
3
 72
8
 73
4
 74
0
 40
0
 40
0
 40
0
 40
0
 40
1
 40
1
 40
1
 40
1
 10
467.201170
 20
300.724610
 30
0.0
 10
463.237490
 20
299.254340
 30
0.0
 10
459.595220
 20
297.041240
 30
0.0
 10
455.648440
 20
295.541010
 30
0.0
  0
SPLINE
  5
242
100
AcDbEntity
  8
0
 62
7
100
AcDbSpline
 70
8
 71
3
 72
8
 73
4
 74
0
 40
0
 40
0
 40
0
 40
0
 40
1
 40
1
 40
1
 40
1
 10
455.648440
 20
295.541010
 30
0.0
 10
448.874540
 20
292.308220
 30
0.0
 10
441.582140
 20
290.222530
 30
0.0
 10
434.095710
 20
289.552730
 30
0.0
  0
SPLINE
  5
243
100
AcDbEntity
  8
0
 62
7
100
AcDbSpline
 70
8
 71
3
 72
8
 73
4
 74
0
 40
0
 40
0
 40
0
 40
0
 40
1
 40
1
 40
1
 40
1
 10
434.095710
 20
289.552730
 30
0.0
 10
425.222170
 20
289.019620
 30
0.0
 10
414.867840
 20
289.785020
 30
0.0
 10
408.667970
 20
297.021480
 30
0.0
  0
SPLINE
  5
244
100
AcDbEntity
  8
0
 62
7
100
AcDbSpline
 70
8
 71
3
 72
8
 73
4
 74
0
 40
0
 40
0
 40
0
 40
0
 40
1
 40
1
 40
1
 40
1
 10
408.667970
 20
297.021480
 30
0.0
 10
407.003090
 20
299.407190
 30
0.0
 10
405.075050
 20
302.947280
 30
0.0
 10
406.626960
 20
305.746090
 30
0.0
  0
SPLINE
  5
245
100
AcDbEntity
  8
0
 62
7
100
AcDbSpline
 70
8
 71
3
 72
8
 73
4
 74
0
 40
0
 40
0
 40
0
 40
0
 40
1
 40
1
 40
1
 40
1
 10
406.626960
 20
305.746090
 30
0.0
 10
411.615240
 20
306.594650
 30
0.0
 10
416.745790
 20
306.737190
 30
0.0
 10
421.746100
 20
307.654290
 30
0.0
  0
SPLINE
  5
246
100
AcDbEntity
  8
0
 62
7
100
AcDbSpline
 70
8
 71
3
 72
8
 73
4
 74
0
 40
0
 40
0
 40
0
 40
0
 40
1
 40
1
 40
1
 40
1
 10
421.746100
 20
307.654290
 30
0.0
 10
431.439990
 20
308.806660
 30
0.0
 10
441.113190
 20
310.088850
 30
0.0
 10
450.720710
 20
311.804690
 30
0.0
  0
SPLINE
  5
247
100
AcDbEntity
  8
0
 62
7
100
AcDbSpline
 70
8
 71
3
 72
8
 73
4
 74
0
 40
0
 40
0
 40
0
 40
0
 40
1
 40
1
 40
1
 40
1
 10
450.720710
 20
311.804690
 30
0.0
 10
458.446490
 20
313.617890
 30
0.0
 10
466.661740
 20
314.013060
 30
0.0
 10
473.728520
 20
317.947260
 30
0.0
  0
SPLINE
  5
248
100
AcDbEntity
  8
0
 62
7
100
AcDbSpline
 70
8
 71
3
 72
8
 73
4
 74
0
 40
0
 40
0
 40
0
 40
0
 40
1
 40
1
 40
1
 40
1
 10
473.728520
 20
317.947260
 30
0.0
 10
478.742910
 20
320.672400
 30
0.0
 10
480.938830
 20
326.297270
 30
0.0
 10
481.433600
 20
331.708980
 30
0.0
  0
SPLINE
  5
249
100
AcDbEntity
  8
0
 62
7
100
AcDbSpline
 70
8
 71
3
 72
8
 73
4
 74
0
 40
0
 40
0
 40
0
 40
0
 40
1
 40
1
 40
1
 40
1
 10
481.433600
 20
331.708980
 30
0.0
 10
481.877780
 20
341.755060
 30
0.0
 10
479.077310
 20
352.146510
 30
0.0
 10
473.029300
 20
360.248040
 30
0.0
  0
SPLINE
  5
24a
100
AcDbEntity
  8
0
 62
7
100
AcDbSpline
 70
8
 71
3
 72
8
 73
4
 74
0
 40
0
 40
0
 40
0
 40
0
 40
1
 40
1
 40
1
 40
1
 10
473.029300
 20
360.248040
 30
0.0
 10
466.882000
 20
368.143770
 30
0.0
 10
458.118390
 20
373.846740
 30
0.0
 10
448.619140
 20
376.869140
 30
0.0
  0
SPLINE
  5
24b
100
AcDbEntity
  8
0
 62
7
100
AcDbSpline
 70
8
 71
3
 72
8
 73
4
 74
0
 40
0
 40
0
 40
0
 40
0
 40
1
 40
1
 40
1
 40
1
 10
448.619140
 20
376.869140
 30
0.0
 10
441.959920
 20
379.022460
 30
0.0
 10
434.910120
 20
380.094710
 30
0.0
 10
427.884770
 20
380.003900
 30
0.0
  0
LWPOLYLINE
  5
24c
100
AcDbEntity
  8
0
 62
7
100
AcDbPolyline
 90
1
 70
1
 10
337.574220
 20
385.667970
 30
0.0
  0
SPLINE
  5
24d
100
AcDbEntity
  8
0
 62
7
100
AcDbSpline
 70
8
 71
3
 72
8
 73
4
 74
0
 40
0
 40
0
 40
0
 40
0
 40
1
 40
1
 40
1
 40
1
 10
430.255860
 20
354.851560
 30
0.0
 10
436.402230
 20
355.228650
 30
0.0
 10
442.363770
 20
352.284500
 30
0.0
 10
446.986330
 20
348.339840
 30
0.0
  0
SPLINE
  5
24e
100
AcDbEntity
  8
0
 62
7
100
AcDbSpline
 70
8
 71
3
 72
8
 73
4
 74
0
 40
0
 40
0
 40
0
 40
0
 40
1
 40
1
 40
1
 40
1
 10
446.986330
 20
348.339840
 30
0.0
 10
448.534520
 20
347.101310
 30
0.0
 10
450.053690
 20
345.798090
 30
0.0
 10
451.296880
 20
344.218750
 30
0.0
  0
SPLINE
  5
24f
100
AcDbEntity
  8
0
 62
7
100
AcDbSpline
 70
8
 71
3
 72
8
 73
4
 74
0
 40
0
 40
0
 40
0
 40
0
 40
1
 40
1
 40
1
 40
1
 10
451.296880
 20
344.218750
 30
0.0
 10
452.288830
 20
342.265690
 30
0.0
 10
456.064420
 20
337.826130
 30
0.0
 10
452.347660
 20
337.041010
 30
0.0
  0
SPLINE
  5
250
100
AcDbEntity
  8
0
 62
7
100
AcDbSpline
 70
8
 71
3
 72
8
 73
4
 74
0
 40
0
 40
0
 40
0
 40
0
 40
1
 40
1
 40
1
 40
1
 10
452.347660
 20
337.041010
 30
0.0
 10
440.599010
 20
335.162820
 30
0.0
 10
428.819720
 20
333.454240
 30
0.0
 10
417.056640
 20
331.667970
 30
0.0
  0
SPLINE
  5
251
100
AcDbEntity
  8
0
 62
7
100
AcDbSpline
 70
8
 71
3
 72
8
 73
4
 74
0
 40
0
 40
0
 40
0
 40
0
 40
1
 40
1
 40
1
 40
1
 10
417.056640
 20
331.667970
 30
0.0
 10
412.963600
 20
331.163990
 30
0.0
 10
408.875400
 20
330.215420
 30
0.0
 10
404.767580
 20
330.072260
 30
0.0
  0
SPLINE
  5
252
100
AcDbEntity
  8
0
 62
7
100
AcDbSpline
 70
8
 71
3
 72
8
 73
4
 74
0
 40
0
 40
0
 40
0
 40
0
 40
1
 40
1
 40
1
 40
1
 10
404.767580
 20
330.072260
 30
0.0
 10
402.407440
 20
331.648730
 30
0.0
 10
405.143370
 20
335.495430
 30
0.0
 10
405.757810
 20
337.724610
 30
0.0
  0
SPLINE
  5
253
100
AcDbEntity
  8
0
 62
7
100
AcDbSpline
 70
8
 71
3
 72
8
 73
4
 74
0
 40
0
 40
0
 40
0
 40
0
 40
1
 40
1
 40
1
 40
1
 10
405.757810
 20
337.724610
 30
0.0
 10
409.047680
 20
346.984560
 30
0.0
 10
418.132470
 20
353.078980
 30
0.0
 10
427.613280
 20
354.478510
 30
0.0
  0
SPLINE
  5
254
100
AcDbEntity
  8
0
 62
7
100
AcDbSpline
 70
8
 71
3
 72
8
 73
4
 74
0
 40
0
 40
0
 40
0
 40
0
 40
1
 40
1
 40
1
 40
1
 10
427.613280
 20
354.478510
 30
0.0
 10
428.495540
 20
354.674710
 30
0.0
 10
429.377810
 20
354.797690
 30
0.0
 10
430.255860
 20
354.851560
 30
0.0
  0
LWPOLYLINE
  5
255
100
AcDbEntity
  8
0
 62
7
100
AcDbPolyline
 90
1
 70
1
 10
427.884770
 20
380.003900
 30
0.0
  0
SPLINE
  5
256
100
AcDbEntity
  8
0
 62
7
100
AcDbSpline
 70
8
 71
3
 72
8
 73
4
 74
0
 40
0
 40
0
 40
0
 40
0
 40
1
 40
1
 40
1
 40
1
 10
338.048830
 20
333.099610
 30
0.0
 10
333.635220
 20
332.976400
 30
0.0
 10
329.110850
 20
331.512300
 30
0.0
 10
326.371100
 20
328.087890
 30
0.0
  0
SPLINE
  5
257
100
AcDbEntity
  8
0
 62
7
100
AcDbSpline
 70
8
 71
3
 72
8
 73
4
 74
0
 40
0
 40
0
 40
0
 40
0
 40
1
 40
1
 40
1
 40
1
 10
326.371100
 20
328.087890
 30
0.0
 10
322.205830
 20
320.618650
 30
0.0
 10
322.306430
 20
311.724720
 30
0.0
 10
321.960940
 20
303.412110
 30
0.0
  0
SPLINE
  5
258
100
AcDbEntity
  8
0
 62
7
100
AcDbSpline
 70
8
 71
3
 72
8
 73
4
 74
0
 40
0
 40
0
 40
0
 40
0
 40
1
 40
1
 40
1
 40
1
 10
321.960940
 20
303.412110
 30
0.0
 10
322.386240
 20
288.070060
 30
0.0
 10
322.034940
 20
272.711190
 30
0.0
 10
322.300780
 20
257.367190
 30
0.0
  0
SPLINE
  5
259
100
AcDbEntity
  8
0
 62
7
100
AcDbSpline
 70
8
 71
3
 72
8
 73
4
 74
0
 40
0
 40
0
 40
0
 40
0
 40
1
 40
1
 40
1
 40
1
 10
322.300780
 20
257.367190
 30
0.0
 10
322.998470
 20
244.936390
 30
0.0
 10
321.490050
 20
232.235340
 30
0.0
 10
324.548830
 20
220.042970
 30
0.0
  0
SPLINE
  5
25a
100
AcDbEntity
  8
0
 62
7
100
AcDbSpline
 70
8
 71
3
 72
8
 73
4
 74
0
 40
0
 40
0
 40
0
 40
0
 40
1
 40
1
 40
1
 40
1
 10
324.548830
 20
220.042970
 30
0.0
 10
325.940850
 20
213.518200
 30
0.0
 10
331.561960
 20
207.757990
 30
0.0
 10
338.548830
 20
208.082030
 30
0.0
  0
SPLINE
  5
25b
100
AcDbEntity
  8
0
 62
7
100
AcDbSpline
 70
8
 71
3
 72
8
 73
4
 74
0
 40
0
 40
0
 40
0
 40
0
 40
1
 40
1
 40
1
 40
1
 10
338.548830
 20
208.082030
 30
0.0
 10
345.317300
 20
207.198130
 30
0.0
 10
350.875840
 20
212.797560
 30
0.0
 10
352.328130
 20
219.019530
 30
0.0
  0
SPLINE
  5
25c
100
AcDbEntity
  8
0
 62
7
100
AcDbSpline
 70
8
 71
3
 72
8
 73
4
 74
0
 40
0
 40
0
 40
0
 40
0
 40
1
 40
1
 40
1
 40
1
 10
352.328130
 20
219.019530
 30
0.0
 10
355.100470
 20
229.411760
 30
0.0
 10
354.321380
 20
240.325090
 30
0.0
 10
354.500000
 20
250.968750
 30
0.0
  0
SPLINE
  5
25d
100
AcDbEntity
  8
0
 62
7
100
AcDbSpline
 70
8
 71
3
 72
8
 73
4
 74
0
 40
0
 40
0
 40
0
 40
0
 40
1
 40
1
 40
1
 40
1
 10
354.500000
 20
250.968750
 30
0.0
 10
354.867380
 20
268.221490
 30
0.0
 10
354.219610
 20
285.471640
 30
0.0
 10
354.287110
 20
302.726560
 30
0.0
  0
SPLINE
  5
25e
100
AcDbEntity
  8
0
 62
7
100
AcDbSpline
 70
8
 71
3
 72
8
 73
4
 74
0
 40
0
 40
0
 40
0
 40
0
 40
1
 40
1
 40
1
 40
1
 10
354.287110
 20
302.726560
 30
0.0
 10
354.355310
 20
309.317870
 30
0.0
 10
353.900050
 20
315.898390
 30
0.0
 10
353.048830
 20
322.435540
 30
0.0
  0
SPLINE
  5
25f
100
AcDbEntity
  8
0
 62
7
100
AcDbSpline
 70
8
 71
3
 72
8
 73
4
 74
0
 40
0
 40
0
 40
0
 40
0
 40
1
 40
1
 40
1
 40
1
 10
353.048830
 20
322.435540
 30
0.0
 10
353.074630
 20
328.319600
 30
0.0
 10
347.829540
 20
332.288460
 30
0.0
 10
342.355470
 20
332.798830
 30
0.0
  0
SPLINE
  5
260
100
AcDbEntity
  8
0
 62
7
100
AcDbSpline
 70
8
 71
3
 72
8
 73
4
 74
0
 40
0
 40
0
 40
0
 40
0
 40
1
 40
1
 40
1
 40
1
 10
342.355470
 20
332.798830
 30
0.0
 10
340.978960
 20
333.032840
 30
0.0
 10
339.520040
 20
333.140680
 30
0.0
 10
338.048830
 20
333.099610
 30
0.0
  0
LWPOLYLINE
  5
261
100
AcDbEntity
  8
0
 62
7
100
AcDbPolyline
 90
1
 70
1
 10
430.255860
 20
354.851560
 30
0.0
  0
SPLINE
  5
262
100
AcDbEntity
  8
0
 62
7
100
AcDbSpline
 70
8
 71
3
 72
8
 73
4
 74
0
 40
0
 40
0
 40
0
 40
0
 40
1
 40
1
 40
1
 40
1
 10
251.398440
 20
316.066400
 30
0.0
 10
252.072590
 20
316.079200
 30
0.0
 10
252.751200
 20
316.058400
 30
0.0
 10
253.431640
 20
315.998000
 30
0.0
  0
SPLINE
  5
263
100
AcDbEntity
  8
0
 62
7
100
AcDbSpline
 70
8
 71
3
 72
8
 73
4
 74
0
 40
0
 40
0
 40
0
 40
0
 40
1
 40
1
 40
1
 40
1
 10
253.431640
 20
315.998000
 30
0.0
 10
258.453210
 20
315.370100
 30
0.0
 10
264.422670
 20
315.828850
 30
0.0
 10
268.794920
 20
313.685500
 30
0.0
  0
SPLINE
  5
264
100
AcDbEntity
  8
0
 62
7
100
AcDbSpline
 70
8
 71
3
 72
8
 73
4
 74
0
 40
0
 40
0
 40
0
 40
0
 40
1
 40
1
 40
1
 40
1
 10
268.794920
 20
313.685500
 30
0.0
 10
269.077940
 20
301.111330
 30
0.0
 10
268.819120
 20
288.506330
 30
0.0
 10
268.941410
 20
275.923790
 30
0.0
  0
SPLINE
  5
265
100
AcDbEntity
  8
0
 62
7
100
AcDbSpline
 70
8
 71
3
 72
8
 73
4
 74
0
 40
0
 40
0
 40
0
 40
0
 40
1
 40
1
 40
1
 40
1
 10
268.941410
 20
275.923790
 30
0.0
 10
269.963250
 20
270.343190
 30
0.0
 10
268.922910
 20
264.690710
 30
0.0
 10
261.910160
 20
265.701130
 30
0.0
  0
SPLINE
  5
266
100
AcDbEntity
  8
0
 62
7
100
AcDbSpline
 70
8
 71
3
 72
8
 73
4
 74
0
 40
0
 40
0
 40
0
 40
0
 40
1
 40
1
 40
1
 40
1
 10
261.910160
 20
265.701130
 30
0.0
 10
252.877320
 20
265.360170
 30
0.0
 10
242.171120
 20
265.826470
 30
0.0
 10
235.722660
 20
273.087850
 30
0.0
  0
SPLINE
  5
267
100
AcDbEntity
  8
0
 62
7
100
AcDbSpline
 70
8
 71
3
 72
8
 73
4
 74
0
 40
0
 40
0
 40
0
 40
0
 40
1
 40
1
 40
1
 40
1
 10
235.722660
 20
273.087850
 30
0.0
 10
230.150890
 20
279.773580
 30
0.0
 10
228.985420
 20
289.341670
 30
0.0
 10
230.439460
 20
297.706990
 30
0.0
  0
SPLINE
  5
268
100
AcDbEntity
  8
0
 62
7
100
AcDbSpline
 70
8
 71
3
 72
8
 73
4
 74
0
 40
0
 40
0
 40
0
 40
0
 40
1
 40
1
 40
1
 40
1
 10
230.439460
 20
297.706990
 30
0.0
 10
232.100950
 20
307.708890
 30
0.0
 10
241.286200
 20
315.874300
 30
0.0
 10
251.398440
 20
316.066360
 30
0.0
  0
LWPOLYLINE
  5
269
100
AcDbEntity
  8
0
 62
7
100
AcDbPolyline
 90
1
 70
1
 10
338.048830
 20
333.099610
 30
0.0
  0
SPLINE
  5
26a
100
AcDbEntity
  8
0
 62
7
100
AcDbSpline
 70
8
 71
3
 72
8
 73
4
 74
0
 40
0
 40
0
 40
0
 40
0
 40
1
 40
1
 40
1
 40
1
 10
460.710940
 20
240.408200
 30
0.0
 10
456.008680
 20
240.608850
 30
0.0
 10
451.073750
 20
238.953460
 30
0.0
 10
447.080080
 20
236.724610
 30
0.0
  0
SPLINE
  5
26b
100
AcDbEntity
  8
0
 62
7
100
AcDbSpline
 70
8
 71
3
 72
8
 73
4
 74
0
 40
0
 40
0
 40
0
 40
0
 40
1
 40
1
 40
1
 40
1
 10
447.080080
 20
236.724610
 30
0.0
 10
441.964040
 20
233.639240
 30
0.0
 10
442.007080
 20
227.210290
 30
0.0
 10
442.275390
 20
221.964840
 30
0.0
  0
SPLINE
  5
26c
100
AcDbEntity
  8
0
 62
7
100
AcDbSpline
 70
8
 71
3
 72
8
 73
4
 74
0
 40
0
 40
0
 40
0
 40
0
 40
1
 40
1
 40
1
 40
1
 10
442.275390
 20
221.964840
 30
0.0
 10
444.699800
 20
207.909160
 30
0.0
 10
447.958370
 20
193.981230
 30
0.0
 10
450.732420
 20
179.990230
 30
0.0
  0
SPLINE
  5
26d
100
AcDbEntity
  8
0
 62
7
100
AcDbSpline
 70
8
 71
3
 72
8
 73
4
 74
0
 40
0
 40
0
 40
0
 40
0
 40
1
 40
1
 40
1
 40
1
 10
450.732420
 20
179.990230
 30
0.0
 10
456.567840
 20
151.545380
 30
0.0
 10
462.535420
 20
123.136820
 30
0.0
 10
468.289070
 20
94.675780
 30
0.0
  0
SPLINE
  5
26e
100
AcDbEntity
  8
0
 62
7
100
AcDbSpline
 70
8
 71
3
 72
8
 73
4
 74
0
 40
0
 40
0
 40
0
 40
0
 40
1
 40
1
 40
1
 40
1
 10
468.289070
 20
94.675780
 30
0.0
 10
470.682160
 20
85.593340
 30
0.0
 10
470.811680
 20
75.409310
 30
0.0
 10
476.875000
 20
67.759760
 30
0.0
  0
SPLINE
  5
26f
100
AcDbEntity
  8
0
 62
7
100
AcDbSpline
 70
8
 71
3
 72
8
 73
4
 74
0
 40
0
 40
0
 40
0
 40
0
 40
1
 40
1
 40
1
 40
1
 10
476.875000
 20
67.759760
 30
0.0
 10
482.105670
 20
62.670200
 30
0.0
 10
490.778670
 20
63.228710
 30
0.0
 10
496.943360
 20
66.181640
 30
0.0
  0
SPLINE
  5
270
100
AcDbEntity
  8
0
 62
7
100
AcDbSpline
 70
8
 71
3
 72
8
 73
4
 74
0
 40
0
 40
0
 40
0
 40
0
 40
1
 40
1
 40
1
 40
1
 10
496.943360
 20
66.181640
 30
0.0
 10
504.653810
 20
69.279940
 30
0.0
 10
506.044980
 20
78.817980
 30
0.0
 10
504.767580
 20
86.064450
 30
0.0
  0
SPLINE
  5
271
100
AcDbEntity
  8
0
 62
7
100
AcDbSpline
 70
8
 71
3
 72
8
 73
4
 74
0
 40
0
 40
0
 40
0
 40
0
 40
1
 40
1
 40
1
 40
1
 10
504.767580
 20
86.064450
 30
0.0
 10
504.850280
 20
88.872730
 30
0.0
 10
503.973500
 20
91.598150
 30
0.0
 10
503.300780
 20
94.294920
 30
0.0
  0
SPLINE
  5
272
100
AcDbEntity
  8
0
 62
7
100
AcDbSpline
 70
8
 71
3
 72
8
 73
4
 74
0
 40
0
 40
0
 40
0
 40
0
 40
1
 40
1
 40
1
 40
1
 10
503.300780
 20
94.294920
 30
0.0
 10
498.512470
 20
117.605890
 30
0.0
 10
493.669820
 20
140.915220
 30
0.0
 10
488.888670
 20
164.220700
 30
0.0
  0
SPLINE
  5
273
100
AcDbEntity
  8
0
 62
7
100
AcDbSpline
 70
8
 71
3
 72
8
 73
4
 74
0
 40
0
 40
0
 40
0
 40
0
 40
1
 40
1
 40
1
 40
1
 10
488.888670
 20
164.220700
 30
0.0
 10
485.791450
 20
180.575450
 30
0.0
 10
483.062900
 20
197.040700
 30
0.0
 10
478.714850
 20
213.134760
 30
0.0
  0
SPLINE
  5
274
100
AcDbEntity
  8
0
 62
7
100
AcDbSpline
 70
8
 71
3
 72
8
 73
4
 74
0
 40
0
 40
0
 40
0
 40
0
 40
1
 40
1
 40
1
 40
1
 10
478.714850
 20
213.134760
 30
0.0
 10
476.375370
 20
221.643790
 30
0.0
 10
475.856210
 20
231.611970
 30
0.0
 10
468.669920
 20
237.765620
 30
0.0
  0
SPLINE
  5
275
100
AcDbEntity
  8
0
 62
7
100
AcDbSpline
 70
8
 71
3
 72
8
 73
4
 74
0
 40
0
 40
0
 40
0
 40
0
 40
1
 40
1
 40
1
 40
1
 10
468.669920
 20
237.765620
 30
0.0
 10
466.269840
 20
239.499090
 30
0.0
 10
463.532300
 20
240.287810
 30
0.0
 10
460.710940
 20
240.408200
 30
0.0
  0
LWPOLYLINE
  5
276
100
AcDbEntity
  8
0
 62
7
100
AcDbPolyline
 90
1
 70
1
 10
251.398440
 20
316.066360
 30
0.0
  0
SPLINE
  5
277
100
AcDbEntity
  8
0
 62
7
100
AcDbSpline
 70
8
 71
3
 72
8
 73
4
 74
0
 40
0
 40
0
 40
0
 40
0
 40
1
 40
1
 40
1
 40
1
 10
119.484380
 20
235.060540
 30
0.0
 10
110.556680
 20
235.394370
 30
0.0
 10
101.509280
 20
234.390290
 30
0.0
 10
92.835940
 20
232.787110
 30
0.0
  0
SPLINE
  5
278
100
AcDbEntity
  8
0
 62
7
100
AcDbSpline
 70
8
 71
3
 72
8
 73
4
 74
0
 40
0
 40
0
 40
0
 40
0
 40
1
 40
1
 40
1
 40
1
 10
92.835940
 20
232.787110
 30
0.0
 10
76.899870
 20
229.061610
 30
0.0
 10
59.888840
 20
223.635010
 30
0.0
 10
49.136720
 20
210.513670
 30
0.0
  0
SPLINE
  5
279
100
AcDbEntity
  8
0
 62
7
100
AcDbSpline
 70
8
 71
3
 72
8
 73
4
 74
0
 40
0
 40
0
 40
0
 40
0
 40
1
 40
1
 40
1
 40
1
 10
49.136720
 20
210.513670
 30
0.0
 10
34.966600
 20
192.014680
 30
0.0
 10
36.219340
 20
163.360630
 30
0.0
 10
52.074220
 20
146.228510
 30
0.0
  0
SPLINE
  5
27a
100
AcDbEntity
  8
0
 62
7
100
AcDbSpline
 70
8
 71
3
 72
8
 73
4
 74
0
 40
0
 40
0
 40
0
 40
0
 40
1
 40
1
 40
1
 40
1
 10
52.074220
 20
146.228510
 30
0.0
 10
61.474890
 20
134.898750
 30
0.0
 10
77.091680
 20
131.985080
 30
0.0
 10
91.082030
 20
132.689450
 30
0.0
  0
SPLINE
  5
27b
100
AcDbEntity
  8
0
 62
7
100
AcDbSpline
 70
8
 71
3
 72
8
 73
4
 74
0
 40
0
 40
0
 40
0
 40
0
 40
1
 40
1
 40
1
 40
1
 10
91.082030
 20
132.689450
 30
0.0
 10
107.565830
 20
132.736150
 30
0.0
 10
124.564750
 20
138.339690
 30
0.0
 10
140.636720
 20
132.427730
 30
0.0
  0
SPLINE
  5
27c
100
AcDbEntity
  8
0
 62
7
100
AcDbSpline
 70
8
 71
3
 72
8
 73
4
 74
0
 40
0
 40
0
 40
0
 40
0
 40
1
 40
1
 40
1
 40
1
 10
140.636720
 20
132.427730
 30
0.0
 10
149.358620
 20
129.297110
 30
0.0
 10
154.004840
 20
119.941620
 30
0.0
 10
153.787110
 20
111.068360
 30
0.0
  0
SPLINE
  5
27d
100
AcDbEntity
  8
0
 62
7
100
AcDbSpline
 70
8
 71
3
 72
8
 73
4
 74
0
 40
0
 40
0
 40
0
 40
0
 40
1
 40
1
 40
1
 40
1
 10
153.787110
 20
111.068360
 30
0.0
 10
153.242970
 20
97.305240
 30
0.0
 10
140.262930
 20
87.735830
 30
0.0
 10
127.919920
 20
84.560540
 30
0.0
  0
SPLINE
  5
27e
100
AcDbEntity
  8
0
 62
7
100
AcDbSpline
 70
8
 71
3
 72
8
 73
4
 74
0
 40
0
 40
0
 40
0
 40
0
 40
1
 40
1
 40
1
 40
1
 10
127.919920
 20
84.560540
 30
0.0
 10
114.702430
 20
80.288170
 30
0.0
 10
99.792180
 20
84.554540
 30
0.0
 10
90.019530
 20
94.177730
 30
0.0
  0
SPLINE
  5
27f
100
AcDbEntity
  8
0
 62
7
100
AcDbSpline
 70
8
 71
3
 72
8
 73
4
 74
0
 40
0
 40
0
 40
0
 40
0
 40
1
 40
1
 40
1
 40
1
 10
90.019530
 20
94.177730
 30
0.0
 10
85.570970
 20
101.446000
 30
0.0
 10
76.059420
 20
103.794170
 30
0.0
 10
68.253910
 20
101.177730
 30
0.0
  0
SPLINE
  5
280
100
AcDbEntity
  8
0
 62
7
100
AcDbSpline
 70
8
 71
3
 72
8
 73
4
 74
0
 40
0
 40
0
 40
0
 40
0
 40
1
 40
1
 40
1
 40
1
 10
68.253910
 20
101.177730
 30
0.0
 10
59.421330
 20
99.647010
 30
0.0
 10
55.746360
 20
89.245170
 30
0.0
 10
58.289060
 20
81.439450
 30
0.0
  0
SPLINE
  5
281
100
AcDbEntity
  8
0
 62
7
100
AcDbSpline
 70
8
 71
3
 72
8
 73
4
 74
0
 40
0
 40
0
 40
0
 40
0
 40
1
 40
1
 40
1
 40
1
 10
58.289060
 20
81.439450
 30
0.0
 10
61.686320
 20
73.168520
 30
0.0
 10
68.926320
 20
67.067650
 30
0.0
 10
75.912110
 20
61.775390
 30
0.0
  0
SPLINE
  5
282
100
AcDbEntity
  8
0
 62
7
100
AcDbSpline
 70
8
 71
3
 72
8
 73
4
 74
0
 40
0
 40
0
 40
0
 40
0
 40
1
 40
1
 40
1
 40
1
 10
75.912110
 20
61.775390
 30
0.0
 10
92.927190
 20
50.123940
 30
0.0
 10
115.023360
 20
49.792490
 30
0.0
 10
134.363280
 20
54.914060
 30
0.0
  0
SPLINE
  5
283
100
AcDbEntity
  8
0
 62
7
100
AcDbSpline
 70
8
 71
3
 72
8
 73
4
 74
0
 40
0
 40
0
 40
0
 40
0
 40
1
 40
1
 40
1
 40
1
 10
134.363280
 20
54.914060
 30
0.0
 10
154.174920
 20
60.437880
 30
0.0
 10
173.597500
 20
71.967710
 30
0.0
 10
183.876960
 20
90.318360
 30
0.0
  0
SPLINE
  5
284
100
AcDbEntity
  8
0
 62
7
100
AcDbSpline
 70
8
 71
3
 72
8
 73
4
 74
0
 40
0
 40
0
 40
0
 40
0
 40
1
 40
1
 40
1
 40
1
 10
183.876960
 20
90.318360
 30
0.0
 10
191.897910
 20
105.809360
 30
0.0
 10
189.918570
 20
124.941140
 30
0.0
 10
182.271490
 20
140.173830
 30
0.0
  0
SPLINE
  5
285
100
AcDbEntity
  8
0
 62
7
100
AcDbSpline
 70
8
 71
3
 72
8
 73
4
 74
0
 40
0
 40
0
 40
0
 40
0
 40
1
 40
1
 40
1
 40
1
 10
182.271490
 20
140.173830
 30
0.0
 10
175.380820
 20
153.409290
 30
0.0
 10
161.331110
 20
161.481890
 30
0.0
 10
146.914070
 20
163.761720
 30
0.0
  0
SPLINE
  5
286
100
AcDbEntity
  8
0
 62
7
100
AcDbSpline
 70
8
 71
3
 72
8
 73
4
 74
0
 40
0
 40
0
 40
0
 40
0
 40
1
 40
1
 40
1
 40
1
 10
146.914070
 20
163.761720
 30
0.0
 10
134.083110
 20
166.766880
 30
0.0
 10
121.065750
 20
164.033100
 30
0.0
 10
108.218750
 20
162.869140
 30
0.0
  0
SPLINE
  5
287
100
AcDbEntity
  8
0
 62
7
100
AcDbSpline
 70
8
 71
3
 72
8
 73
4
 74
0
 40
0
 40
0
 40
0
 40
0
 40
1
 40
1
 40
1
 40
1
 10
108.218750
 20
162.869140
 30
0.0
 10
97.976890
 20
162.094330
 30
0.0
 10
85.808650
 20
159.851800
 30
0.0
 10
77.404300
 20
167.300780
 30
0.0
  0
SPLINE
  5
288
100
AcDbEntity
  8
0
 62
7
100
AcDbSpline
 70
8
 71
3
 72
8
 73
4
 74
0
 40
0
 40
0
 40
0
 40
0
 40
1
 40
1
 40
1
 40
1
 10
77.404300
 20
167.300780
 30
0.0
 10
71.526120
 20
174.165750
 30
0.0
 10
71.918190
 20
185.073140
 30
0.0
 10
77.460900
 20
192.060540
 30
0.0
  0
SPLINE
  5
289
100
AcDbEntity
  8
0
 62
7
100
AcDbSpline
 70
8
 71
3
 72
8
 73
4
 74
0
 40
0
 40
0
 40
0
 40
0
 40
1
 40
1
 40
1
 40
1
 10
77.460900
 20
192.060540
 30
0.0
 10
87.555200
 20
203.391380
 30
0.0
 10
103.882490
 20
206.321280
 30
0.0
 10
118.400350
 20
205.722650
 30
0.0
  0
SPLINE
  5
28a
100
AcDbEntity
  8
0
 62
7
100
AcDbSpline
 70
8
 71
3
 72
8
 73
4
 74
0
 40
0
 40
0
 40
0
 40
0
 40
1
 40
1
 40
1
 40
1
 10
118.400350
 20
205.722650
 30
0.0
 10
128.905500
 20
205.766950
 30
0.0
 10
137.104540
 20
198.522460
 30
0.0
 10
146.712850
 20
195.552730
 30
0.0
  0
SPLINE
  5
28b
100
AcDbEntity
  8
0
 62
7
100
AcDbSpline
 70
8
 71
3
 72
8
 73
4
 74
0
 40
0
 40
0
 40
0
 40
0
 40
1
 40
1
 40
1
 40
1
 10
146.712850
 20
195.552730
 30
0.0
 10
154.297170
 20
192.982630
 30
0.0
 10
163.446030
 20
199.080720
 30
0.0
 10
163.654260
 20
207.093750
 30
0.0
  0
SPLINE
  5
28c
100
AcDbEntity
  8
0
 62
7
100
AcDbSpline
 70
8
 71
3
 72
8
 73
4
 74
0
 40
0
 40
0
 40
0
 40
0
 40
1
 40
1
 40
1
 40
1
 10
163.654260
 20
207.093750
 30
0.0
 10
162.800070
 20
217.336770
 30
0.0
 10
153.897760
 20
224.742640
 30
0.0
 10
145.415980
 20
229.300780
 30
0.0
  0
SPLINE
  5
28d
100
AcDbEntity
  8
0
 62
7
100
AcDbSpline
 70
8
 71
3
 72
8
 73
4
 74
0
 40
0
 40
0
 40
0
 40
0
 40
1
 40
1
 40
1
 40
1
 10
145.415980
 20
229.300780
 30
0.0
 10
137.219890
 20
233.053670
 30
0.0
 10
128.412030
 20
234.726720
 30
0.0
 10
119.484340
 20
235.060540
 30
0.0
  0
LWPOLYLINE
  5
28e
100
AcDbEntity
  8
0
 62
7
100
AcDbPolyline
 90
1
 70
1
 10
460.710940
 20
240.408200
 30
0.0
  0
SPLINE
  5
28f
100
AcDbEntity
  8
0
 62
7
100
AcDbSpline
 70
8
 71
3
 72
8
 73
4
 74
0
 40
0
 40
0
 40
0
 40
0
 40
1
 40
1
 40
1
 40
1
 10
255.542970
 20
216.275390
 30
0.0
 10
242.722410
 20
216.377880
 30
0.0
 10
230.359070
 20
210.769230
 30
0.0
 10
220.921880
 20
202.281250
 30
0.0
  0
SPLINE
  5
290
100
AcDbEntity
  8
0
 62
7
100
AcDbSpline
 70
8
 71
3
 72
8
 73
4
 74
0
 40
0
 40
0
 40
0
 40
0
 40
1
 40
1
 40
1
 40
1
 10
220.921880
 20
202.281250
 30
0.0
 10
212.087310
 20
193.718560
 30
0.0
 10
206.383330
 20
182.411700
 30
0.0
 10
202.636720
 20
170.804690
 30
0.0
  0
SPLINE
  5
291
100
AcDbEntity
  8
0
 62
7
100
AcDbSpline
 70
8
 71
3
 72
8
 73
4
 74
0
 40
0
 40
0
 40
0
 40
0
 40
1
 40
1
 40
1
 40
1
 10
202.636720
 20
170.804690
 30
0.0
 10
199.812740
 20
161.414270
 30
0.0
 10
197.773050
 20
151.446910
 30
0.0
 10
199.097660
 20
141.617190
 30
0.0
  0
SPLINE
  5
292
100
AcDbEntity
  8
0
 62
7
100
AcDbSpline
 70
8
 71
3
 72
8
 73
4
 74
0
 40
0
 40
0
 40
0
 40
0
 40
1
 40
1
 40
1
 40
1
 10
199.097660
 20
141.617190
 30
0.0
 10
199.971540
 20
130.942140
 30
0.0
 10
204.850000
 20
120.556140
 30
0.0
 10
213.072270
 20
113.572260
 30
0.0
  0
SPLINE
  5
293
100
AcDbEntity
  8
0
 62
7
100
AcDbSpline
 70
8
 71
3
 72
8
 73
4
 74
0
 40
0
 40
0
 40
0
 40
0
 40
1
 40
1
 40
1
 40
1
 10
213.072270
 20
113.572260
 30
0.0
 10
219.216480
 20
108.521320
 30
0.0
 10
226.242090
 20
104.482100
 30
0.0
 10
233.679690
 20
101.648430
 30
0.0
  0
SPLINE
  5
294
100
AcDbEntity
  8
0
 62
7
100
AcDbSpline
 70
8
 71
3
 72
8
 73
4
 74
0
 40
0
 40
0
 40
0
 40
0
 40
1
 40
1
 40
1
 40
1
 10
233.679690
 20
101.648430
 30
0.0
 10
244.372580
 20
97.272890
 30
0.0
 10
255.910410
 20
95.045580
 30
0.0
 10
267.455080
 20
95.113280
 30
0.0
  0
SPLINE
  5
295
100
AcDbEntity
  8
0
 62
7
100
AcDbSpline
 70
8
 71
3
 72
8
 73
4
 74
0
 40
0
 40
0
 40
0
 40
0
 40
1
 40
1
 40
1
 40
1
 10
267.455080
 20
95.113280
 30
0.0
 10
274.597780
 20
95.471100
 30
0.0
 10
282.228830
 20
95.581450
 30
0.0
 10
288.576170
 20
99.326170
 30
0.0
  0
SPLINE
  5
296
100
AcDbEntity
  8
0
 62
7
100
AcDbSpline
 70
8
 71
3
 72
8
 73
4
 74
0
 40
0
 40
0
 40
0
 40
0
 40
1
 40
1
 40
1
 40
1
 10
288.576170
 20
99.326170
 30
0.0
 10
294.341040
 20
102.058640
 30
0.0
 10
299.246700
 20
108.527310
 30
0.0
 10
297.210940
 20
115.130860
 30
0.0
  0
SPLINE
  5
297
100
AcDbEntity
  8
0
 62
7
100
AcDbSpline
 70
8
 71
3
 72
8
 73
4
 74
0
 40
0
 40
0
 40
0
 40
0
 40
1
 40
1
 40
1
 40
1
 10
297.210940
 20
115.130860
 30
0.0
 10
295.665620
 20
121.323400
 30
0.0
 10
288.528080
 20
122.852740
 30
0.0
 10
283.023440
 20
123.058590
 30
0.0
  0
SPLINE
  5
298
100
AcDbEntity
  8
0
 62
7
100
AcDbSpline
 70
8
 71
3
 72
8
 73
4
 74
0
 40
0
 40
0
 40
0
 40
0
 40
1
 40
1
 40
1
 40
1
 10
283.023440
 20
123.058590
 30
0.0
 10
279.072720
 20
123.283330
 30
0.0
 10
275.102190
 20
122.783230
 30
0.0
 10
271.142580
 20
122.945310
 30
0.0
  0
SPLINE
  5
299
100
AcDbEntity
  8
0
 62
7
100
AcDbSpline
 70
8
 71
3
 72
8
 73
4
 74
0
 40
0
 40
0
 40
0
 40
0
 40
1
 40
1
 40
1
 40
1
 10
271.142580
 20
122.945310
 30
0.0
 10
263.758260
 20
122.759010
 30
0.0
 10
256.369350
 20
123.633790
 30
0.0
 10
249.322270
 20
125.906250
 30
0.0
  0
SPLINE
  5
29a
100
AcDbEntity
  8
0
 62
7
100
AcDbSpline
 70
8
 71
3
 72
8
 73
4
 74
0
 40
0
 40
0
 40
0
 40
0
 40
1
 40
1
 40
1
 40
1
 10
249.322270
 20
125.906250
 30
0.0
 10
241.151900
 20
128.824850
 30
0.0
 10
232.178330
 20
133.127920
 30
0.0
 10
228.632810
 20
141.611330
 30
0.0
  0
SPLINE
  5
29b
100
AcDbEntity
  8
0
 62
7
100
AcDbSpline
 70
8
 71
3
 72
8
 73
4
 74
0
 40
0
 40
0
 40
0
 40
0
 40
1
 40
1
 40
1
 40
1
 10
228.632810
 20
141.611330
 30
0.0
 10
227.282180
 20
144.879880
 30
0.0
 10
226.896390
 20
149.626200
 30
0.0
 10
229.712890
 20
152.126950
 30
0.0
  0
SPLINE
  5
29c
100
AcDbEntity
  8
0
 62
7
100
AcDbSpline
 70
8
 71
3
 72
8
 73
4
 74
0
 40
0
 40
0
 40
0
 40
0
 40
1
 40
1
 40
1
 40
1
 10
229.712890
 20
152.126950
 30
0.0
 10
236.493900
 20
150.064880
 30
0.0
 10
243.306680
 20
148.010690
 30
0.0
 10
250.095710
 20
145.925780
 30
0.0
  0
SPLINE
  5
29d
100
AcDbEntity
  8
0
 62
7
100
AcDbSpline
 70
8
 71
3
 72
8
 73
4
 74
0
 40
0
 40
0
 40
0
 40
0
 40
1
 40
1
 40
1
 40
1
 10
250.095710
 20
145.925780
 30
0.0
 10
262.325910
 20
142.396690
 30
0.0
 10
274.647790
 20
139.154890
 30
0.0
 10
287.125000
 20
136.613280
 30
0.0
  0
SPLINE
  5
29e
100
AcDbEntity
  8
0
 62
7
100
AcDbSpline
 70
8
 71
3
 72
8
 73
4
 74
0
 40
0
 40
0
 40
0
 40
0
 40
1
 40
1
 40
1
 40
1
 10
287.125000
 20
136.613280
 30
0.0
 10
293.377010
 20
135.420630
 30
0.0
 10
300.897260
 20
135.659860
 30
0.0
 10
305.283210
 20
140.972650
 30
0.0
  0
SPLINE
  5
29f
100
AcDbEntity
  8
0
 62
7
100
AcDbSpline
 70
8
 71
3
 72
8
 73
4
 74
0
 40
0
 40
0
 40
0
 40
0
 40
1
 40
1
 40
1
 40
1
 10
305.283210
 20
140.972650
 30
0.0
 10
310.596760
 20
146.448670
 30
0.0
 10
312.371420
 20
154.231670
 30
0.0
 10
313.316410
 20
161.554690
 30
0.0
  0
SPLINE
  5
2a0
100
AcDbEntity
  8
0
 62
7
100
AcDbSpline
 70
8
 71
3
 72
8
 73
4
 74
0
 40
0
 40
0
 40
0
 40
0
 40
1
 40
1
 40
1
 40
1
 10
313.316410
 20
161.554690
 30
0.0
 10
314.608170
 20
169.608490
 30
0.0
 10
312.677610
 20
177.859530
 30
0.0
 10
309.042970
 20
185.056640
 30
0.0
  0
SPLINE
  5
2a1
100
AcDbEntity
  8
0
 62
7
100
AcDbSpline
 70
8
 71
3
 72
8
 73
4
 74
0
 40
0
 40
0
 40
0
 40
0
 40
1
 40
1
 40
1
 40
1
 10
309.042970
 20
185.056640
 30
0.0
 10
304.029450
 20
194.891720
 30
0.0
 10
295.606340
 20
202.488610
 30
0.0
 10
286.244140
 20
208.111330
 30
0.0
  0
SPLINE
  5
2a2
100
AcDbEntity
  8
0
 62
7
100
AcDbSpline
 70
8
 71
3
 72
8
 73
4
 74
0
 40
0
 40
0
 40
0
 40
0
 40
1
 40
1
 40
1
 40
1
 10
286.244140
 20
208.111330
 30
0.0
 10
276.904920
 20
213.239240
 30
0.0
 10
266.245870
 20
216.404010
 30
0.0
 10
255.542970
 20
216.275390
 30
0.0
  0
LWPOLYLINE
  5
2a3
100
AcDbEntity
  8
0
 62
7
100
AcDbPolyline
 90
1
 70
1
 10
119.484340
 20
235.060540
 30
0.0
  0
SPLINE
  5
2a4
100
AcDbEntity
  8
0
 62
7
100
AcDbSpline
 70
8
 71
3
 72
8
 73
4
 74
0
 40
0
 40
0
 40
0
 40
0
 40
1
 40
1
 40
1
 40
1
 10
382.119140
 20
194.152340
 30
0.0
 10
367.439500
 20
194.385860
 30
0.0
 10
353.108570
 20
187.734850
 30
0.0
 10
343.398440
 20
176.794920
 30
0.0
  0
SPLINE
  5
2a5
100
AcDbEntity
  8
0
 62
7
100
AcDbSpline
 70
8
 71
3
 72
8
 73
4
 74
0
 40
0
 40
0
 40
0
 40
0
 40
1
 40
1
 40
1
 40
1
 10
343.398440
 20
176.794920
 30
0.0
 10
330.481340
 20
162.570290
 30
0.0
 10
321.238970
 20
142.935130
 30
0.0
 10
324.917970
 20
123.400390
 30
0.0
  0
SPLINE
  5
2a6
100
AcDbEntity
  8
0
 62
7
100
AcDbSpline
 70
8
 71
3
 72
8
 73
4
 74
0
 40
0
 40
0
 40
0
 40
0
 40
1
 40
1
 40
1
 40
1
 10
324.917970
 20
123.400390
 30
0.0
 10
326.448300
 20
113.177590
 30
0.0
 10
332.340070
 20
104.004970
 30
0.0
 10
340.722660
 20
98.033200
 30
0.0
  0
SPLINE
  5
2a7
100
AcDbEntity
  8
0
 62
7
100
AcDbSpline
 70
8
 71
3
 72
8
 73
4
 74
0
 40
0
 40
0
 40
0
 40
0
 40
1
 40
1
 40
1
 40
1
 10
340.722660
 20
98.033200
 30
0.0
 10
347.241360
 20
92.673860
 30
0.0
 10
354.675520
 20
88.438800
 30
0.0
 10
362.593750
 20
85.517580
 30
0.0
  0
SPLINE
  5
2a8
100
AcDbEntity
  8
0
 62
7
100
AcDbSpline
 70
8
 71
3
 72
8
 73
4
 74
0
 40
0
 40
0
 40
0
 40
0
 40
1
 40
1
 40
1
 40
1
 10
362.593750
 20
85.517580
 30
0.0
 10
362.921450
 20
78.857770
 30
0.0
 10
361.748710
 20
71.996920
 30
0.0
 10
363.632810
 20
65.521480
 30
0.0
  0
SPLINE
  5
2a9
100
AcDbEntity
  8
0
 62
7
100
AcDbSpline
 70
8
 71
3
 72
8
 73
4
 74
0
 40
0
 40
0
 40
0
 40
0
 40
1
 40
1
 40
1
 40
1
 10
363.632810
 20
65.521480
 30
0.0
 10
365.955400
 20
58.861640
 30
0.0
 10
372.718200
 20
54.090370
 30
0.0
 10
379.781250
 20
54.203120
 30
0.0
  0
LWPOLYLINE
  5
2aa
100
AcDbEntity
  8
0
 62
7
100
AcDbPolyline
 90
1
 70
1
 10
255.542970
 20
216.275390
 30
0.0
  0
SPLINE
  5
2ab
100
AcDbEntity
  8
0
 62
7
100
AcDbSpline
 70
8
 71
3
 72
8
 73
4
 74
0
 40
0
 40
0
 40
0
 40
0
 40
1
 40
1
 40
1
 40
1
 10
379.781250
 20
81.718750
 30
0.0
 10
387.474530
 20
81.410380
 30
0.0
 10
394.768310
 20
84.189160
 30
0.0
 10
401.638670
 20
87.332030
 30
0.0
  0
SPLINE
  5
2ac
100
AcDbEntity
  8
0
 62
7
100
AcDbSpline
 70
8
 71
3
 72
8
 73
4
 74
0
 40
0
 40
0
 40
0
 40
0
 40
1
 40
1
 40
1
 40
1
 10
401.638670
 20
87.332030
 30
0.0
 10
403.398030
 20
83.130640
 30
0.0
 10
403.363850
 20
77.157180
 30
0.0
 10
405.794920
 20
72.660150
 30
0.0
  0
SPLINE
  5
2ad
100
AcDbEntity
  8
0
 62
7
100
AcDbSpline
 70
8
 71
3
 72
8
 73
4
 74
0
 40
0
 40
0
 40
0
 40
0
 40
1
 40
1
 40
1
 40
1
 10
405.794920
 20
72.660150
 30
0.0
 10
405.492010
 20
68.765430
 30
0.0
 10
397.480160
 20
66.244900
 30
0.0
 10
395.998050
 20
61.210930
 30
0.0
  0
SPLINE
  5
2ae
100
AcDbEntity
  8
0
 62
7
100
AcDbSpline
 70
8
 71
3
 72
8
 73
4
 74
0
 40
0
 40
0
 40
0
 40
0
 40
1
 40
1
 40
1
 40
1
 10
395.998050
 20
61.210930
 30
0.0
 10
394.638110
 20
58.354780
 30
0.0
 10
390.498550
 20
50.840380
 30
0.0
 10
394.267580
 20
49.890620
 30
0.0
  0
SPLINE
  5
2af
100
AcDbEntity
  8
0
 62
7
100
AcDbSpline
 70
8
 71
3
 72
8
 73
4
 74
0
 40
0
 40
0
 40
0
 40
0
 40
1
 40
1
 40
1
 40
1
 10
394.267580
 20
49.890620
 30
0.0
 10
400.426420
 20
50.100770
 30
0.0
 10
406.667560
 20
49.425520
 30
0.0
 10
412.763670
 20
50.316400
 30
0.0
  0
SPLINE
  5
2b0
100
AcDbEntity
  8
0
 62
7
100
AcDbSpline
 70
8
 71
3
 72
8
 73
4
 74
0
 40
0
 40
0
 40
0
 40
0
 40
1
 40
1
 40
1
 40
1
 10
412.763670
 20
50.316400
 30
0.0
 10
417.016600
 20
50.521170
 30
0.0
 10
422.754900
 20
56.432680
 30
0.0
 10
423.003910
 20
57.708980
 30
0.0
  0
SPLINE
  5
2b1
100
AcDbEntity
  8
0
 62
7
100
AcDbSpline
 70
8
 71
3
 72
8
 73
4
 74
0
 40
0
 40
0
 40
0
 40
0
 40
1
 40
1
 40
1
 40
1
 10
423.003910
 20
57.708980
 30
0.0
 10
425.840100
 20
51.611690
 30
0.0
 10
433.390370
 20
49.404010
 30
0.0
 10
439.714850
 20
49.890620
 30
0.0
  0
LWPOLYLINE
  5
2b2
100
AcDbEntity
  8
0
 62
7
100
AcDbPolyline
 90
2
 70
0
 10
379.781250
 20
54.203120
 30
0.0
 10
379.781250
 20
81.718750
 30
0.0
  0
SPLINE
  5
2b3
100
AcDbEntity
  8
0
 62
7
100
AcDbSpline
 70
8
 71
3
 72
8
 73
4
 74
0
 40
0
 40
0
 40
0
 40
0
 40
1
 40
1
 40
1
 40
1
 10
453.093750
 20
49.890620
 30
0.0
 10
452.956090
 20
61.793380
 30
0.0
 10
442.932680
 20
71.573290
 30
0.0
 10
431.906250
 20
74.533200
 30
0.0
  0
SPLINE
  5
2b4
100
AcDbEntity
  8
0
 62
7
100
AcDbSpline
 70
8
 71
3
 72
8
 73
4
 74
0
 40
0
 40
0
 40
0
 40
0
 40
1
 40
1
 40
1
 40
1
 10
431.906250
 20
74.533200
 30
0.0
 10
435.863730
 20
91.429480
 30
0.0
 10
430.495580
 20
109.140290
 30
0.0
 10
435.281250
 20
125.939450
 30
0.0
  0
SPLINE
  5
2b5
100
AcDbEntity
  8
0
 62
7
100
AcDbSpline
 70
8
 71
3
 72
8
 73
4
 74
0
 40
0
 40
0
 40
0
 40
0
 40
1
 40
1
 40
1
 40
1
 10
435.281250
 20
125.939450
 30
0.0
 10
439.192930
 20
140.079910
 30
0.0
 10
438.528660
 20
156.041450
 30
0.0
 10
430.466800
 20
168.660150
 30
0.0
  0
SPLINE
  5
2b6
100
AcDbEntity
  8
0
 62
7
100
AcDbSpline
 70
8
 71
3
 72
8
 73
4
 74
0
 40
0
 40
0
 40
0
 40
0
 40
1
 40
1
 40
1
 40
1
 10
430.466800
 20
168.660150
 30
0.0
 10
420.829500
 20
184.813400
 30
0.0
 10
402.013010
 20
193.799630
 30
0.0
 10
383.546880
 20
194.109370
 30
0.0
  0
LWPOLYLINE
  5
2b7
100
AcDbEntity
  8
0
 62
7
100
AcDbPolyline
 90
2
 70
0
 10
439.714850
 20
49.890620
 30
0.0
 10
453.093750
 20
49.890620
 30
0.0
  0
SPLINE
  5
2b8
100
AcDbEntity
  8
0
 62
7
100
AcDbSpline
 70
8
 71
3
 72
8
 73
4
 74
0
 40
0
 40
0
 40
0
 40
0
 40
1
 40
1
 40
1
 40
1
 10
259.177740
 20
189.154290
 30
0.0
 10
262.674770
 20
189.305960
 30
0.0
 10
266.212320
 20
188.852900
 30
0.0
 10
269.488280
 20
187.906250
 30
0.0
  0
SPLINE
  5
2b9
100
AcDbEntity
  8
0
 62
7
100
AcDbSpline
 70
8
 71
3
 72
8
 73
4
 74
0
 40
0
 40
0
 40
0
 40
0
 40
1
 40
1
 40
1
 40
1
 10
269.488280
 20
187.906250
 30
0.0
 10
276.412850
 20
186.614400
 30
0.0
 10
280.980530
 20
180.611040
 30
0.0
 10
284.025390
 20
174.710930
 30
0.0
  0
SPLINE
  5
2ba
100
AcDbEntity
  8
0
 62
7
100
AcDbSpline
 70
8
 71
3
 72
8
 73
4
 74
0
 40
0
 40
0
 40
0
 40
0
 40
1
 40
1
 40
1
 40
1
 10
284.025390
 20
174.710930
 30
0.0
 10
285.018200
 20
172.991610
 30
0.0
 10
285.792320
 20
171.141100
 30
0.0
 10
286.228520
 20
169.201170
 30
0.0
  0
SPLINE
  5
2bb
100
AcDbEntity
  8
0
 62
7
100
AcDbSpline
 70
8
 71
3
 72
8
 73
4
 74
0
 40
0
 40
0
 40
0
 40
0
 40
1
 40
1
 40
1
 40
1
 10
286.228520
 20
169.201170
 30
0.0
 10
286.532940
 20
167.004900
 30
0.0
 10
288.043220
 20
161.436380
 30
0.0
 10
284.300780
 20
162.185540
 30
0.0
  0
SPLINE
  5
2bc
100
AcDbEntity
  8
0
 62
7
100
AcDbSpline
 70
8
 71
3
 72
8
 73
4
 74
0
 40
0
 40
0
 40
0
 40
0
 40
1
 40
1
 40
1
 40
1
 10
284.300780
 20
162.185540
 30
0.0
 10
271.679840
 20
165.656040
 30
0.0
 10
259.049980
 20
169.072230
 30
0.0
 10
246.441410
 20
172.601560
 30
0.0
  0
SPLINE
  5
2bd
100
AcDbEntity
  8
0
 62
7
100
AcDbSpline
 70
8
 71
3
 72
8
 73
4
 74
0
 40
0
 40
0
 40
0
 40
0
 40
1
 40
1
 40
1
 40
1
 10
246.441410
 20
172.601560
 30
0.0
 10
243.478330
 20
173.748510
 30
0.0
 10
239.795000
 20
173.578840
 30
0.0
 10
237.359380
 20
175.710930
 30
0.0
  0
SPLINE
  5
2be
100
AcDbEntity
  8
0
 62
7
100
AcDbSpline
 70
8
 71
3
 72
8
 73
4
 74
0
 40
0
 40
0
 40
0
 40
0
 40
1
 40
1
 40
1
 40
1
 10
237.359380
 20
175.710930
 30
0.0
 10
238.364280
 20
178.740270
 30
0.0
 10
241.034520
 20
180.845940
 30
0.0
 10
243.419920
 20
182.822260
 30
0.0
  0
SPLINE
  5
2bf
100
AcDbEntity
  8
0
 62
7
100
AcDbSpline
 70
8
 71
3
 72
8
 73
4
 74
0
 40
0
 40
0
 40
0
 40
0
 40
1
 40
1
 40
1
 40
1
 10
243.419920
 20
182.822260
 30
0.0
 10
247.632570
 20
186.966290
 30
0.0
 10
253.349350
 20
188.901520
 30
0.0
 10
259.177740
 20
189.154290
 30
0.0
  0
LWPOLYLINE
  5
2c0
100
AcDbEntity
  8
0
 62
7
100
AcDbPolyline
 90
2
 70
0
 10
383.546880
 20
194.109370
 30
0.0
 10
382.119140
 20
194.152340
 30
0.0
  0
SPLINE
  5
2c1
100
AcDbEntity
  8
0
 62
7
100
AcDbSpline
 70
8
 71
3
 72
8
 73
4
 74
0
 40
0
 40
0
 40
0
 40
0
 40
1
 40
1
 40
1
 40
1
 10
380.406250
 20
165.593750
 30
0.0
 10
391.720620
 20
165.647450
 30
0.0
 10
404.714040
 20
159.667700
 30
0.0
 10
407.623050
 20
147.845700
 30
0.0
  0
SPLINE
  5
2c2
100
AcDbEntity
  8
0
 62
7
100
AcDbSpline
 70
8
 71
3
 72
8
 73
4
 74
0
 40
0
 40
0
 40
0
 40
0
 40
1
 40
1
 40
1
 40
1
 10
407.623050
 20
147.845700
 30
0.0
 10
410.618410
 20
132.007650
 30
0.0
 10
399.327870
 20
114.627810
 30
0.0
 10
383.533210
 20
111.216790
 30
0.0
  0
SPLINE
  5
2c3
100
AcDbEntity
  8
0
 62
7
100
AcDbSpline
 70
8
 71
3
 72
8
 73
4
 74
0
 40
0
 40
0
 40
0
 40
0
 40
1
 40
1
 40
1
 40
1
 10
383.533210
 20
111.216790
 30
0.0
 10
373.832530
 20
109.019500
 30
0.0
 10
364.934240
 20
115.656990
 30
0.0
 10
358.634770
 20
122.296870
 30
0.0
  0
SPLINE
  5
2c4
100
AcDbEntity
  8
0
 62
7
100
AcDbSpline
 70
8
 71
3
 72
8
 73
4
 74
0
 40
0
 40
0
 40
0
 40
0
 40
1
 40
1
 40
1
 40
1
 10
358.634770
 20
122.296870
 30
0.0
 10
351.631160
 20
129.544650
 30
0.0
 10
353.739950
 20
140.843740
 30
0.0
 10
357.460940
 20
149.162110
 30
0.0
  0
SPLINE
  5
2c5
100
AcDbEntity
  8
0
 62
7
100
AcDbSpline
 70
8
 71
3
 72
8
 73
4
 74
0
 40
0
 40
0
 40
0
 40
0
 40
1
 40
1
 40
1
 40
1
 10
357.460940
 20
149.162110
 30
0.0
 10
361.637070
 20
157.917220
 30
0.0
 10
370.344980
 20
165.403880
 30
0.0
 10
380.406250
 20
165.593750
 30
0.0
  0
LWPOLYLINE
  5
2c6
100
AcDbEntity
  8
0
 62
7
100
AcDbPolyline
 90
1
 70
1
 10
259.177740
 20
189.154290
 30
0.0
  0
LWPOLYLINE
  5
2c7
100
AcDbEntity
  8
0
 62
7
100
AcDbPolyline
 90
1
 70
1
 10
380.406250
 20
165.593750
 30
0.0
  0
SPLINE
  5
2c8
100
AcDbEntity
  8
0
 62
7
100
AcDbSpline
 70
8
 71
3
 72
8
 73
4
 74
0
 40
0
 40
0
 40
0
 40
0
 40
1
 40
1
 40
1
 40
1
 10
466.694453
 20
193.963469
 30
0.0
 10
466.823240
 20
193.382424
 30
0.0
 10
466.712546
 20
192.883048
 30
0.0
 10
466.362372
 20
192.465341
 30
0.0
  0
SPLINE
  5
2c9
100
AcDbEntity
  8
0
 62
7
100
AcDbSpline
 70
8
 71
3
 72
8
 73
4
 74
0
 40
0
 40
0
 40
0
 40
0
 40
1
 40
1
 40
1
 40
1
 10
466.362372
 20
192.465341
 30
0.0
 10
466.012205
 20
192.047636
 30
0.0
 10
465.479318
 20
191.759478
 30
0.0
 10
464.763712
 20
191.600866
 30
0.0
  0
SPLINE
  5
2ca
100
AcDbEntity
  8
0
 62
7
100
AcDbSpline
 70
8
 71
3
 72
8
 73
4
 74
0
 40
0
 40
0
 40
0
 40
0
 40
1
 40
1
 40
1
 40
1
 10
464.763712
 20
191.600866
 30
0.0
 10
464.396731
 20
191.519525
 30
0.0
 10
464.051174
 20
191.471818
 30
0.0
 10
463.727040
 20
191.457743
 30
0.0
  0
SPLINE
  5
2cb
100
AcDbEntity
  8
0
 62
7
100
AcDbSpline
 70
8
 71
3
 72
8
 73
4
 74
0
 40
0
 40
0
 40
0
 40
0
 40
1
 40
1
 40
1
 40
1
 10
463.727040
 20
191.457743
 30
0.0
 10
463.402905
 20
191.443669
 30
0.0
 10
463.126018
 20
191.462508
 30
0.0
 10
462.896378
 20
191.514261
 30
0.0
  0
LWPOLYLINE
  5
2cc
100
AcDbEntity
  8
0
 62
1
100
AcDbPolyline
 90
3
 70
0
 10
457.711580
 20
206.957000
 30
0.0
 10
464.859160
 20
217.259550
 30
0.0
 10
455.469980
 20
223.912110
 30
0.0
  0
SPLINE
  5
2cd
100
AcDbEntity
  8
0
 62
7
100
AcDbSpline
 70
8
 71
3
 72
8
 73
4
 74
0
 40
0
 40
0
 40
0
 40
0
 40
1
 40
1
 40
1
 40
1
 10
462.721498
 20
192.303263
 30
0.0
 10
462.963372
 20
192.254201
 30
0.0
 10
463.255204
 20
192.225840
 30
0.0
 10
463.596993
 20
192.218180
 30
0.0
  0
SPLINE
  5
2ce
100
AcDbEntity
  8
0
 62
7
100
AcDbSpline
 70
8
 71
3
 72
8
 73
4
 74
0
 40
0
 40
0
 40
0
 40
0
 40
1
 40
1
 40
1
 40
1
 10
463.596993
 20
192.218180
 30
0.0
 10
463.944894
 20
192.211875
 30
0.0
 10
464.293158
 20
192.247358
 30
0.0
 10
464.641783
 20
192.324630
 30
0.0
  0
SPLINE
  5
2cf
100
AcDbEntity
  8
0
 62
7
100
AcDbSpline
 70
8
 71
3
 72
8
 73
4
 74
0
 40
0
 40
0
 40
0
 40
0
 40
1
 40
1
 40
1
 40
1
 10
464.641783
 20
192.324630
 30
0.0
 10
465.131088
 20
192.433083
 30
0.0
 10
465.477056
 20
192.609226
 30
0.0
 10
465.679686
 20
192.853058
 30
0.0
  0
SPLINE
  5
2d0
100
AcDbEntity
  8
0
 62
7
100
AcDbSpline
 70
8
 71
3
 72
8
 73
4
 74
0
 40
0
 40
0
 40
0
 40
0
 40
1
 40
1
 40
1
 40
1
 10
465.679686
 20
192.853058
 30
0.0
 10
465.888428
 20
193.098245
 30
0.0
 10
465.956875
 20
193.382918
 30
0.0
 10
465.885026
 20
193.707078
 30
0.0
  0
SPLINE
  5
2d1
100
AcDbEntity
  8
0
 62
7
100
AcDbSpline
 70
8
 71
3
 72
8
 73
4
 74
0
 40
0
 40
0
 40
0
 40
0
 40
1
 40
1
 40
1
 40
1
 10
465.885026
 20
193.707078
 30
0.0
 10
465.837578
 20
193.921149
 30
0.0
 10
465.751712
 20
194.091412
 30
0.0
 10
465.627430
 20
194.217868
 30
0.0
  0
SPLINE
  5
2d2
100
AcDbEntity
  8
0
 62
7
100
AcDbSpline
 70
8
 71
3
 72
8
 73
4
 74
0
 40
0
 40
0
 40
0
 40
0
 40
1
 40
1
 40
1
 40
1
 10
465.627430
 20
194.217868
 30
0.0
 10
465.503147
 20
194.344323
 30
0.0
 10
465.314299
 20
194.443634
 30
0.0
 10
465.060885
 20
194.515799
 30
0.0
  0
SPLINE
  5
2d3
100
AcDbEntity
  8
0
 62
7
100
AcDbSpline
 70
8
 71
3
 72
8
 73
4
 74
0
 40
0
 40
0
 40
0
 40
0
 40
1
 40
1
 40
1
 40
1
 10
465.060885
 20
194.515799
 30
0.0
 10
464.812233
 20
194.595439
 30
0.0
 10
464.473535
 20
194.661536
 30
0.0
 10
464.044790
 20
194.714090
 30
0.0
  0
SPLINE
  5
2d4
100
AcDbEntity
  8
0
 62
7
100
AcDbSpline
 70
8
 71
3
 72
8
 73
4
 74
0
 40
0
 40
0
 40
0
 40
0
 40
1
 40
1
 40
1
 40
1
 10
464.044790
 20
194.714090
 30
0.0
 10
463.443474
 20
194.792567
 30
0.0
 10
462.966548
 20
194.946739
 30
0.0
 10
462.614013
 20
195.176605
 30
0.0
  0
SPLINE
  5
2d5
100
AcDbEntity
  8
0
 62
7
100
AcDbSpline
 70
8
 71
3
 72
8
 73
4
 74
0
 40
0
 40
0
 40
0
 40
0
 40
1
 40
1
 40
1
 40
1
 10
462.614013
 20
195.176605
 30
0.0
 10
462.267590
 20
195.407826
 30
0.0
 10
462.038118
 20
195.777263
 30
0.0
 10
461.925598
 20
196.284916
 30
0.0
  0
SPLINE
  5
2d6
100
AcDbEntity
  8
0
 62
7
100
AcDbSpline
 70
8
 71
3
 72
8
 73
4
 74
0
 40
0
 40
0
 40
0
 40
0
 40
1
 40
1
 40
1
 40
1
 10
461.925598
 20
196.284916
 30
0.0
 10
461.848327
 20
196.633542
 30
0.0
 10
461.871265
 20
196.949840
 30
0.0
 10
461.994413
 20
197.233810
 30
0.0
  0
SPLINE
  5
2d7
100
AcDbEntity
  8
0
 62
7
100
AcDbSpline
 70
8
 71
3
 72
8
 73
4
 74
0
 40
0
 40
0
 40
0
 40
0
 40
1
 40
1
 40
1
 40
1
 10
461.994413
 20
197.233810
 30
0.0
 10
462.116199
 20
197.523891
 30
0.0
 10
462.318146
 20
197.770778
 30
0.0
 10
462.600252
 20
197.974470
 30
0.0
  0
SPLINE
  5
2d8
100
AcDbEntity
  8
0
 62
7
100
AcDbSpline
 70
8
 71
3
 72
8
 73
4
 74
0
 40
0
 40
0
 40
0
 40
0
 40
1
 40
1
 40
1
 40
1
 10
462.600252
 20
197.974470
 30
0.0
 10
462.888475
 20
198.179526
 30
0.0
 10
463.237484
 20
198.327468
 30
0.0
 10
463.647278
 20
198.418298
 30
0.0
  0
SPLINE
  5
2d9
100
AcDbEntity
  8
0
 62
7
100
AcDbSpline
 70
8
 71
3
 72
8
 73
4
 74
0
 40
0
 40
0
 40
0
 40
0
 40
1
 40
1
 40
1
 40
1
 10
463.647278
 20
198.418298
 30
0.0
 10
464.008134
 20
198.498281
 30
0.0
 10
464.345868
 20
198.537845
 30
0.0
 10
464.660480
 20
198.536993
 30
0.0
  0
SPLINE
  5
2da
100
AcDbEntity
  8
0
 62
7
100
AcDbSpline
 70
8
 71
3
 72
8
 73
4
 74
0
 40
0
 40
0
 40
0
 40
0
 40
1
 40
1
 40
1
 40
1
 10
464.660480
 20
198.536993
 30
0.0
 10
464.975093
 20
198.536140
 30
0.0
 10
465.266925
 20
198.507779
 30
0.0
 10
465.535976
 20
198.451910
 30
0.0
  0
LWPOLYLINE
  5
2db
100
AcDbEntity
  8
0
 62
7
100
AcDbPolyline
 90
2
 70
0
 10
462.896378
 20
191.514261
 30
0.0
 10
462.721498
 20
192.303263
 30
0.0
  0
SPLINE
  5
2dc
100
AcDbEntity
  8
0
 62
7
100
AcDbSpline
 70
8
 71
3
 72
8
 73
4
 74
0
 40
0
 40
0
 40
0
 40
0
 40
1
 40
1
 40
1
 40
1
 10
465.435668
 20
197.688546
 30
0.0
 10
465.187676
 20
197.736246
 30
0.0
 10
464.921667
 20
197.763911
 30
0.0
 10
464.637639
 20
197.771543
 30
0.0
  0
SPLINE
  5
2dd
100
AcDbEntity
  8
0
 62
7
100
AcDbSpline
 70
8
 71
3
 72
8
 73
4
 74
0
 40
0
 40
0
 40
0
 40
0
 40
1
 40
1
 40
1
 40
1
 10
464.637639
 20
197.771543
 30
0.0
 10
464.359729
 20
197.780531
 30
0.0
 10
464.077039
 20
197.753167
 30
0.0
 10
463.789569
 20
197.689450
 30
0.0
  0
SPLINE
  5
2de
100
AcDbEntity
  8
0
 62
7
100
AcDbSpline
 70
8
 71
3
 72
8
 73
4
 74
0
 40
0
 40
0
 40
0
 40
0
 40
1
 40
1
 40
1
 40
1
 10
463.789569
 20
197.689450
 30
0.0
 10
463.379781
 20
197.598621
 30
0.0
 10
463.090568
 20
197.441473
 30
0.0
 10
462.921929
 20
197.218006
 30
0.0
  0
SPLINE
  5
2df
100
AcDbEntity
  8
0
 62
7
100
AcDbSpline
 70
8
 71
3
 72
8
 73
4
 74
0
 40
0
 40
0
 40
0
 40
0
 40
1
 40
1
 40
1
 40
1
 10
462.921929
 20
197.218006
 30
0.0
 10
462.751935
 20
197.000657
 30
0.0
 10
462.698795
 20
196.748250
 30
0.0
 10
462.762511
 20
196.460787
 30
0.0
  0
SPLINE
  5
2e0
100
AcDbEntity
  8
0
 62
7
100
AcDbSpline
 70
8
 71
3
 72
8
 73
4
 74
0
 40
0
 40
0
 40
0
 40
0
 40
1
 40
1
 40
1
 40
1
 10
462.762511
 20
196.460787
 30
0.0
 10
462.811314
 20
196.240604
 30
0.0
 10
462.897853
 20
196.067284
 30
0.0
 10
463.022129
 20
195.940827
 30
0.0
  0
SPLINE
  5
2e1
100
AcDbEntity
  8
0
 62
7
100
AcDbSpline
 70
8
 71
3
 72
8
 73
4
 74
0
 40
0
 40
0
 40
0
 40
0
 40
1
 40
1
 40
1
 40
1
 10
463.022129
 20
195.940827
 30
0.0
 10
463.146411
 20
195.814372
 30
0.0
 10
463.325408
 20
195.716084
 30
0.0
 10
463.559120
 20
195.645963
 30
0.0
  0
SPLINE
  5
2e2
100
AcDbEntity
  8
0
 62
7
100
AcDbSpline
 70
8
 71
3
 72
8
 73
4
 74
0
 40
0
 40
0
 40
0
 40
0
 40
1
 40
1
 40
1
 40
1
 10
463.559120
 20
195.645963
 30
0.0
 10
463.792830
 20
195.575849
 30
0.0
 10
464.101969
 20
195.512825
 30
0.0
 10
464.486538
 20
195.456892
 30
0.0
  0
SPLINE
  5
2e3
100
AcDbEntity
  8
0
 62
7
100
AcDbSpline
 70
8
 71
3
 72
8
 73
4
 74
0
 40
0
 40
0
 40
0
 40
0
 40
1
 40
1
 40
1
 40
1
 10
464.486538
 20
195.456892
 30
0.0
 10
464.903046
 20
195.401626
 30
0.0
 10
465.261100
 20
195.320570
 30
0.0
 10
465.560700
 20
195.213724
 30
0.0
  0
SPLINE
  5
2e4
100
AcDbEntity
  8
0
 62
7
100
AcDbSpline
 70
8
 71
3
 72
8
 73
4
 74
0
 40
0
 40
0
 40
0
 40
0
 40
1
 40
1
 40
1
 40
1
 10
465.560700
 20
195.213724
 30
0.0
 10
465.865063
 20
195.114345
 30
0.0
 10
466.109605
 20
194.966418
 30
0.0
 10
466.294325
 20
194.769942
 30
0.0
  0
SPLINE
  5
2e5
100
AcDbEntity
  8
0
 62
7
100
AcDbSpline
 70
8
 71
3
 72
8
 73
4
 74
0
 40
0
 40
0
 40
0
 40
0
 40
1
 40
1
 40
1
 40
1
 10
466.294325
 20
194.769942
 30
0.0
 10
466.485157
 20
194.574820
 30
0.0
 10
466.618531
 20
194.306002
 30
0.0
 10
466.694448
 20
193.963488
 30
0.0
  0
LWPOLYLINE
  5
2e6
100
AcDbEntity
  8
0
 62
7
100
AcDbPolyline
 90
2
 70
0
 10
465.535976
 20
198.451910
 30
0.0
 10
465.435668
 20
197.688546
 30
0.0
  0
SPLINE
  5
2e7
100
AcDbEntity
  8
0
 62
7
100
AcDbSpline
 70
8
 71
3
 72
8
 73
4
 74
0
 40
0
 40
0
 40
0
 40
0
 40
1
 40
1
 40
1
 40
1
 10
470.378341
 20
183.335689
 30
0.0
 10
470.478661
 20
182.883080
 30
0.0
 10
470.477746
 20
182.452954
 30
0.0
 10
470.375598
 20
182.045311
 30
0.0
  0
SPLINE
  5
2e8
100
AcDbEntity
  8
0
 62
7
100
AcDbSpline
 70
8
 71
3
 72
8
 73
4
 74
0
 40
0
 40
0
 40
0
 40
0
 40
1
 40
1
 40
1
 40
1
 10
470.375598
 20
182.045311
 30
0.0
 10
470.272095
 20
181.643779
 30
0.0
 10
470.054463
 20
181.293952
 30
0.0
 10
469.722701
 20
180.995830
 30
0.0
  0
SPLINE
  5
2e9
100
AcDbEntity
  8
0
 62
7
100
AcDbSpline
 70
8
 71
3
 72
8
 73
4
 74
0
 40
0
 40
0
 40
0
 40
0
 40
1
 40
1
 40
1
 40
1
 10
469.722701
 20
180.995830
 30
0.0
 10
469.395694
 20
180.705181
 30
0.0
 10
468.941669
 20
180.495463
 30
0.0
 10
468.360624
 20
180.366676
 30
0.0
  0
SPLINE
  5
2ea
100
AcDbEntity
  8
0
 62
7
100
AcDbSpline
 70
8
 71
3
 72
8
 73
4
 74
0
 40
0
 40
0
 40
0
 40
0
 40
1
 40
1
 40
1
 40
1
 10
468.360624
 20
180.366676
 30
0.0
 10
467.547159
 20
180.186374
 30
0.0
 10
466.877552
 20
180.268961
 30
0.0
 10
466.351802
 20
180.614437
 30
0.0
  0
SPLINE
  5
2eb
100
AcDbEntity
  8
0
 62
7
100
AcDbSpline
 70
8
 71
3
 72
8
 73
4
 74
0
 40
0
 40
0
 40
0
 40
0
 40
1
 40
1
 40
1
 40
1
 10
466.351802
 20
180.614437
 30
0.0
 10
465.830814
 20
180.967387
 30
0.0
 10
465.489659
 20
181.507780
 30
0.0
 10
465.328336
 20
182.235616
 30
0.0
  0
LWPOLYLINE
  5
2ec
100
AcDbEntity
  8
0
 62
7
100
AcDbPolyline
 90
1
 70
1
 10
466.694448
 20
193.963488
 30
0.0
  0
SPLINE
  5
2ed
100
AcDbEntity
  8
0
 62
7
100
AcDbSpline
 70
8
 71
3
 72
8
 73
4
 74
0
 40
0
 40
0
 40
0
 40
0
 40
1
 40
1
 40
1
 40
1
 10
466.160137
 20
182.391108
 30
0.0
 10
466.278078
 20
181.858995
 30
0.0
 10
466.510261
 20
181.477328
 30
0.0
 10
466.856684
 20
181.246108
 30
0.0
  0
SPLINE
  5
2ee
100
AcDbEntity
  8
0
 62
7
100
AcDbSpline
 70
8
 71
3
 72
8
 73
4
 74
0
 40
0
 40
0
 40
0
 40
0
 40
1
 40
1
 40
1
 40
1
 10
466.856684
 20
181.246108
 30
0.0
 10
467.209220
 20
181.016235
 30
0.0
 10
467.672955
 20
180.965015
 30
0.0
 10
468.247889
 20
181.092447
 30
0.0
  0
SPLINE
  5
2ef
100
AcDbEntity
  8
0
 62
7
100
AcDbSpline
 70
8
 71
3
 72
8
 73
4
 74
0
 40
0
 40
0
 40
0
 40
0
 40
1
 40
1
 40
1
 40
1
 10
468.247889
 20
181.092447
 30
0.0
 10
468.841164
 20
181.223945
 30
0.0
 10
469.234733
 20
181.474809
 30
0.0
 10
469.428597
 20
181.845039
 30
0.0
  0
SPLINE
  5
2f0
100
AcDbEntity
  8
0
 62
7
100
AcDbSpline
 70
8
 71
3
 72
8
 73
4
 74
0
 40
0
 40
0
 40
0
 40
0
 40
1
 40
1
 40
1
 40
1
 10
469.428597
 20
181.845039
 30
0.0
 10
469.627219
 20
182.222735
 30
0.0
 10
469.671625
 20
182.659292
 30
0.0
 10
469.561818
 20
183.154709
 30
0.0
  0
LWPOLYLINE
  5
2f1
100
AcDbEntity
  8
0
 62
7
100
AcDbPolyline
 90
4
 70
0
 10
465.328336
 20
182.235616
 30
0.0
 10
464.392933
 20
186.455854
 30
0.0
 10
465.218634
 20
186.638868
 30
0.0
 10
466.160137
 20
182.391108
 30
0.0
  0
SPLINE
  5
2f2
100
AcDbEntity
  8
0
 62
7
100
AcDbSpline
 70
8
 71
3
 72
8
 73
4
 74
0
 40
0
 40
0
 40
0
 40
0
 40
1
 40
1
 40
1
 40
1
 10
472.958512
 20
172.954153
 30
0.0
 10
473.203885
 20
171.847107
 30
0.0
 10
473.086176
 20
170.945131
 30
0.0
 10
472.605385
 20
170.248224
 30
0.0
  0
SPLINE
  5
2f3
100
AcDbEntity
  8
0
 62
7
100
AcDbSpline
 70
8
 71
3
 72
8
 73
4
 74
0
 40
0
 40
0
 40
0
 40
0
 40
1
 40
1
 40
1
 40
1
 10
472.605385
 20
170.248224
 30
0.0
 10
472.129351
 20
169.558783
 30
0.0
 10
471.353100
 20
169.094765
 30
0.0
 10
470.276631
 20
168.856169
 30
0.0
  0
LWPOLYLINE
  5
2f4
100
AcDbEntity
  8
0
 62
7
100
AcDbPolyline
 90
4
 70
0
 10
469.561818
 20
183.154709
 30
0.0
 10
468.622348
 20
187.393291
 30
0.0
 10
469.438872
 20
187.574272
 30
0.0
 10
470.378341
 20
183.335689
 30
0.0
  0
SPLINE
  5
2f5
100
AcDbEntity
  8
0
 62
7
100
AcDbSpline
 70
8
 71
3
 72
8
 73
4
 74
0
 40
0
 40
0
 40
0
 40
0
 40
1
 40
1
 40
1
 40
1
 10
469.017387
 20
175.449416
 30
0.0
 10
469.677949
 20
175.595827
 30
0.0
 10
470.276936
 20
175.600257
 30
0.0
 10
470.814349
 20
175.462705
 30
0.0
  0
SPLINE
  5
2f6
100
AcDbEntity
  8
0
 62
7
100
AcDbSpline
 70
8
 71
3
 72
8
 73
4
 74
0
 40
0
 40
0
 40
0
 40
0
 40
1
 40
1
 40
1
 40
1
 10
470.814349
 20
175.462705
 30
0.0
 10
471.351761
 20
175.325152
 30
0.0
 10
471.804837
 20
175.046985
 30
0.0
 10
472.173577
 20
174.628202
 30
0.0
  0
SPLINE
  5
2f7
100
AcDbEntity
  8
0
 62
7
100
AcDbSpline
 70
8
 71
3
 72
8
 73
4
 74
0
 40
0
 40
0
 40
0
 40
0
 40
1
 40
1
 40
1
 40
1
 10
472.173577
 20
174.628202
 30
0.0
 10
472.540966
 20
174.215546
 30
0.0
 10
472.802610
 20
173.657530
 30
0.0
 10
472.958512
 20
172.954153
 30
0.0
  0
LWPOLYLINE
  5
2f8
100
AcDbEntity
  8
0
 62
7
100
AcDbPolyline
 90
4
 70
0
 10
470.276631
 20
168.856169
 30
0.0
 10
468.450920
 20
168.451505
 30
0.0
 10
466.999011
 20
175.002049
 30
0.0
 10
469.017387
 20
175.449416
 30
0.0
  0
SPLINE
  5
2f9
100
AcDbEntity
  8
0
 62
7
100
AcDbSpline
 70
8
 71
3
 72
8
 73
4
 74
0
 40
0
 40
0
 40
0
 40
0
 40
1
 40
1
 40
1
 40
1
 10
472.093037
 20
172.733439
 30
0.0
 10
471.899178
 20
173.608066
 30
0.0
 10
471.540385
 20
174.199092
 30
0.0
 10
471.016657
 20
174.506517
 30
0.0
  0
SPLINE
  5
2fa
100
AcDbEntity
  8
0
 62
7
100
AcDbSpline
 70
8
 71
3
 72
8
 73
4
 74
0
 40
0
 40
0
 40
0
 40
0
 40
1
 40
1
 40
1
 40
1
 10
471.016657
 20
174.506517
 30
0.0
 10
470.497684
 20
174.821415
 30
0.0
 10
469.843699
 20
174.891425
 30
0.0
 10
469.054701
 20
174.716546
 30
0.0
  0
LWPOLYLINE
  5
2fb
100
AcDbEntity
  8
0
 62
7
100
AcDbPolyline
 90
1
 70
1
 10
472.958512
 20
172.954153
 30
0.0
  0
SPLINE
  5
2fc
100
AcDbEntity
  8
0
 62
7
100
AcDbSpline
 70
8
 71
3
 72
8
 73
4
 74
0
 40
0
 40
0
 40
0
 40
0
 40
1
 40
1
 40
1
 40
1
 10
470.009966
 20
169.538194
 30
0.0
 10
471.783686
 20
169.931333
 30
0.0
 10
472.478043
 20
170.996415
 30
0.0
 10
472.093037
 20
172.733439
 30
0.0
  0
LWPOLYLINE
  5
2fd
100
AcDbEntity
  8
0
 62
7
100
AcDbPolyline
 90
4
 70
0
 10
469.054701
 20
174.716546
 30
0.0
 10
467.981292
 20
174.478628
 30
0.0
 10
469.120044
 20
169.340945
 30
0.0
 10
470.009966
 20
169.538194
 30
0.0
  0
SPLINE
  5
2fe
100
AcDbEntity
  8
0
 62
7
100
AcDbSpline
 70
8
 71
3
 72
8
 73
4
 74
0
 40
0
 40
0
 40
0
 40
0
 40
1
 40
1
 40
1
 40
1
 10
475.980464
 20
161.534777
 30
0.0
 10
476.130942
 20
160.855867
 30
0.0
 10
476.146232
 20
160.236828
 30
0.0
 10
476.026332
 20
159.677660
 30
0.0
  0
SPLINE
  5
2ff
100
AcDbEntity
  8
0
 62
7
100
AcDbSpline
 70
8
 71
3
 72
8
 73
4
 74
0
 40
0
 40
0
 40
0
 40
0
 40
1
 40
1
 40
1
 40
1
 10
476.026332
 20
159.677660
 30
0.0
 10
475.911195
 20
159.125966
 30
0.0
 10
475.661561
 20
158.659962
 30
0.0
 10
475.277431
 20
158.279646
 30
0.0
  0
SPLINE
  5
300
100
AcDbEntity
  8
0
 62
7
100
AcDbSpline
 70
8
 71
3
 72
8
 73
4
 74
0
 40
0
 40
0
 40
0
 40
0
 40
1
 40
1
 40
1
 40
1
 10
475.277431
 20
158.279646
 30
0.0
 10
474.893300
 20
157.899338
 30
0.0
 10
474.370956
 20
157.635978
 30
0.0
 10
473.710401
 20
157.489568
 30
0.0
  0
SPLINE
  5
301
100
AcDbEntity
  8
0
 62
7
100
AcDbSpline
 70
8
 71
3
 72
8
 73
4
 74
0
 40
0
 40
0
 40
0
 40
0
 40
1
 40
1
 40
1
 40
1
 10
473.710401
 20
157.489568
 30
0.0
 10
473.031491
 20
157.339090
 30
0.0
 10
472.434555
 20
157.354364
 30
0.0
 10
471.919593
 20
157.535392
 30
0.0
  0
SPLINE
  5
302
100
AcDbEntity
  8
0
 62
7
100
AcDbSpline
 70
8
 71
3
 72
8
 73
4
 74
0
 40
0
 40
0
 40
0
 40
0
 40
1
 40
1
 40
1
 40
1
 10
471.919593
 20
157.535392
 30
0.0
 10
471.410742
 20
157.717780
 30
0.0
 10
470.989961
 20
158.038399
 30
0.0
 10
470.657252
 20
158.497247
 30
0.0
  0
SPLINE
  5
303
100
AcDbEntity
  8
0
 62
7
100
AcDbSpline
 70
8
 71
3
 72
8
 73
4
 74
0
 40
0
 40
0
 40
0
 40
0
 40
1
 40
1
 40
1
 40
1
 10
470.657252
 20
158.497247
 30
0.0
 10
470.324549
 20
158.956097
 30
0.0
 10
470.082959
 20
159.524974
 30
0.0
 10
469.932482
 20
160.203878
 30
0.0
  0
SPLINE
  5
304
100
AcDbEntity
  8
0
 62
7
100
AcDbSpline
 70
8
 71
3
 72
8
 73
4
 74
0
 40
0
 40
0
 40
0
 40
0
 40
1
 40
1
 40
1
 40
1
 10
469.932482
 20
160.203878
 30
0.0
 10
469.783360
 20
160.876670
 30
0.0
 10
469.763309
 20
161.488234
 30
0.0
 10
469.872328
 20
162.038572
 30
0.0
  0
SPLINE
  5
305
100
AcDbEntity
  8
0
 62
7
100
AcDbSpline
 70
8
 71
3
 72
8
 73
4
 74
0
 40
0
 40
0
 40
0
 40
0
 40
1
 40
1
 40
1
 40
1
 10
469.872328
 20
162.038572
 30
0.0
 10
469.981352
 20
162.588918
 30
0.0
 10
470.227930
 20
163.054245
 30
0.0
 10
470.612061
 20
163.434554
 30
0.0
  0
SPLINE
  5
306
100
AcDbEntity
  8
0
 62
7
100
AcDbSpline
 70
8
 71
3
 72
8
 73
4
 74
0
 40
0
 40
0
 40
0
 40
0
 40
1
 40
1
 40
1
 40
1
 10
470.612061
 20
163.434554
 30
0.0
 10
471.002303
 20
163.816223
 30
0.0
 10
471.539935
 20
164.082975
 30
0.0
 10
472.224956
 20
164.234808
 30
0.0
  0
SPLINE
  5
307
100
AcDbEntity
  8
0
 62
7
100
AcDbSpline
 70
8
 71
3
 72
8
 73
4
 74
0
 40
0
 40
0
 40
0
 40
0
 40
1
 40
1
 40
1
 40
1
 10
472.224956
 20
164.234808
 30
0.0
 10
472.879400
 20
164.379863
 30
0.0
 10
473.461048
 20
164.361197
 30
0.0
 10
473.969899
 20
164.178808
 30
0.0
  0
SPLINE
  5
308
100
AcDbEntity
  8
0
 62
7
100
AcDbSpline
 70
8
 71
3
 72
8
 73
4
 74
0
 40
0
 40
0
 40
0
 40
0
 40
1
 40
1
 40
1
 40
1
 10
473.969899
 20
164.178808
 30
0.0
 10
474.477395
 20
164.002538
 30
0.0
 10
474.900553
 20
163.685656
 30
0.0
 10
475.239374
 20
163.228162
 30
0.0
  0
SPLINE
  5
309
100
AcDbEntity
  8
0
 62
7
100
AcDbSpline
 70
8
 71
3
 72
8
 73
4
 74
0
 40
0
 40
0
 40
0
 40
0
 40
1
 40
1
 40
1
 40
1
 10
475.239374
 20
163.228162
 30
0.0
 10
475.582957
 20
162.778142
 30
0.0
 10
475.829987
 20
162.213681
 30
0.0
 10
475.980464
 20
161.534777
 30
0.0
  0
LWPOLYLINE
  5
30a
100
AcDbEntity
  8
0
 62
7
100
AcDbPolyline
 90
1
 70
1
 10
472.093037
 20
172.733439
 30
0.0
  0
SPLINE
  5
30b
100
AcDbEntity
  8
0
 62
7
100
AcDbSpline
 70
8
 71
3
 72
8
 73
4
 74
0
 40
0
 40
0
 40
0
 40
0
 40
1
 40
1
 40
1
 40
1
 10
470.806082
 20
160.387891
 30
0.0
 10
470.989096
 20
159.562190
 30
0.0
 10
471.307787
 20
158.949441
 30
0.0
 10
471.762153
 20
158.549644
 30
0.0
  0
SPLINE
  5
30c
100
AcDbEntity
  8
0
 62
7
100
AcDbSpline
 70
8
 71
3
 72
8
 73
4
 74
0
 40
0
 40
0
 40
0
 40
0
 40
1
 40
1
 40
1
 40
1
 10
471.762153
 20
158.549644
 30
0.0
 10
472.215172
 20
158.155961
 30
0.0
 10
472.811717
 20
158.041136
 30
0.0
 10
473.551790
 20
158.205171
 30
0.0
  0
SPLINE
  5
30d
100
AcDbEntity
  8
0
 62
7
100
AcDbSpline
 70
8
 71
3
 72
8
 73
4
 74
0
 40
0
 40
0
 40
0
 40
0
 40
1
 40
1
 40
1
 40
1
 10
473.551790
 20
158.205171
 30
0.0
 10
474.297974
 20
158.370561
 30
0.0
 10
474.790130
 20
158.726692
 30
0.0
 10
475.028258
 20
159.273567
 30
0.0
  0
SPLINE
  5
30e
100
AcDbEntity
  8
0
 62
7
100
AcDbSpline
 70
8
 71
3
 72
8
 73
4
 74
0
 40
0
 40
0
 40
0
 40
0
 40
1
 40
1
 40
1
 40
1
 10
475.028258
 20
159.273567
 30
0.0
 10
475.265031
 20
159.826552
 30
0.0
 10
475.291910
 20
160.515896
 30
0.0
 10
475.108896
 20
161.341597
 30
0.0
  0
SPLINE
  5
30f
100
AcDbEntity
  8
0
 62
7
100
AcDbSpline
 70
8
 71
3
 72
8
 73
4
 74
0
 40
0
 40
0
 40
0
 40
0
 40
1
 40
1
 40
1
 40
1
 10
475.108896
 20
161.341597
 30
0.0
 10
474.925883
 20
162.167291
 30
0.0
 10
474.611605
 20
162.774599
 30
0.0
 10
474.166061
 20
163.163520
 30
0.0
  0
SPLINE
  5
310
100
AcDbEntity
  8
0
 62
7
100
AcDbSpline
 70
8
 71
3
 72
8
 73
4
 74
0
 40
0
 40
0
 40
0
 40
0
 40
1
 40
1
 40
1
 40
1
 10
474.166061
 20
163.163520
 30
0.0
 10
473.719160
 20
163.558560
 30
0.0
 10
473.125674
 20
163.674063
 30
0.0
 10
472.385602
 20
163.510028
 30
0.0
  0
SPLINE
  5
311
100
AcDbEntity
  8
0
 62
7
100
AcDbSpline
 70
8
 71
3
 72
8
 73
4
 74
0
 40
0
 40
0
 40
0
 40
0
 40
1
 40
1
 40
1
 40
1
 10
472.385602
 20
163.510028
 30
0.0
 10
471.645536
 20
163.345994
 30
0.0
 10
471.150321
 20
162.989184
 30
0.0
 10
470.899956
 20
162.439598
 30
0.0
  0
SPLINE
  5
312
100
AcDbEntity
  8
0
 62
7
100
AcDbSpline
 70
8
 71
3
 72
8
 73
4
 74
0
 40
0
 40
0
 40
0
 40
0
 40
1
 40
1
 40
1
 40
1
 10
470.899956
 20
162.439598
 30
0.0
 10
470.654361
 20
161.897487
 30
0.0
 10
470.623069
 20
161.213585
 30
0.0
 10
470.806082
 20
160.387891
 30
0.0
  0
LWPOLYLINE
  5
313
100
AcDbEntity
  8
0
 62
7
100
AcDbPolyline
 90
1
 70
1
 10
475.980464
 20
161.534777
 30
0.0
  0
LWPOLYLINE
  5
314
100
AcDbEntity
  8
0
 62
7
100
AcDbPolyline
 90
1
 70
1
 10
470.806082
 20
160.387891
 30
0.0
  0
ENDSEC
  0
SECTION
  2
OBJECTS
  0
DICTIONARY
  5
C
330
0
100
AcDbDictionary
  3
ACAD_GROUP
350
D
  3
ACAD_MLINESTYLE
350
17
  0
DICTIONARY
  5
D
330
C
100
AcDbDictionary
  0
DICTIONARY
  5
1A
330
C
100
AcDbDictionary
  0
DICTIONARY
  5
17
330
C
100
AcDbDictionary
  3
STANDARD
350
18
  0
DICTIONARY
  5
19
330
C
100
AcDbDictionary
  0
ENDSEC
  0
EOF
